%TF.GenerationSoftware,KiCad,Pcbnew,(6.0.10)*%
%TF.CreationDate,2023-03-04T03:17:44-05:00*%
%TF.ProjectId,SmartWatch,536d6172-7457-4617-9463-682e6b696361,rev?*%
%TF.SameCoordinates,Original*%
%TF.FileFunction,Drillmap*%
%TF.FilePolarity,Positive*%
%FSLAX45Y45*%
G04 Gerber Fmt 4.5, Leading zero omitted, Abs format (unit mm)*
G04 Created by KiCad (PCBNEW (6.0.10)) date 2023-03-04 03:17:44*
%MOMM*%
%LPD*%
G01*
G04 APERTURE LIST*
%ADD10C,0.100000*%
%ADD11C,0.200000*%
%ADD12C,0.050000*%
G04 APERTURE END LIST*
D10*
X10390000Y-11010000D02*
G75*
G03*
X10710000Y-10690000I0J320000D01*
G01*
X7160000Y-5950000D02*
G75*
G03*
X6840000Y-6270000I0J-320000D01*
G01*
X6840000Y-10690000D02*
X6840000Y-6270000D01*
X10710000Y-6270000D02*
G75*
G03*
X10390000Y-5950000I-320000J0D01*
G01*
X7160000Y-5950000D02*
X10390000Y-5950000D01*
X6840000Y-10690000D02*
G75*
G03*
X7160000Y-11010000I320000J0D01*
G01*
X10390000Y-11010000D02*
X7160000Y-11010000D01*
X10710000Y-6270000D02*
X10710000Y-10690000D01*
D11*
D12*
X7707600Y-6121800D02*
X7757600Y-6171800D01*
X7757600Y-6121800D02*
X7707600Y-6171800D01*
X8367600Y-6121800D02*
X8417600Y-6171800D01*
X8417600Y-6121800D02*
X8367600Y-6171800D01*
D11*
X7092619Y-11325476D02*
X7092619Y-11125476D01*
X7140238Y-11125476D01*
X7168809Y-11135000D01*
X7187857Y-11154048D01*
X7197381Y-11173095D01*
X7206905Y-11211190D01*
X7206905Y-11239762D01*
X7197381Y-11277857D01*
X7187857Y-11296905D01*
X7168809Y-11315952D01*
X7140238Y-11325476D01*
X7092619Y-11325476D01*
X7292619Y-11325476D02*
X7292619Y-11192143D01*
X7292619Y-11230238D02*
X7302143Y-11211190D01*
X7311667Y-11201667D01*
X7330714Y-11192143D01*
X7349762Y-11192143D01*
X7416428Y-11325476D02*
X7416428Y-11192143D01*
X7416428Y-11125476D02*
X7406905Y-11135000D01*
X7416428Y-11144524D01*
X7425952Y-11135000D01*
X7416428Y-11125476D01*
X7416428Y-11144524D01*
X7540238Y-11325476D02*
X7521190Y-11315952D01*
X7511667Y-11296905D01*
X7511667Y-11125476D01*
X7645000Y-11325476D02*
X7625952Y-11315952D01*
X7616428Y-11296905D01*
X7616428Y-11125476D01*
X7873571Y-11325476D02*
X7873571Y-11125476D01*
X7940238Y-11268333D01*
X8006905Y-11125476D01*
X8006905Y-11325476D01*
X8187857Y-11325476D02*
X8187857Y-11220714D01*
X8178333Y-11201667D01*
X8159286Y-11192143D01*
X8121190Y-11192143D01*
X8102143Y-11201667D01*
X8187857Y-11315952D02*
X8168809Y-11325476D01*
X8121190Y-11325476D01*
X8102143Y-11315952D01*
X8092619Y-11296905D01*
X8092619Y-11277857D01*
X8102143Y-11258809D01*
X8121190Y-11249286D01*
X8168809Y-11249286D01*
X8187857Y-11239762D01*
X8283095Y-11192143D02*
X8283095Y-11392143D01*
X8283095Y-11201667D02*
X8302143Y-11192143D01*
X8340238Y-11192143D01*
X8359286Y-11201667D01*
X8368809Y-11211190D01*
X8378333Y-11230238D01*
X8378333Y-11287381D01*
X8368809Y-11306428D01*
X8359286Y-11315952D01*
X8340238Y-11325476D01*
X8302143Y-11325476D01*
X8283095Y-11315952D01*
X8464048Y-11306428D02*
X8473571Y-11315952D01*
X8464048Y-11325476D01*
X8454524Y-11315952D01*
X8464048Y-11306428D01*
X8464048Y-11325476D01*
X8464048Y-11201667D02*
X8473571Y-11211190D01*
X8464048Y-11220714D01*
X8454524Y-11211190D01*
X8464048Y-11201667D01*
X8464048Y-11220714D01*
D12*
X6785000Y-11630000D02*
X6835000Y-11680000D01*
X6835000Y-11630000D02*
X6785000Y-11680000D01*
D11*
X7130714Y-11545476D02*
X7149762Y-11545476D01*
X7168809Y-11555000D01*
X7178333Y-11564524D01*
X7187857Y-11583571D01*
X7197381Y-11621667D01*
X7197381Y-11669286D01*
X7187857Y-11707381D01*
X7178333Y-11726428D01*
X7168809Y-11735952D01*
X7149762Y-11745476D01*
X7130714Y-11745476D01*
X7111667Y-11735952D01*
X7102143Y-11726428D01*
X7092619Y-11707381D01*
X7083095Y-11669286D01*
X7083095Y-11621667D01*
X7092619Y-11583571D01*
X7102143Y-11564524D01*
X7111667Y-11555000D01*
X7130714Y-11545476D01*
X7283095Y-11726428D02*
X7292619Y-11735952D01*
X7283095Y-11745476D01*
X7273571Y-11735952D01*
X7283095Y-11726428D01*
X7283095Y-11745476D01*
X7473571Y-11545476D02*
X7378333Y-11545476D01*
X7368809Y-11640714D01*
X7378333Y-11631190D01*
X7397381Y-11621667D01*
X7445000Y-11621667D01*
X7464048Y-11631190D01*
X7473571Y-11640714D01*
X7483095Y-11659762D01*
X7483095Y-11707381D01*
X7473571Y-11726428D01*
X7464048Y-11735952D01*
X7445000Y-11745476D01*
X7397381Y-11745476D01*
X7378333Y-11735952D01*
X7368809Y-11726428D01*
X7606905Y-11545476D02*
X7625952Y-11545476D01*
X7645000Y-11555000D01*
X7654524Y-11564524D01*
X7664048Y-11583571D01*
X7673571Y-11621667D01*
X7673571Y-11669286D01*
X7664048Y-11707381D01*
X7654524Y-11726428D01*
X7645000Y-11735952D01*
X7625952Y-11745476D01*
X7606905Y-11745476D01*
X7587857Y-11735952D01*
X7578333Y-11726428D01*
X7568809Y-11707381D01*
X7559286Y-11669286D01*
X7559286Y-11621667D01*
X7568809Y-11583571D01*
X7578333Y-11564524D01*
X7587857Y-11555000D01*
X7606905Y-11545476D01*
X7797381Y-11545476D02*
X7816428Y-11545476D01*
X7835476Y-11555000D01*
X7845000Y-11564524D01*
X7854524Y-11583571D01*
X7864048Y-11621667D01*
X7864048Y-11669286D01*
X7854524Y-11707381D01*
X7845000Y-11726428D01*
X7835476Y-11735952D01*
X7816428Y-11745476D01*
X7797381Y-11745476D01*
X7778333Y-11735952D01*
X7768809Y-11726428D01*
X7759286Y-11707381D01*
X7749762Y-11669286D01*
X7749762Y-11621667D01*
X7759286Y-11583571D01*
X7768809Y-11564524D01*
X7778333Y-11555000D01*
X7797381Y-11545476D01*
X7949762Y-11745476D02*
X7949762Y-11612143D01*
X7949762Y-11631190D02*
X7959286Y-11621667D01*
X7978333Y-11612143D01*
X8006905Y-11612143D01*
X8025952Y-11621667D01*
X8035476Y-11640714D01*
X8035476Y-11745476D01*
X8035476Y-11640714D02*
X8045000Y-11621667D01*
X8064048Y-11612143D01*
X8092619Y-11612143D01*
X8111667Y-11621667D01*
X8121190Y-11640714D01*
X8121190Y-11745476D01*
X8216428Y-11745476D02*
X8216428Y-11612143D01*
X8216428Y-11631190D02*
X8225952Y-11621667D01*
X8245000Y-11612143D01*
X8273571Y-11612143D01*
X8292619Y-11621667D01*
X8302143Y-11640714D01*
X8302143Y-11745476D01*
X8302143Y-11640714D02*
X8311667Y-11621667D01*
X8330714Y-11612143D01*
X8359286Y-11612143D01*
X8378333Y-11621667D01*
X8387857Y-11640714D01*
X8387857Y-11745476D01*
X8778333Y-11535952D02*
X8606905Y-11793095D01*
X9035476Y-11545476D02*
X9054524Y-11545476D01*
X9073571Y-11555000D01*
X9083095Y-11564524D01*
X9092619Y-11583571D01*
X9102143Y-11621667D01*
X9102143Y-11669286D01*
X9092619Y-11707381D01*
X9083095Y-11726428D01*
X9073571Y-11735952D01*
X9054524Y-11745476D01*
X9035476Y-11745476D01*
X9016429Y-11735952D01*
X9006905Y-11726428D01*
X8997381Y-11707381D01*
X8987857Y-11669286D01*
X8987857Y-11621667D01*
X8997381Y-11583571D01*
X9006905Y-11564524D01*
X9016429Y-11555000D01*
X9035476Y-11545476D01*
X9187857Y-11726428D02*
X9197381Y-11735952D01*
X9187857Y-11745476D01*
X9178333Y-11735952D01*
X9187857Y-11726428D01*
X9187857Y-11745476D01*
X9321190Y-11545476D02*
X9340238Y-11545476D01*
X9359286Y-11555000D01*
X9368810Y-11564524D01*
X9378333Y-11583571D01*
X9387857Y-11621667D01*
X9387857Y-11669286D01*
X9378333Y-11707381D01*
X9368810Y-11726428D01*
X9359286Y-11735952D01*
X9340238Y-11745476D01*
X9321190Y-11745476D01*
X9302143Y-11735952D01*
X9292619Y-11726428D01*
X9283095Y-11707381D01*
X9273571Y-11669286D01*
X9273571Y-11621667D01*
X9283095Y-11583571D01*
X9292619Y-11564524D01*
X9302143Y-11555000D01*
X9321190Y-11545476D01*
X9578333Y-11745476D02*
X9464048Y-11745476D01*
X9521190Y-11745476D02*
X9521190Y-11545476D01*
X9502143Y-11574048D01*
X9483095Y-11593095D01*
X9464048Y-11602619D01*
X9673571Y-11745476D02*
X9711667Y-11745476D01*
X9730714Y-11735952D01*
X9740238Y-11726428D01*
X9759286Y-11697857D01*
X9768810Y-11659762D01*
X9768810Y-11583571D01*
X9759286Y-11564524D01*
X9749762Y-11555000D01*
X9730714Y-11545476D01*
X9692619Y-11545476D01*
X9673571Y-11555000D01*
X9664048Y-11564524D01*
X9654524Y-11583571D01*
X9654524Y-11631190D01*
X9664048Y-11650238D01*
X9673571Y-11659762D01*
X9692619Y-11669286D01*
X9730714Y-11669286D01*
X9749762Y-11659762D01*
X9759286Y-11650238D01*
X9768810Y-11631190D01*
X9835476Y-11545476D02*
X9968810Y-11545476D01*
X9883095Y-11745476D01*
X10035476Y-11545476D02*
X10035476Y-11583571D01*
X10111667Y-11545476D02*
X10111667Y-11583571D01*
X10406905Y-11821667D02*
X10397381Y-11812143D01*
X10378333Y-11783571D01*
X10368810Y-11764524D01*
X10359286Y-11735952D01*
X10349762Y-11688333D01*
X10349762Y-11650238D01*
X10359286Y-11602619D01*
X10368810Y-11574048D01*
X10378333Y-11555000D01*
X10397381Y-11526428D01*
X10406905Y-11516905D01*
X10473571Y-11564524D02*
X10483095Y-11555000D01*
X10502143Y-11545476D01*
X10549762Y-11545476D01*
X10568810Y-11555000D01*
X10578333Y-11564524D01*
X10587857Y-11583571D01*
X10587857Y-11602619D01*
X10578333Y-11631190D01*
X10464048Y-11745476D01*
X10587857Y-11745476D01*
X10825952Y-11745476D02*
X10825952Y-11545476D01*
X10911667Y-11745476D02*
X10911667Y-11640714D01*
X10902143Y-11621667D01*
X10883095Y-11612143D01*
X10854524Y-11612143D01*
X10835476Y-11621667D01*
X10825952Y-11631190D01*
X11035476Y-11745476D02*
X11016429Y-11735952D01*
X11006905Y-11726428D01*
X10997381Y-11707381D01*
X10997381Y-11650238D01*
X11006905Y-11631190D01*
X11016429Y-11621667D01*
X11035476Y-11612143D01*
X11064048Y-11612143D01*
X11083095Y-11621667D01*
X11092619Y-11631190D01*
X11102143Y-11650238D01*
X11102143Y-11707381D01*
X11092619Y-11726428D01*
X11083095Y-11735952D01*
X11064048Y-11745476D01*
X11035476Y-11745476D01*
X11216428Y-11745476D02*
X11197381Y-11735952D01*
X11187857Y-11716905D01*
X11187857Y-11545476D01*
X11368809Y-11735952D02*
X11349762Y-11745476D01*
X11311667Y-11745476D01*
X11292619Y-11735952D01*
X11283095Y-11716905D01*
X11283095Y-11640714D01*
X11292619Y-11621667D01*
X11311667Y-11612143D01*
X11349762Y-11612143D01*
X11368809Y-11621667D01*
X11378333Y-11640714D01*
X11378333Y-11659762D01*
X11283095Y-11678809D01*
X11454524Y-11735952D02*
X11473571Y-11745476D01*
X11511667Y-11745476D01*
X11530714Y-11735952D01*
X11540238Y-11716905D01*
X11540238Y-11707381D01*
X11530714Y-11688333D01*
X11511667Y-11678809D01*
X11483095Y-11678809D01*
X11464048Y-11669286D01*
X11454524Y-11650238D01*
X11454524Y-11640714D01*
X11464048Y-11621667D01*
X11483095Y-11612143D01*
X11511667Y-11612143D01*
X11530714Y-11621667D01*
X11606905Y-11821667D02*
X11616428Y-11812143D01*
X11635476Y-11783571D01*
X11645000Y-11764524D01*
X11654524Y-11735952D01*
X11664048Y-11688333D01*
X11664048Y-11650238D01*
X11654524Y-11602619D01*
X11645000Y-11574048D01*
X11635476Y-11555000D01*
X11616428Y-11526428D01*
X11606905Y-11516905D01*
X11968809Y-11821667D02*
X11959286Y-11812143D01*
X11940238Y-11783571D01*
X11930714Y-11764524D01*
X11921190Y-11735952D01*
X11911667Y-11688333D01*
X11911667Y-11650238D01*
X11921190Y-11602619D01*
X11930714Y-11574048D01*
X11940238Y-11555000D01*
X11959286Y-11526428D01*
X11968809Y-11516905D01*
X12045000Y-11612143D02*
X12045000Y-11745476D01*
X12045000Y-11631190D02*
X12054524Y-11621667D01*
X12073571Y-11612143D01*
X12102143Y-11612143D01*
X12121190Y-11621667D01*
X12130714Y-11640714D01*
X12130714Y-11745476D01*
X12254524Y-11745476D02*
X12235476Y-11735952D01*
X12225952Y-11726428D01*
X12216428Y-11707381D01*
X12216428Y-11650238D01*
X12225952Y-11631190D01*
X12235476Y-11621667D01*
X12254524Y-11612143D01*
X12283095Y-11612143D01*
X12302143Y-11621667D01*
X12311667Y-11631190D01*
X12321190Y-11650238D01*
X12321190Y-11707381D01*
X12311667Y-11726428D01*
X12302143Y-11735952D01*
X12283095Y-11745476D01*
X12254524Y-11745476D01*
X12378333Y-11612143D02*
X12454524Y-11612143D01*
X12406905Y-11545476D02*
X12406905Y-11716905D01*
X12416428Y-11735952D01*
X12435476Y-11745476D01*
X12454524Y-11745476D01*
X12673571Y-11612143D02*
X12673571Y-11812143D01*
X12673571Y-11621667D02*
X12692619Y-11612143D01*
X12730714Y-11612143D01*
X12749762Y-11621667D01*
X12759286Y-11631190D01*
X12768809Y-11650238D01*
X12768809Y-11707381D01*
X12759286Y-11726428D01*
X12749762Y-11735952D01*
X12730714Y-11745476D01*
X12692619Y-11745476D01*
X12673571Y-11735952D01*
X12883095Y-11745476D02*
X12864048Y-11735952D01*
X12854524Y-11716905D01*
X12854524Y-11545476D01*
X13045000Y-11745476D02*
X13045000Y-11640714D01*
X13035476Y-11621667D01*
X13016428Y-11612143D01*
X12978333Y-11612143D01*
X12959286Y-11621667D01*
X13045000Y-11735952D02*
X13025952Y-11745476D01*
X12978333Y-11745476D01*
X12959286Y-11735952D01*
X12949762Y-11716905D01*
X12949762Y-11697857D01*
X12959286Y-11678809D01*
X12978333Y-11669286D01*
X13025952Y-11669286D01*
X13045000Y-11659762D01*
X13111667Y-11612143D02*
X13187857Y-11612143D01*
X13140238Y-11545476D02*
X13140238Y-11716905D01*
X13149762Y-11735952D01*
X13168809Y-11745476D01*
X13187857Y-11745476D01*
X13330714Y-11735952D02*
X13311667Y-11745476D01*
X13273571Y-11745476D01*
X13254524Y-11735952D01*
X13245000Y-11716905D01*
X13245000Y-11640714D01*
X13254524Y-11621667D01*
X13273571Y-11612143D01*
X13311667Y-11612143D01*
X13330714Y-11621667D01*
X13340238Y-11640714D01*
X13340238Y-11659762D01*
X13245000Y-11678809D01*
X13511667Y-11745476D02*
X13511667Y-11545476D01*
X13511667Y-11735952D02*
X13492619Y-11745476D01*
X13454524Y-11745476D01*
X13435476Y-11735952D01*
X13425952Y-11726428D01*
X13416428Y-11707381D01*
X13416428Y-11650238D01*
X13425952Y-11631190D01*
X13435476Y-11621667D01*
X13454524Y-11612143D01*
X13492619Y-11612143D01*
X13511667Y-11621667D01*
X13587857Y-11821667D02*
X13597381Y-11812143D01*
X13616428Y-11783571D01*
X13625952Y-11764524D01*
X13635476Y-11735952D01*
X13645000Y-11688333D01*
X13645000Y-11650238D01*
X13635476Y-11602619D01*
X13625952Y-11574048D01*
X13616428Y-11555000D01*
X13597381Y-11526428D01*
X13587857Y-11516905D01*
M02*
