G04 #@! TF.GenerationSoftware,KiCad,Pcbnew,(6.0.10)*
G04 #@! TF.CreationDate,2023-03-04T03:17:20-05:00*
G04 #@! TF.ProjectId,SmartWatch,536d6172-7457-4617-9463-682e6b696361,rev?*
G04 #@! TF.SameCoordinates,Original*
G04 #@! TF.FileFunction,Legend,Top*
G04 #@! TF.FilePolarity,Positive*
%FSLAX46Y46*%
G04 Gerber Fmt 4.6, Leading zero omitted, Abs format (unit mm)*
G04 Created by KiCad (PCBNEW (6.0.10)) date 2023-03-04 03:17:20*
%MOMM*%
%LPD*%
G01*
G04 APERTURE LIST*
G04 Aperture macros list*
%AMRoundRect*
0 Rectangle with rounded corners*
0 $1 Rounding radius*
0 $2 $3 $4 $5 $6 $7 $8 $9 X,Y pos of 4 corners*
0 Add a 4 corners polygon primitive as box body*
4,1,4,$2,$3,$4,$5,$6,$7,$8,$9,$2,$3,0*
0 Add four circle primitives for the rounded corners*
1,1,$1+$1,$2,$3*
1,1,$1+$1,$4,$5*
1,1,$1+$1,$6,$7*
1,1,$1+$1,$8,$9*
0 Add four rect primitives between the rounded corners*
20,1,$1+$1,$2,$3,$4,$5,0*
20,1,$1+$1,$4,$5,$6,$7,0*
20,1,$1+$1,$6,$7,$8,$9,0*
20,1,$1+$1,$8,$9,$2,$3,0*%
G04 Aperture macros list end*
%ADD10C,0.300000*%
%ADD11C,0.150000*%
%ADD12C,0.120000*%
%ADD13C,0.127000*%
%ADD14C,0.200000*%
%ADD15RoundRect,0.050800X0.450000X0.600000X-0.450000X0.600000X-0.450000X-0.600000X0.450000X-0.600000X0*%
%ADD16RoundRect,0.050800X-0.450000X-0.600000X0.450000X-0.600000X0.450000X0.600000X-0.450000X0.600000X0*%
%ADD17RoundRect,0.050800X0.600000X-0.450000X0.600000X0.450000X-0.600000X0.450000X-0.600000X-0.450000X0*%
%ADD18RoundRect,0.250800X-0.200000X-0.275000X0.200000X-0.275000X0.200000X0.275000X-0.200000X0.275000X0*%
%ADD19RoundRect,0.300800X-0.250000X-0.475000X0.250000X-0.475000X0.250000X0.475000X-0.250000X0.475000X0*%
%ADD20RoundRect,0.200800X0.512500X0.150000X-0.512500X0.150000X-0.512500X-0.150000X0.512500X-0.150000X0*%
%ADD21RoundRect,0.190800X-0.170000X0.140000X-0.170000X-0.140000X0.170000X-0.140000X0.170000X0.140000X0*%
%ADD22RoundRect,0.050800X0.127000X1.150000X-0.127000X1.150000X-0.127000X-1.150000X0.127000X-1.150000X0*%
%ADD23RoundRect,0.050800X1.600000X-0.127000X1.600000X0.127000X-1.600000X0.127000X-1.600000X-0.127000X0*%
%ADD24RoundRect,0.050800X0.127000X1.100000X-0.127000X1.100000X-0.127000X-1.100000X0.127000X-1.100000X0*%
%ADD25RoundRect,0.050800X-2.500000X0.127000X-2.500000X-0.127000X2.500000X-0.127000X2.500000X0.127000X0*%
%ADD26RoundRect,0.050800X0.127000X1.125000X-0.127000X1.125000X-0.127000X-1.125000X0.127000X-1.125000X0*%
%ADD27RoundRect,0.050800X0.127000X1.075000X-0.127000X1.075000X-0.127000X-1.075000X0.127000X-1.075000X0*%
%ADD28RoundRect,0.050800X0.127000X1.250000X-0.127000X1.250000X-0.127000X-1.250000X0.127000X-1.250000X0*%
%ADD29RoundRect,0.050800X-0.127000X0.450000X-0.127000X-0.450000X0.127000X-0.450000X0.127000X0.450000X0*%
%ADD30RoundRect,0.050800X-0.450000X-0.127000X0.450000X-0.127000X0.450000X0.127000X-0.450000X0.127000X0*%
%ADD31RoundRect,0.050800X0.127000X-0.450000X0.127000X0.450000X-0.127000X0.450000X-0.127000X-0.450000X0*%
%ADD32RoundRect,0.050800X0.450000X0.127000X-0.450000X0.127000X-0.450000X-0.127000X0.450000X-0.127000X0*%
%ADD33RoundRect,0.050800X-1.550000X1.550000X-1.550000X-1.550000X1.550000X-1.550000X1.550000X1.550000X0*%
%ADD34RoundRect,0.275800X-0.250000X0.225000X-0.250000X-0.225000X0.250000X-0.225000X0.250000X0.225000X0*%
%ADD35RoundRect,0.275800X0.225000X0.250000X-0.225000X0.250000X-0.225000X-0.250000X0.225000X-0.250000X0*%
%ADD36RoundRect,0.185800X-0.135000X-0.185000X0.135000X-0.185000X0.135000X0.185000X-0.135000X0.185000X0*%
%ADD37RoundRect,0.275800X-0.225000X-0.250000X0.225000X-0.250000X0.225000X0.250000X-0.225000X0.250000X0*%
%ADD38RoundRect,0.190800X0.170000X-0.140000X0.170000X0.140000X-0.170000X0.140000X-0.170000X-0.140000X0*%
%ADD39RoundRect,0.190800X0.140000X0.170000X-0.140000X0.170000X-0.140000X-0.170000X0.140000X-0.170000X0*%
%ADD40RoundRect,0.050800X0.850000X0.850000X-0.850000X0.850000X-0.850000X-0.850000X0.850000X-0.850000X0*%
%ADD41O,1.801600X1.801600*%
%ADD42C,1.101600*%
%ADD43C,4.501600*%
%ADD44RoundRect,0.050800X0.525000X-0.700000X0.525000X0.700000X-0.525000X0.700000X-0.525000X-0.700000X0*%
%ADD45RoundRect,0.185800X0.135000X0.185000X-0.135000X0.185000X-0.135000X-0.185000X0.135000X-0.185000X0*%
%ADD46RoundRect,0.269550X0.218750X0.256250X-0.218750X0.256250X-0.218750X-0.256250X0.218750X-0.256250X0*%
%ADD47C,0.601600*%
%ADD48RoundRect,0.050800X0.200000X0.675000X-0.200000X0.675000X-0.200000X-0.675000X0.200000X-0.675000X0*%
%ADD49RoundRect,0.050800X0.800000X0.700000X-0.800000X0.700000X-0.800000X-0.700000X0.800000X-0.700000X0*%
%ADD50RoundRect,0.050800X0.950000X0.950000X-0.950000X0.950000X-0.950000X-0.950000X0.950000X-0.950000X0*%
%ADD51O,1.001600X1.901600*%
%ADD52RoundRect,0.185800X0.185000X-0.135000X0.185000X0.135000X-0.185000X0.135000X-0.185000X-0.135000X0*%
%ADD53RoundRect,0.050800X-0.450000X-0.400000X0.450000X-0.400000X0.450000X0.400000X-0.450000X0.400000X0*%
%ADD54RoundRect,0.050800X0.500000X0.500000X-0.500000X0.500000X-0.500000X-0.500000X0.500000X-0.500000X0*%
%ADD55O,1.101600X1.101600*%
%ADD56RoundRect,0.050800X-0.525000X0.700000X-0.525000X-0.700000X0.525000X-0.700000X0.525000X0.700000X0*%
%ADD57RoundRect,0.190800X-0.140000X-0.170000X0.140000X-0.170000X0.140000X0.170000X-0.140000X0.170000X0*%
%ADD58RoundRect,0.275800X0.250000X-0.225000X0.250000X0.225000X-0.250000X0.225000X-0.250000X-0.225000X0*%
%ADD59RoundRect,0.185800X-0.185000X0.135000X-0.185000X-0.135000X0.185000X-0.135000X0.185000X0.135000X0*%
%ADD60RoundRect,0.198300X-0.147500X-0.172500X0.147500X-0.172500X0.147500X0.172500X-0.147500X0.172500X0*%
%ADD61RoundRect,0.269550X-0.218750X-0.256250X0.218750X-0.256250X0.218750X0.256250X-0.218750X0.256250X0*%
%ADD62RoundRect,0.100800X-0.350000X-0.050000X0.350000X-0.050000X0.350000X0.050000X-0.350000X0.050000X0*%
%ADD63RoundRect,0.100800X-0.050000X-0.350000X0.050000X-0.350000X0.050000X0.350000X-0.050000X0.350000X0*%
%ADD64RoundRect,0.050800X-2.300000X-2.300000X2.300000X-2.300000X2.300000X2.300000X-2.300000X2.300000X0*%
%ADD65RoundRect,0.050800X0.525000X0.325000X-0.525000X0.325000X-0.525000X-0.325000X0.525000X-0.325000X0*%
%ADD66RoundRect,0.050800X-0.900000X0.500000X-0.900000X-0.500000X0.900000X-0.500000X0.900000X0.500000X0*%
%ADD67RoundRect,0.269550X0.381250X-0.218750X0.381250X0.218750X-0.381250X0.218750X-0.381250X-0.218750X0*%
%ADD68RoundRect,0.050800X0.187500X0.175000X-0.187500X0.175000X-0.187500X-0.175000X0.187500X-0.175000X0*%
%ADD69RoundRect,0.050800X-0.175000X0.187500X-0.175000X-0.187500X0.175000X-0.187500X0.175000X0.187500X0*%
%ADD70RoundRect,0.300800X0.350000X0.625000X-0.350000X0.625000X-0.350000X-0.625000X0.350000X-0.625000X0*%
%ADD71O,1.301600X1.851600*%
%ADD72RoundRect,0.200800X-0.150000X0.650000X-0.150000X-0.650000X0.150000X-0.650000X0.150000X0.650000X0*%
%ADD73RoundRect,0.050800X-0.150000X-0.550000X0.150000X-0.550000X0.150000X0.550000X-0.150000X0.550000X0*%
%ADD74RoundRect,0.050800X-1.150000X-1.550000X1.150000X-1.550000X1.150000X1.550000X-1.150000X1.550000X0*%
%ADD75RoundRect,0.200800X0.587500X0.150000X-0.587500X0.150000X-0.587500X-0.150000X0.587500X-0.150000X0*%
%ADD76RoundRect,0.200800X-0.150000X0.587500X-0.150000X-0.587500X0.150000X-0.587500X0.150000X0.587500X0*%
%ADD77RoundRect,0.200800X-0.587500X-0.150000X0.587500X-0.150000X0.587500X0.150000X-0.587500X0.150000X0*%
%ADD78RoundRect,0.050800X0.750000X-1.000000X0.750000X1.000000X-0.750000X1.000000X-0.750000X-1.000000X0*%
%ADD79RoundRect,0.050800X1.900000X-1.000000X1.900000X1.000000X-1.900000X1.000000X-1.900000X-1.000000X0*%
%ADD80RoundRect,0.300800X0.250000X0.475000X-0.250000X0.475000X-0.250000X-0.475000X0.250000X-0.475000X0*%
G04 APERTURE END LIST*
D10*
X79078571Y-67007142D02*
X80221428Y-67007142D01*
X79650000Y-67578571D02*
X79650000Y-66435714D01*
X93603571Y-65107142D02*
X94746428Y-65107142D01*
X94175000Y-65678571D02*
X94175000Y-64535714D01*
X89344571Y-95103142D02*
X90487428Y-95103142D01*
X89916000Y-95674571D02*
X89916000Y-94531714D01*
X95650857Y-75596571D02*
X95722285Y-75382285D01*
X95793714Y-75310857D01*
X95936571Y-75239428D01*
X96150857Y-75239428D01*
X96293714Y-75310857D01*
X96365142Y-75382285D01*
X96436571Y-75525142D01*
X96436571Y-76096571D01*
X94936571Y-76096571D01*
X94936571Y-75596571D01*
X95008000Y-75453714D01*
X95079428Y-75382285D01*
X95222285Y-75310857D01*
X95365142Y-75310857D01*
X95508000Y-75382285D01*
X95579428Y-75453714D01*
X95650857Y-75596571D01*
X95650857Y-76096571D01*
X96436571Y-73953714D02*
X95650857Y-73953714D01*
X95508000Y-74025142D01*
X95436571Y-74168000D01*
X95436571Y-74453714D01*
X95508000Y-74596571D01*
X96365142Y-73953714D02*
X96436571Y-74096571D01*
X96436571Y-74453714D01*
X96365142Y-74596571D01*
X96222285Y-74668000D01*
X96079428Y-74668000D01*
X95936571Y-74596571D01*
X95865142Y-74453714D01*
X95865142Y-74096571D01*
X95793714Y-73953714D01*
X95436571Y-73453714D02*
X95436571Y-72882285D01*
X94936571Y-73239428D02*
X96222285Y-73239428D01*
X96365142Y-73168000D01*
X96436571Y-73025142D01*
X96436571Y-72882285D01*
X95436571Y-72596571D02*
X95436571Y-72025142D01*
X94936571Y-72382285D02*
X96222285Y-72382285D01*
X96365142Y-72310857D01*
X96436571Y-72168000D01*
X96436571Y-72025142D01*
X84928571Y-63257142D02*
X86071428Y-63257142D01*
X85500000Y-63828571D02*
X85500000Y-62685714D01*
X81724571Y-95103142D02*
X82867428Y-95103142D01*
X82296000Y-95674571D02*
X82296000Y-94531714D01*
X87820571Y-98897142D02*
X88963428Y-98897142D01*
X88392000Y-99468571D02*
X88392000Y-98325714D01*
X69024571Y-93071142D02*
X70167428Y-93071142D01*
X69596000Y-93642571D02*
X69596000Y-92499714D01*
X78853571Y-109082142D02*
X79996428Y-109082142D01*
X79425000Y-109653571D02*
X79425000Y-108510714D01*
D11*
X84605904Y-95448380D02*
X84605904Y-94448380D01*
X84844000Y-94448380D01*
X84986857Y-94496000D01*
X85082095Y-94591238D01*
X85129714Y-94686476D01*
X85177333Y-94876952D01*
X85177333Y-95019809D01*
X85129714Y-95210285D01*
X85082095Y-95305523D01*
X84986857Y-95400761D01*
X84844000Y-95448380D01*
X84605904Y-95448380D01*
X86082095Y-94448380D02*
X85605904Y-94448380D01*
X85558285Y-94924571D01*
X85605904Y-94876952D01*
X85701142Y-94829333D01*
X85939238Y-94829333D01*
X86034476Y-94876952D01*
X86082095Y-94924571D01*
X86129714Y-95019809D01*
X86129714Y-95257904D01*
X86082095Y-95353142D01*
X86034476Y-95400761D01*
X85939238Y-95448380D01*
X85701142Y-95448380D01*
X85605904Y-95400761D01*
X85558285Y-95353142D01*
X90701904Y-97480380D02*
X90701904Y-96480380D01*
X90940000Y-96480380D01*
X91082857Y-96528000D01*
X91178095Y-96623238D01*
X91225714Y-96718476D01*
X91273333Y-96908952D01*
X91273333Y-97051809D01*
X91225714Y-97242285D01*
X91178095Y-97337523D01*
X91082857Y-97432761D01*
X90940000Y-97480380D01*
X90701904Y-97480380D01*
X92130476Y-96813714D02*
X92130476Y-97480380D01*
X91892380Y-96432761D02*
X91654285Y-97147047D01*
X92273333Y-97147047D01*
X85113904Y-98242380D02*
X85113904Y-97242380D01*
X85352000Y-97242380D01*
X85494857Y-97290000D01*
X85590095Y-97385238D01*
X85637714Y-97480476D01*
X85685333Y-97670952D01*
X85685333Y-97813809D01*
X85637714Y-98004285D01*
X85590095Y-98099523D01*
X85494857Y-98194761D01*
X85352000Y-98242380D01*
X85113904Y-98242380D01*
X86018666Y-97242380D02*
X86637714Y-97242380D01*
X86304380Y-97623333D01*
X86447238Y-97623333D01*
X86542476Y-97670952D01*
X86590095Y-97718571D01*
X86637714Y-97813809D01*
X86637714Y-98051904D01*
X86590095Y-98147142D01*
X86542476Y-98194761D01*
X86447238Y-98242380D01*
X86161523Y-98242380D01*
X86066285Y-98194761D01*
X86018666Y-98147142D01*
X71143904Y-98750380D02*
X71143904Y-97750380D01*
X71382000Y-97750380D01*
X71524857Y-97798000D01*
X71620095Y-97893238D01*
X71667714Y-97988476D01*
X71715333Y-98178952D01*
X71715333Y-98321809D01*
X71667714Y-98512285D01*
X71620095Y-98607523D01*
X71524857Y-98702761D01*
X71382000Y-98750380D01*
X71143904Y-98750380D01*
X72667714Y-98750380D02*
X72096285Y-98750380D01*
X72382000Y-98750380D02*
X72382000Y-97750380D01*
X72286761Y-97893238D01*
X72191523Y-97988476D01*
X72096285Y-98036095D01*
X79700380Y-106814857D02*
X79224190Y-107148190D01*
X79700380Y-107386285D02*
X78700380Y-107386285D01*
X78700380Y-107005333D01*
X78748000Y-106910095D01*
X78795619Y-106862476D01*
X78890857Y-106814857D01*
X79033714Y-106814857D01*
X79128952Y-106862476D01*
X79176571Y-106910095D01*
X79224190Y-107005333D01*
X79224190Y-107386285D01*
X79700380Y-105862476D02*
X79700380Y-106433904D01*
X79700380Y-106148190D02*
X78700380Y-106148190D01*
X78843238Y-106243428D01*
X78938476Y-106338666D01*
X78986095Y-106433904D01*
X79033714Y-105005333D02*
X79700380Y-105005333D01*
X78652761Y-105243428D02*
X79367047Y-105481523D01*
X79367047Y-104862476D01*
X76811142Y-78652666D02*
X76858761Y-78700285D01*
X76906380Y-78843142D01*
X76906380Y-78938380D01*
X76858761Y-79081238D01*
X76763523Y-79176476D01*
X76668285Y-79224095D01*
X76477809Y-79271714D01*
X76334952Y-79271714D01*
X76144476Y-79224095D01*
X76049238Y-79176476D01*
X75954000Y-79081238D01*
X75906380Y-78938380D01*
X75906380Y-78843142D01*
X75954000Y-78700285D01*
X76001619Y-78652666D01*
X76239714Y-77795523D02*
X76906380Y-77795523D01*
X75858761Y-78033619D02*
X76573047Y-78271714D01*
X76573047Y-77652666D01*
X84836095Y-69556380D02*
X84836095Y-70365904D01*
X84883714Y-70461142D01*
X84931333Y-70508761D01*
X85026571Y-70556380D01*
X85217047Y-70556380D01*
X85312285Y-70508761D01*
X85359904Y-70461142D01*
X85407523Y-70365904D01*
X85407523Y-69556380D01*
X85836095Y-69651619D02*
X85883714Y-69604000D01*
X85978952Y-69556380D01*
X86217047Y-69556380D01*
X86312285Y-69604000D01*
X86359904Y-69651619D01*
X86407523Y-69746857D01*
X86407523Y-69842095D01*
X86359904Y-69984952D01*
X85788476Y-70556380D01*
X86407523Y-70556380D01*
X97655142Y-74779142D02*
X97607523Y-74826761D01*
X97464666Y-74874380D01*
X97369428Y-74874380D01*
X97226571Y-74826761D01*
X97131333Y-74731523D01*
X97083714Y-74636285D01*
X97036095Y-74445809D01*
X97036095Y-74302952D01*
X97083714Y-74112476D01*
X97131333Y-74017238D01*
X97226571Y-73922000D01*
X97369428Y-73874380D01*
X97464666Y-73874380D01*
X97607523Y-73922000D01*
X97655142Y-73969619D01*
X97988476Y-73874380D02*
X98607523Y-73874380D01*
X98274190Y-74255333D01*
X98417047Y-74255333D01*
X98512285Y-74302952D01*
X98559904Y-74350571D01*
X98607523Y-74445809D01*
X98607523Y-74683904D01*
X98559904Y-74779142D01*
X98512285Y-74826761D01*
X98417047Y-74874380D01*
X98131333Y-74874380D01*
X98036095Y-74826761D01*
X97988476Y-74779142D01*
X99464666Y-74207714D02*
X99464666Y-74874380D01*
X99226571Y-73826761D02*
X98988476Y-74541047D01*
X99607523Y-74541047D01*
X104832333Y-66233333D02*
X104832333Y-66709523D01*
X104546619Y-66138095D02*
X105546619Y-66471428D01*
X104546619Y-66804761D01*
X105070428Y-67138095D02*
X105070428Y-67471428D01*
X104546619Y-67614285D02*
X104546619Y-67138095D01*
X105546619Y-67138095D01*
X105546619Y-67614285D01*
X104546619Y-68566666D02*
X104546619Y-67995238D01*
X104546619Y-68280952D02*
X105546619Y-68280952D01*
X105403761Y-68185714D01*
X105308523Y-68090476D01*
X105260904Y-67995238D01*
X87832380Y-75811904D02*
X88641904Y-75811904D01*
X88737142Y-75764285D01*
X88784761Y-75716666D01*
X88832380Y-75621428D01*
X88832380Y-75430952D01*
X88784761Y-75335714D01*
X88737142Y-75288095D01*
X88641904Y-75240476D01*
X87832380Y-75240476D01*
X88165714Y-74335714D02*
X88832380Y-74335714D01*
X87784761Y-74573809D02*
X88499047Y-74811904D01*
X88499047Y-74192857D01*
X79397142Y-79037142D02*
X79349523Y-79084761D01*
X79206666Y-79132380D01*
X79111428Y-79132380D01*
X78968571Y-79084761D01*
X78873333Y-78989523D01*
X78825714Y-78894285D01*
X78778095Y-78703809D01*
X78778095Y-78560952D01*
X78825714Y-78370476D01*
X78873333Y-78275238D01*
X78968571Y-78180000D01*
X79111428Y-78132380D01*
X79206666Y-78132380D01*
X79349523Y-78180000D01*
X79397142Y-78227619D01*
X79730476Y-78132380D02*
X80349523Y-78132380D01*
X80016190Y-78513333D01*
X80159047Y-78513333D01*
X80254285Y-78560952D01*
X80301904Y-78608571D01*
X80349523Y-78703809D01*
X80349523Y-78941904D01*
X80301904Y-79037142D01*
X80254285Y-79084761D01*
X80159047Y-79132380D01*
X79873333Y-79132380D01*
X79778095Y-79084761D01*
X79730476Y-79037142D01*
X80968571Y-78132380D02*
X81063809Y-78132380D01*
X81159047Y-78180000D01*
X81206666Y-78227619D01*
X81254285Y-78322857D01*
X81301904Y-78513333D01*
X81301904Y-78751428D01*
X81254285Y-78941904D01*
X81206666Y-79037142D01*
X81159047Y-79084761D01*
X81063809Y-79132380D01*
X80968571Y-79132380D01*
X80873333Y-79084761D01*
X80825714Y-79037142D01*
X80778095Y-78941904D01*
X80730476Y-78751428D01*
X80730476Y-78513333D01*
X80778095Y-78322857D01*
X80825714Y-78227619D01*
X80873333Y-78180000D01*
X80968571Y-78132380D01*
X84427142Y-72302857D02*
X84474761Y-72350476D01*
X84522380Y-72493333D01*
X84522380Y-72588571D01*
X84474761Y-72731428D01*
X84379523Y-72826666D01*
X84284285Y-72874285D01*
X84093809Y-72921904D01*
X83950952Y-72921904D01*
X83760476Y-72874285D01*
X83665238Y-72826666D01*
X83570000Y-72731428D01*
X83522380Y-72588571D01*
X83522380Y-72493333D01*
X83570000Y-72350476D01*
X83617619Y-72302857D01*
X83617619Y-71921904D02*
X83570000Y-71874285D01*
X83522380Y-71779047D01*
X83522380Y-71540952D01*
X83570000Y-71445714D01*
X83617619Y-71398095D01*
X83712857Y-71350476D01*
X83808095Y-71350476D01*
X83950952Y-71398095D01*
X84522380Y-71969523D01*
X84522380Y-71350476D01*
X84522380Y-70874285D02*
X84522380Y-70683809D01*
X84474761Y-70588571D01*
X84427142Y-70540952D01*
X84284285Y-70445714D01*
X84093809Y-70398095D01*
X83712857Y-70398095D01*
X83617619Y-70445714D01*
X83570000Y-70493333D01*
X83522380Y-70588571D01*
X83522380Y-70779047D01*
X83570000Y-70874285D01*
X83617619Y-70921904D01*
X83712857Y-70969523D01*
X83950952Y-70969523D01*
X84046190Y-70921904D01*
X84093809Y-70874285D01*
X84141428Y-70779047D01*
X84141428Y-70588571D01*
X84093809Y-70493333D01*
X84046190Y-70445714D01*
X83950952Y-70398095D01*
X80067142Y-72997142D02*
X80019523Y-73044761D01*
X79876666Y-73092380D01*
X79781428Y-73092380D01*
X79638571Y-73044761D01*
X79543333Y-72949523D01*
X79495714Y-72854285D01*
X79448095Y-72663809D01*
X79448095Y-72520952D01*
X79495714Y-72330476D01*
X79543333Y-72235238D01*
X79638571Y-72140000D01*
X79781428Y-72092380D01*
X79876666Y-72092380D01*
X80019523Y-72140000D01*
X80067142Y-72187619D01*
X80448095Y-72187619D02*
X80495714Y-72140000D01*
X80590952Y-72092380D01*
X80829047Y-72092380D01*
X80924285Y-72140000D01*
X80971904Y-72187619D01*
X81019523Y-72282857D01*
X81019523Y-72378095D01*
X80971904Y-72520952D01*
X80400476Y-73092380D01*
X81019523Y-73092380D01*
X81590952Y-72520952D02*
X81495714Y-72473333D01*
X81448095Y-72425714D01*
X81400476Y-72330476D01*
X81400476Y-72282857D01*
X81448095Y-72187619D01*
X81495714Y-72140000D01*
X81590952Y-72092380D01*
X81781428Y-72092380D01*
X81876666Y-72140000D01*
X81924285Y-72187619D01*
X81971904Y-72282857D01*
X81971904Y-72330476D01*
X81924285Y-72425714D01*
X81876666Y-72473333D01*
X81781428Y-72520952D01*
X81590952Y-72520952D01*
X81495714Y-72568571D01*
X81448095Y-72616190D01*
X81400476Y-72711428D01*
X81400476Y-72901904D01*
X81448095Y-72997142D01*
X81495714Y-73044761D01*
X81590952Y-73092380D01*
X81781428Y-73092380D01*
X81876666Y-73044761D01*
X81924285Y-72997142D01*
X81971904Y-72901904D01*
X81971904Y-72711428D01*
X81924285Y-72616190D01*
X81876666Y-72568571D01*
X81781428Y-72520952D01*
X101723333Y-78492380D02*
X101390000Y-78016190D01*
X101151904Y-78492380D02*
X101151904Y-77492380D01*
X101532857Y-77492380D01*
X101628095Y-77540000D01*
X101675714Y-77587619D01*
X101723333Y-77682857D01*
X101723333Y-77825714D01*
X101675714Y-77920952D01*
X101628095Y-77968571D01*
X101532857Y-78016190D01*
X101151904Y-78016190D01*
X102580476Y-77825714D02*
X102580476Y-78492380D01*
X102342380Y-77444761D02*
X102104285Y-78159047D01*
X102723333Y-78159047D01*
X96483333Y-98107142D02*
X96435714Y-98154761D01*
X96292857Y-98202380D01*
X96197619Y-98202380D01*
X96054761Y-98154761D01*
X95959523Y-98059523D01*
X95911904Y-97964285D01*
X95864285Y-97773809D01*
X95864285Y-97630952D01*
X95911904Y-97440476D01*
X95959523Y-97345238D01*
X96054761Y-97250000D01*
X96197619Y-97202380D01*
X96292857Y-97202380D01*
X96435714Y-97250000D01*
X96483333Y-97297619D01*
X96816666Y-97202380D02*
X97483333Y-97202380D01*
X97054761Y-98202380D01*
X84382142Y-89782142D02*
X84334523Y-89829761D01*
X84191666Y-89877380D01*
X84096428Y-89877380D01*
X83953571Y-89829761D01*
X83858333Y-89734523D01*
X83810714Y-89639285D01*
X83763095Y-89448809D01*
X83763095Y-89305952D01*
X83810714Y-89115476D01*
X83858333Y-89020238D01*
X83953571Y-88925000D01*
X84096428Y-88877380D01*
X84191666Y-88877380D01*
X84334523Y-88925000D01*
X84382142Y-88972619D01*
X84715476Y-88877380D02*
X85334523Y-88877380D01*
X85001190Y-89258333D01*
X85144047Y-89258333D01*
X85239285Y-89305952D01*
X85286904Y-89353571D01*
X85334523Y-89448809D01*
X85334523Y-89686904D01*
X85286904Y-89782142D01*
X85239285Y-89829761D01*
X85144047Y-89877380D01*
X84858333Y-89877380D01*
X84763095Y-89829761D01*
X84715476Y-89782142D01*
X86286904Y-89877380D02*
X85715476Y-89877380D01*
X86001190Y-89877380D02*
X86001190Y-88877380D01*
X85905952Y-89020238D01*
X85810714Y-89115476D01*
X85715476Y-89163095D01*
X85157142Y-92792857D02*
X85204761Y-92840476D01*
X85252380Y-92983333D01*
X85252380Y-93078571D01*
X85204761Y-93221428D01*
X85109523Y-93316666D01*
X85014285Y-93364285D01*
X84823809Y-93411904D01*
X84680952Y-93411904D01*
X84490476Y-93364285D01*
X84395238Y-93316666D01*
X84300000Y-93221428D01*
X84252380Y-93078571D01*
X84252380Y-92983333D01*
X84300000Y-92840476D01*
X84347619Y-92792857D01*
X84252380Y-92459523D02*
X84252380Y-91840476D01*
X84633333Y-92173809D01*
X84633333Y-92030952D01*
X84680952Y-91935714D01*
X84728571Y-91888095D01*
X84823809Y-91840476D01*
X85061904Y-91840476D01*
X85157142Y-91888095D01*
X85204761Y-91935714D01*
X85252380Y-92030952D01*
X85252380Y-92316666D01*
X85204761Y-92411904D01*
X85157142Y-92459523D01*
X84347619Y-91459523D02*
X84300000Y-91411904D01*
X84252380Y-91316666D01*
X84252380Y-91078571D01*
X84300000Y-90983333D01*
X84347619Y-90935714D01*
X84442857Y-90888095D01*
X84538095Y-90888095D01*
X84680952Y-90935714D01*
X85252380Y-91507142D01*
X85252380Y-90888095D01*
X101916666Y-83152380D02*
X101916666Y-83866666D01*
X101869047Y-84009523D01*
X101773809Y-84104761D01*
X101630952Y-84152380D01*
X101535714Y-84152380D01*
X102297619Y-83152380D02*
X102916666Y-83152380D01*
X102583333Y-83533333D01*
X102726190Y-83533333D01*
X102821428Y-83580952D01*
X102869047Y-83628571D01*
X102916666Y-83723809D01*
X102916666Y-83961904D01*
X102869047Y-84057142D01*
X102821428Y-84104761D01*
X102726190Y-84152380D01*
X102440476Y-84152380D01*
X102345238Y-84104761D01*
X102297619Y-84057142D01*
X93338095Y-68752380D02*
X93909523Y-68752380D01*
X93623809Y-69752380D02*
X93623809Y-68752380D01*
X94242857Y-69752380D02*
X94242857Y-68752380D01*
X94623809Y-68752380D01*
X94719047Y-68800000D01*
X94766666Y-68847619D01*
X94814285Y-68942857D01*
X94814285Y-69085714D01*
X94766666Y-69180952D01*
X94719047Y-69228571D01*
X94623809Y-69276190D01*
X94242857Y-69276190D01*
X95766666Y-69752380D02*
X95195238Y-69752380D01*
X95480952Y-69752380D02*
X95480952Y-68752380D01*
X95385714Y-68895238D01*
X95290476Y-68990476D01*
X95195238Y-69038095D01*
X103474761Y-82851904D02*
X103522380Y-82709047D01*
X103522380Y-82470952D01*
X103474761Y-82375714D01*
X103427142Y-82328095D01*
X103331904Y-82280476D01*
X103236666Y-82280476D01*
X103141428Y-82328095D01*
X103093809Y-82375714D01*
X103046190Y-82470952D01*
X102998571Y-82661428D01*
X102950952Y-82756666D01*
X102903333Y-82804285D01*
X102808095Y-82851904D01*
X102712857Y-82851904D01*
X102617619Y-82804285D01*
X102570000Y-82756666D01*
X102522380Y-82661428D01*
X102522380Y-82423333D01*
X102570000Y-82280476D01*
X102855714Y-81423333D02*
X103522380Y-81423333D01*
X102474761Y-81661428D02*
X103189047Y-81899523D01*
X103189047Y-81280476D01*
X86507142Y-103542380D02*
X86173809Y-103066190D01*
X85935714Y-103542380D02*
X85935714Y-102542380D01*
X86316666Y-102542380D01*
X86411904Y-102590000D01*
X86459523Y-102637619D01*
X86507142Y-102732857D01*
X86507142Y-102875714D01*
X86459523Y-102970952D01*
X86411904Y-103018571D01*
X86316666Y-103066190D01*
X85935714Y-103066190D01*
X87459523Y-103542380D02*
X86888095Y-103542380D01*
X87173809Y-103542380D02*
X87173809Y-102542380D01*
X87078571Y-102685238D01*
X86983333Y-102780476D01*
X86888095Y-102828095D01*
X87792857Y-102542380D02*
X88459523Y-102542380D01*
X88030952Y-103542380D01*
X73988095Y-65002380D02*
X74559523Y-65002380D01*
X74273809Y-66002380D02*
X74273809Y-65002380D01*
X74892857Y-66002380D02*
X74892857Y-65002380D01*
X75273809Y-65002380D01*
X75369047Y-65050000D01*
X75416666Y-65097619D01*
X75464285Y-65192857D01*
X75464285Y-65335714D01*
X75416666Y-65430952D01*
X75369047Y-65478571D01*
X75273809Y-65526190D01*
X74892857Y-65526190D01*
X76321428Y-65335714D02*
X76321428Y-66002380D01*
X76083333Y-64954761D02*
X75845238Y-65669047D01*
X76464285Y-65669047D01*
X86086904Y-62957380D02*
X86086904Y-61957380D01*
X86325000Y-61957380D01*
X86467857Y-62005000D01*
X86563095Y-62100238D01*
X86610714Y-62195476D01*
X86658333Y-62385952D01*
X86658333Y-62528809D01*
X86610714Y-62719285D01*
X86563095Y-62814523D01*
X86467857Y-62909761D01*
X86325000Y-62957380D01*
X86086904Y-62957380D01*
X87039285Y-62052619D02*
X87086904Y-62005000D01*
X87182142Y-61957380D01*
X87420238Y-61957380D01*
X87515476Y-62005000D01*
X87563095Y-62052619D01*
X87610714Y-62147857D01*
X87610714Y-62243095D01*
X87563095Y-62385952D01*
X86991666Y-62957380D01*
X87610714Y-62957380D01*
X88952380Y-95892857D02*
X88476190Y-96226190D01*
X88952380Y-96464285D02*
X87952380Y-96464285D01*
X87952380Y-96083333D01*
X88000000Y-95988095D01*
X88047619Y-95940476D01*
X88142857Y-95892857D01*
X88285714Y-95892857D01*
X88380952Y-95940476D01*
X88428571Y-95988095D01*
X88476190Y-96083333D01*
X88476190Y-96464285D01*
X88952380Y-94940476D02*
X88952380Y-95511904D01*
X88952380Y-95226190D02*
X87952380Y-95226190D01*
X88095238Y-95321428D01*
X88190476Y-95416666D01*
X88238095Y-95511904D01*
X88380952Y-94369047D02*
X88333333Y-94464285D01*
X88285714Y-94511904D01*
X88190476Y-94559523D01*
X88142857Y-94559523D01*
X88047619Y-94511904D01*
X88000000Y-94464285D01*
X87952380Y-94369047D01*
X87952380Y-94178571D01*
X88000000Y-94083333D01*
X88047619Y-94035714D01*
X88142857Y-93988095D01*
X88190476Y-93988095D01*
X88285714Y-94035714D01*
X88333333Y-94083333D01*
X88380952Y-94178571D01*
X88380952Y-94369047D01*
X88428571Y-94464285D01*
X88476190Y-94511904D01*
X88571428Y-94559523D01*
X88761904Y-94559523D01*
X88857142Y-94511904D01*
X88904761Y-94464285D01*
X88952380Y-94369047D01*
X88952380Y-94178571D01*
X88904761Y-94083333D01*
X88857142Y-94035714D01*
X88761904Y-93988095D01*
X88571428Y-93988095D01*
X88476190Y-94035714D01*
X88428571Y-94083333D01*
X88380952Y-94178571D01*
X80993333Y-103962380D02*
X80660000Y-103486190D01*
X80421904Y-103962380D02*
X80421904Y-102962380D01*
X80802857Y-102962380D01*
X80898095Y-103010000D01*
X80945714Y-103057619D01*
X80993333Y-103152857D01*
X80993333Y-103295714D01*
X80945714Y-103390952D01*
X80898095Y-103438571D01*
X80802857Y-103486190D01*
X80421904Y-103486190D01*
X81850476Y-102962380D02*
X81660000Y-102962380D01*
X81564761Y-103010000D01*
X81517142Y-103057619D01*
X81421904Y-103200476D01*
X81374285Y-103390952D01*
X81374285Y-103771904D01*
X81421904Y-103867142D01*
X81469523Y-103914761D01*
X81564761Y-103962380D01*
X81755238Y-103962380D01*
X81850476Y-103914761D01*
X81898095Y-103867142D01*
X81945714Y-103771904D01*
X81945714Y-103533809D01*
X81898095Y-103438571D01*
X81850476Y-103390952D01*
X81755238Y-103343333D01*
X81564761Y-103343333D01*
X81469523Y-103390952D01*
X81421904Y-103438571D01*
X81374285Y-103533809D01*
X73857142Y-82357142D02*
X73809523Y-82404761D01*
X73666666Y-82452380D01*
X73571428Y-82452380D01*
X73428571Y-82404761D01*
X73333333Y-82309523D01*
X73285714Y-82214285D01*
X73238095Y-82023809D01*
X73238095Y-81880952D01*
X73285714Y-81690476D01*
X73333333Y-81595238D01*
X73428571Y-81500000D01*
X73571428Y-81452380D01*
X73666666Y-81452380D01*
X73809523Y-81500000D01*
X73857142Y-81547619D01*
X74238095Y-81547619D02*
X74285714Y-81500000D01*
X74380952Y-81452380D01*
X74619047Y-81452380D01*
X74714285Y-81500000D01*
X74761904Y-81547619D01*
X74809523Y-81642857D01*
X74809523Y-81738095D01*
X74761904Y-81880952D01*
X74190476Y-82452380D01*
X74809523Y-82452380D01*
X75190476Y-81547619D02*
X75238095Y-81500000D01*
X75333333Y-81452380D01*
X75571428Y-81452380D01*
X75666666Y-81500000D01*
X75714285Y-81547619D01*
X75761904Y-81642857D01*
X75761904Y-81738095D01*
X75714285Y-81880952D01*
X75142857Y-82452380D01*
X75761904Y-82452380D01*
X75104666Y-60192380D02*
X75104666Y-60906666D01*
X75057047Y-61049523D01*
X74961809Y-61144761D01*
X74818952Y-61192380D01*
X74723714Y-61192380D01*
X75533238Y-60287619D02*
X75580857Y-60240000D01*
X75676095Y-60192380D01*
X75914190Y-60192380D01*
X76009428Y-60240000D01*
X76057047Y-60287619D01*
X76104666Y-60382857D01*
X76104666Y-60478095D01*
X76057047Y-60620952D01*
X75485619Y-61192380D01*
X76104666Y-61192380D01*
X88852380Y-66842857D02*
X88376190Y-67176190D01*
X88852380Y-67414285D02*
X87852380Y-67414285D01*
X87852380Y-67033333D01*
X87900000Y-66938095D01*
X87947619Y-66890476D01*
X88042857Y-66842857D01*
X88185714Y-66842857D01*
X88280952Y-66890476D01*
X88328571Y-66938095D01*
X88376190Y-67033333D01*
X88376190Y-67414285D01*
X88852380Y-65890476D02*
X88852380Y-66461904D01*
X88852380Y-66176190D02*
X87852380Y-66176190D01*
X87995238Y-66271428D01*
X88090476Y-66366666D01*
X88138095Y-66461904D01*
X87947619Y-65509523D02*
X87900000Y-65461904D01*
X87852380Y-65366666D01*
X87852380Y-65128571D01*
X87900000Y-65033333D01*
X87947619Y-64985714D01*
X88042857Y-64938095D01*
X88138095Y-64938095D01*
X88280952Y-64985714D01*
X88852380Y-65557142D01*
X88852380Y-64938095D01*
X89851190Y-84126190D02*
X90327380Y-84126190D01*
X89327380Y-84459523D02*
X89851190Y-84126190D01*
X89327380Y-83792857D01*
X90327380Y-82935714D02*
X90327380Y-83507142D01*
X90327380Y-83221428D02*
X89327380Y-83221428D01*
X89470238Y-83316666D01*
X89565476Y-83411904D01*
X89613095Y-83507142D01*
X94012380Y-92096666D02*
X93536190Y-92430000D01*
X94012380Y-92668095D02*
X93012380Y-92668095D01*
X93012380Y-92287142D01*
X93060000Y-92191904D01*
X93107619Y-92144285D01*
X93202857Y-92096666D01*
X93345714Y-92096666D01*
X93440952Y-92144285D01*
X93488571Y-92191904D01*
X93536190Y-92287142D01*
X93536190Y-92668095D01*
X93440952Y-91525238D02*
X93393333Y-91620476D01*
X93345714Y-91668095D01*
X93250476Y-91715714D01*
X93202857Y-91715714D01*
X93107619Y-91668095D01*
X93060000Y-91620476D01*
X93012380Y-91525238D01*
X93012380Y-91334761D01*
X93060000Y-91239523D01*
X93107619Y-91191904D01*
X93202857Y-91144285D01*
X93250476Y-91144285D01*
X93345714Y-91191904D01*
X93393333Y-91239523D01*
X93440952Y-91334761D01*
X93440952Y-91525238D01*
X93488571Y-91620476D01*
X93536190Y-91668095D01*
X93631428Y-91715714D01*
X93821904Y-91715714D01*
X93917142Y-91668095D01*
X93964761Y-91620476D01*
X94012380Y-91525238D01*
X94012380Y-91334761D01*
X93964761Y-91239523D01*
X93917142Y-91191904D01*
X93821904Y-91144285D01*
X93631428Y-91144285D01*
X93536190Y-91191904D01*
X93488571Y-91239523D01*
X93440952Y-91334761D01*
X72652380Y-81461904D02*
X72652380Y-80890476D01*
X73652380Y-81176190D02*
X72652380Y-81176190D01*
X73652380Y-80557142D02*
X72652380Y-80557142D01*
X72652380Y-80176190D01*
X72700000Y-80080952D01*
X72747619Y-80033333D01*
X72842857Y-79985714D01*
X72985714Y-79985714D01*
X73080952Y-80033333D01*
X73128571Y-80080952D01*
X73176190Y-80176190D01*
X73176190Y-80557142D01*
X72652380Y-79652380D02*
X72652380Y-79033333D01*
X73033333Y-79366666D01*
X73033333Y-79223809D01*
X73080952Y-79128571D01*
X73128571Y-79080952D01*
X73223809Y-79033333D01*
X73461904Y-79033333D01*
X73557142Y-79080952D01*
X73604761Y-79128571D01*
X73652380Y-79223809D01*
X73652380Y-79509523D01*
X73604761Y-79604761D01*
X73557142Y-79652380D01*
X89860380Y-73540857D02*
X89384190Y-73874190D01*
X89860380Y-74112285D02*
X88860380Y-74112285D01*
X88860380Y-73731333D01*
X88908000Y-73636095D01*
X88955619Y-73588476D01*
X89050857Y-73540857D01*
X89193714Y-73540857D01*
X89288952Y-73588476D01*
X89336571Y-73636095D01*
X89384190Y-73731333D01*
X89384190Y-74112285D01*
X89860380Y-72588476D02*
X89860380Y-73159904D01*
X89860380Y-72874190D02*
X88860380Y-72874190D01*
X89003238Y-72969428D01*
X89098476Y-73064666D01*
X89146095Y-73159904D01*
X88860380Y-72255142D02*
X88860380Y-71636095D01*
X89241333Y-71969428D01*
X89241333Y-71826571D01*
X89288952Y-71731333D01*
X89336571Y-71683714D01*
X89431809Y-71636095D01*
X89669904Y-71636095D01*
X89765142Y-71683714D01*
X89812761Y-71731333D01*
X89860380Y-71826571D01*
X89860380Y-72112285D01*
X89812761Y-72207523D01*
X89765142Y-72255142D01*
X73040476Y-98952380D02*
X73040476Y-97952380D01*
X73373809Y-98666666D01*
X73707142Y-97952380D01*
X73707142Y-98952380D01*
X74707142Y-98952380D02*
X74135714Y-98952380D01*
X74421428Y-98952380D02*
X74421428Y-97952380D01*
X74326190Y-98095238D01*
X74230952Y-98190476D01*
X74135714Y-98238095D01*
X76798142Y-80875142D02*
X76750523Y-80922761D01*
X76607666Y-80970380D01*
X76512428Y-80970380D01*
X76369571Y-80922761D01*
X76274333Y-80827523D01*
X76226714Y-80732285D01*
X76179095Y-80541809D01*
X76179095Y-80398952D01*
X76226714Y-80208476D01*
X76274333Y-80113238D01*
X76369571Y-80018000D01*
X76512428Y-79970380D01*
X76607666Y-79970380D01*
X76750523Y-80018000D01*
X76798142Y-80065619D01*
X77750523Y-80970380D02*
X77179095Y-80970380D01*
X77464809Y-80970380D02*
X77464809Y-79970380D01*
X77369571Y-80113238D01*
X77274333Y-80208476D01*
X77179095Y-80256095D01*
X78083857Y-79970380D02*
X78750523Y-79970380D01*
X78321952Y-80970380D01*
X73229761Y-100711904D02*
X73277380Y-100569047D01*
X73277380Y-100330952D01*
X73229761Y-100235714D01*
X73182142Y-100188095D01*
X73086904Y-100140476D01*
X72991666Y-100140476D01*
X72896428Y-100188095D01*
X72848809Y-100235714D01*
X72801190Y-100330952D01*
X72753571Y-100521428D01*
X72705952Y-100616666D01*
X72658333Y-100664285D01*
X72563095Y-100711904D01*
X72467857Y-100711904D01*
X72372619Y-100664285D01*
X72325000Y-100616666D01*
X72277380Y-100521428D01*
X72277380Y-100283333D01*
X72325000Y-100140476D01*
X72372619Y-99759523D02*
X72325000Y-99711904D01*
X72277380Y-99616666D01*
X72277380Y-99378571D01*
X72325000Y-99283333D01*
X72372619Y-99235714D01*
X72467857Y-99188095D01*
X72563095Y-99188095D01*
X72705952Y-99235714D01*
X73277380Y-99807142D01*
X73277380Y-99188095D01*
X77611904Y-73952380D02*
X77611904Y-72952380D01*
X77850000Y-72952380D01*
X77992857Y-73000000D01*
X78088095Y-73095238D01*
X78135714Y-73190476D01*
X78183333Y-73380952D01*
X78183333Y-73523809D01*
X78135714Y-73714285D01*
X78088095Y-73809523D01*
X77992857Y-73904761D01*
X77850000Y-73952380D01*
X77611904Y-73952380D01*
X78516666Y-72952380D02*
X79183333Y-72952380D01*
X78754761Y-73952380D01*
X74807142Y-94182142D02*
X74759523Y-94229761D01*
X74616666Y-94277380D01*
X74521428Y-94277380D01*
X74378571Y-94229761D01*
X74283333Y-94134523D01*
X74235714Y-94039285D01*
X74188095Y-93848809D01*
X74188095Y-93705952D01*
X74235714Y-93515476D01*
X74283333Y-93420238D01*
X74378571Y-93325000D01*
X74521428Y-93277380D01*
X74616666Y-93277380D01*
X74759523Y-93325000D01*
X74807142Y-93372619D01*
X75188095Y-93372619D02*
X75235714Y-93325000D01*
X75330952Y-93277380D01*
X75569047Y-93277380D01*
X75664285Y-93325000D01*
X75711904Y-93372619D01*
X75759523Y-93467857D01*
X75759523Y-93563095D01*
X75711904Y-93705952D01*
X75140476Y-94277380D01*
X75759523Y-94277380D01*
X76378571Y-93277380D02*
X76473809Y-93277380D01*
X76569047Y-93325000D01*
X76616666Y-93372619D01*
X76664285Y-93467857D01*
X76711904Y-93658333D01*
X76711904Y-93896428D01*
X76664285Y-94086904D01*
X76616666Y-94182142D01*
X76569047Y-94229761D01*
X76473809Y-94277380D01*
X76378571Y-94277380D01*
X76283333Y-94229761D01*
X76235714Y-94182142D01*
X76188095Y-94086904D01*
X76140476Y-93896428D01*
X76140476Y-93658333D01*
X76188095Y-93467857D01*
X76235714Y-93372619D01*
X76283333Y-93325000D01*
X76378571Y-93277380D01*
X84363333Y-103457142D02*
X84315714Y-103504761D01*
X84172857Y-103552380D01*
X84077619Y-103552380D01*
X83934761Y-103504761D01*
X83839523Y-103409523D01*
X83791904Y-103314285D01*
X83744285Y-103123809D01*
X83744285Y-102980952D01*
X83791904Y-102790476D01*
X83839523Y-102695238D01*
X83934761Y-102600000D01*
X84077619Y-102552380D01*
X84172857Y-102552380D01*
X84315714Y-102600000D01*
X84363333Y-102647619D01*
X85220476Y-102552380D02*
X85030000Y-102552380D01*
X84934761Y-102600000D01*
X84887142Y-102647619D01*
X84791904Y-102790476D01*
X84744285Y-102980952D01*
X84744285Y-103361904D01*
X84791904Y-103457142D01*
X84839523Y-103504761D01*
X84934761Y-103552380D01*
X85125238Y-103552380D01*
X85220476Y-103504761D01*
X85268095Y-103457142D01*
X85315714Y-103361904D01*
X85315714Y-103123809D01*
X85268095Y-103028571D01*
X85220476Y-102980952D01*
X85125238Y-102933333D01*
X84934761Y-102933333D01*
X84839523Y-102980952D01*
X84791904Y-103028571D01*
X84744285Y-103123809D01*
X93397142Y-102587142D02*
X93349523Y-102634761D01*
X93206666Y-102682380D01*
X93111428Y-102682380D01*
X92968571Y-102634761D01*
X92873333Y-102539523D01*
X92825714Y-102444285D01*
X92778095Y-102253809D01*
X92778095Y-102110952D01*
X92825714Y-101920476D01*
X92873333Y-101825238D01*
X92968571Y-101730000D01*
X93111428Y-101682380D01*
X93206666Y-101682380D01*
X93349523Y-101730000D01*
X93397142Y-101777619D01*
X94349523Y-102682380D02*
X93778095Y-102682380D01*
X94063809Y-102682380D02*
X94063809Y-101682380D01*
X93968571Y-101825238D01*
X93873333Y-101920476D01*
X93778095Y-101968095D01*
X94682857Y-101682380D02*
X95301904Y-101682380D01*
X94968571Y-102063333D01*
X95111428Y-102063333D01*
X95206666Y-102110952D01*
X95254285Y-102158571D01*
X95301904Y-102253809D01*
X95301904Y-102491904D01*
X95254285Y-102587142D01*
X95206666Y-102634761D01*
X95111428Y-102682380D01*
X94825714Y-102682380D01*
X94730476Y-102634761D01*
X94682857Y-102587142D01*
X69952380Y-84716666D02*
X69476190Y-85050000D01*
X69952380Y-85288095D02*
X68952380Y-85288095D01*
X68952380Y-84907142D01*
X69000000Y-84811904D01*
X69047619Y-84764285D01*
X69142857Y-84716666D01*
X69285714Y-84716666D01*
X69380952Y-84764285D01*
X69428571Y-84811904D01*
X69476190Y-84907142D01*
X69476190Y-85288095D01*
X68952380Y-84383333D02*
X68952380Y-83764285D01*
X69333333Y-84097619D01*
X69333333Y-83954761D01*
X69380952Y-83859523D01*
X69428571Y-83811904D01*
X69523809Y-83764285D01*
X69761904Y-83764285D01*
X69857142Y-83811904D01*
X69904761Y-83859523D01*
X69952380Y-83954761D01*
X69952380Y-84240476D01*
X69904761Y-84335714D01*
X69857142Y-84383333D01*
X102112380Y-81622857D02*
X101636190Y-81956190D01*
X102112380Y-82194285D02*
X101112380Y-82194285D01*
X101112380Y-81813333D01*
X101160000Y-81718095D01*
X101207619Y-81670476D01*
X101302857Y-81622857D01*
X101445714Y-81622857D01*
X101540952Y-81670476D01*
X101588571Y-81718095D01*
X101636190Y-81813333D01*
X101636190Y-82194285D01*
X102112380Y-80670476D02*
X102112380Y-81241904D01*
X102112380Y-80956190D02*
X101112380Y-80956190D01*
X101255238Y-81051428D01*
X101350476Y-81146666D01*
X101398095Y-81241904D01*
X101112380Y-79765714D02*
X101112380Y-80241904D01*
X101588571Y-80289523D01*
X101540952Y-80241904D01*
X101493333Y-80146666D01*
X101493333Y-79908571D01*
X101540952Y-79813333D01*
X101588571Y-79765714D01*
X101683809Y-79718095D01*
X101921904Y-79718095D01*
X102017142Y-79765714D01*
X102064761Y-79813333D01*
X102112380Y-79908571D01*
X102112380Y-80146666D01*
X102064761Y-80241904D01*
X102017142Y-80289523D01*
X88590380Y-88304666D02*
X88590380Y-88780857D01*
X87590380Y-88780857D01*
X87685619Y-88018952D02*
X87638000Y-87971333D01*
X87590380Y-87876095D01*
X87590380Y-87638000D01*
X87638000Y-87542761D01*
X87685619Y-87495142D01*
X87780857Y-87447523D01*
X87876095Y-87447523D01*
X88018952Y-87495142D01*
X88590380Y-88066571D01*
X88590380Y-87447523D01*
X75572380Y-109388095D02*
X74572380Y-109388095D01*
X74572380Y-109150000D01*
X74620000Y-109007142D01*
X74715238Y-108911904D01*
X74810476Y-108864285D01*
X75000952Y-108816666D01*
X75143809Y-108816666D01*
X75334285Y-108864285D01*
X75429523Y-108911904D01*
X75524761Y-109007142D01*
X75572380Y-109150000D01*
X75572380Y-109388095D01*
X74572380Y-107959523D02*
X74572380Y-108150000D01*
X74620000Y-108245238D01*
X74667619Y-108292857D01*
X74810476Y-108388095D01*
X75000952Y-108435714D01*
X75381904Y-108435714D01*
X75477142Y-108388095D01*
X75524761Y-108340476D01*
X75572380Y-108245238D01*
X75572380Y-108054761D01*
X75524761Y-107959523D01*
X75477142Y-107911904D01*
X75381904Y-107864285D01*
X75143809Y-107864285D01*
X75048571Y-107911904D01*
X75000952Y-107959523D01*
X74953333Y-108054761D01*
X74953333Y-108245238D01*
X75000952Y-108340476D01*
X75048571Y-108388095D01*
X75143809Y-108435714D01*
X79238095Y-91952380D02*
X79238095Y-92761904D01*
X79285714Y-92857142D01*
X79333333Y-92904761D01*
X79428571Y-92952380D01*
X79619047Y-92952380D01*
X79714285Y-92904761D01*
X79761904Y-92857142D01*
X79809523Y-92761904D01*
X79809523Y-91952380D01*
X80809523Y-92952380D02*
X80238095Y-92952380D01*
X80523809Y-92952380D02*
X80523809Y-91952380D01*
X80428571Y-92095238D01*
X80333333Y-92190476D01*
X80238095Y-92238095D01*
X83882142Y-86967857D02*
X83929761Y-87015476D01*
X83977380Y-87158333D01*
X83977380Y-87253571D01*
X83929761Y-87396428D01*
X83834523Y-87491666D01*
X83739285Y-87539285D01*
X83548809Y-87586904D01*
X83405952Y-87586904D01*
X83215476Y-87539285D01*
X83120238Y-87491666D01*
X83025000Y-87396428D01*
X82977380Y-87253571D01*
X82977380Y-87158333D01*
X83025000Y-87015476D01*
X83072619Y-86967857D01*
X83977380Y-86015476D02*
X83977380Y-86586904D01*
X83977380Y-86301190D02*
X82977380Y-86301190D01*
X83120238Y-86396428D01*
X83215476Y-86491666D01*
X83263095Y-86586904D01*
X83405952Y-85444047D02*
X83358333Y-85539285D01*
X83310714Y-85586904D01*
X83215476Y-85634523D01*
X83167857Y-85634523D01*
X83072619Y-85586904D01*
X83025000Y-85539285D01*
X82977380Y-85444047D01*
X82977380Y-85253571D01*
X83025000Y-85158333D01*
X83072619Y-85110714D01*
X83167857Y-85063095D01*
X83215476Y-85063095D01*
X83310714Y-85110714D01*
X83358333Y-85158333D01*
X83405952Y-85253571D01*
X83405952Y-85444047D01*
X83453571Y-85539285D01*
X83501190Y-85586904D01*
X83596428Y-85634523D01*
X83786904Y-85634523D01*
X83882142Y-85586904D01*
X83929761Y-85539285D01*
X83977380Y-85444047D01*
X83977380Y-85253571D01*
X83929761Y-85158333D01*
X83882142Y-85110714D01*
X83786904Y-85063095D01*
X83596428Y-85063095D01*
X83501190Y-85110714D01*
X83453571Y-85158333D01*
X83405952Y-85253571D01*
X95506666Y-78364761D02*
X95649523Y-78412380D01*
X95887619Y-78412380D01*
X95982857Y-78364761D01*
X96030476Y-78317142D01*
X96078095Y-78221904D01*
X96078095Y-78126666D01*
X96030476Y-78031428D01*
X95982857Y-77983809D01*
X95887619Y-77936190D01*
X95697142Y-77888571D01*
X95601904Y-77840952D01*
X95554285Y-77793333D01*
X95506666Y-77698095D01*
X95506666Y-77602857D01*
X95554285Y-77507619D01*
X95601904Y-77460000D01*
X95697142Y-77412380D01*
X95935238Y-77412380D01*
X96078095Y-77460000D01*
X96411428Y-77412380D02*
X96649523Y-78412380D01*
X96840000Y-77698095D01*
X97030476Y-78412380D01*
X97268571Y-77412380D01*
X98173333Y-78412380D02*
X97601904Y-78412380D01*
X97887619Y-78412380D02*
X97887619Y-77412380D01*
X97792380Y-77555238D01*
X97697142Y-77650476D01*
X97601904Y-77698095D01*
X69176190Y-86776190D02*
X69652380Y-86776190D01*
X68652380Y-87109523D02*
X69176190Y-86776190D01*
X68652380Y-86442857D01*
X68747619Y-86157142D02*
X68700000Y-86109523D01*
X68652380Y-86014285D01*
X68652380Y-85776190D01*
X68700000Y-85680952D01*
X68747619Y-85633333D01*
X68842857Y-85585714D01*
X68938095Y-85585714D01*
X69080952Y-85633333D01*
X69652380Y-86204761D01*
X69652380Y-85585714D01*
X80032380Y-98396666D02*
X80032380Y-98872857D01*
X79032380Y-98872857D01*
X80032380Y-97539523D02*
X80032380Y-98110952D01*
X80032380Y-97825238D02*
X79032380Y-97825238D01*
X79175238Y-97920476D01*
X79270476Y-98015714D01*
X79318095Y-98110952D01*
X73302380Y-102316666D02*
X72826190Y-102650000D01*
X73302380Y-102888095D02*
X72302380Y-102888095D01*
X72302380Y-102507142D01*
X72350000Y-102411904D01*
X72397619Y-102364285D01*
X72492857Y-102316666D01*
X72635714Y-102316666D01*
X72730952Y-102364285D01*
X72778571Y-102411904D01*
X72826190Y-102507142D01*
X72826190Y-102888095D01*
X73302380Y-101364285D02*
X73302380Y-101935714D01*
X73302380Y-101650000D02*
X72302380Y-101650000D01*
X72445238Y-101745238D01*
X72540476Y-101840476D01*
X72588095Y-101935714D01*
X80633333Y-94157142D02*
X80585714Y-94204761D01*
X80442857Y-94252380D01*
X80347619Y-94252380D01*
X80204761Y-94204761D01*
X80109523Y-94109523D01*
X80061904Y-94014285D01*
X80014285Y-93823809D01*
X80014285Y-93680952D01*
X80061904Y-93490476D01*
X80109523Y-93395238D01*
X80204761Y-93300000D01*
X80347619Y-93252380D01*
X80442857Y-93252380D01*
X80585714Y-93300000D01*
X80633333Y-93347619D01*
X81204761Y-93680952D02*
X81109523Y-93633333D01*
X81061904Y-93585714D01*
X81014285Y-93490476D01*
X81014285Y-93442857D01*
X81061904Y-93347619D01*
X81109523Y-93300000D01*
X81204761Y-93252380D01*
X81395238Y-93252380D01*
X81490476Y-93300000D01*
X81538095Y-93347619D01*
X81585714Y-93442857D01*
X81585714Y-93490476D01*
X81538095Y-93585714D01*
X81490476Y-93633333D01*
X81395238Y-93680952D01*
X81204761Y-93680952D01*
X81109523Y-93728571D01*
X81061904Y-93776190D01*
X81014285Y-93871428D01*
X81014285Y-94061904D01*
X81061904Y-94157142D01*
X81109523Y-94204761D01*
X81204761Y-94252380D01*
X81395238Y-94252380D01*
X81490476Y-94204761D01*
X81538095Y-94157142D01*
X81585714Y-94061904D01*
X81585714Y-93871428D01*
X81538095Y-93776190D01*
X81490476Y-93728571D01*
X81395238Y-93680952D01*
X88188095Y-91852380D02*
X88188095Y-92661904D01*
X88235714Y-92757142D01*
X88283333Y-92804761D01*
X88378571Y-92852380D01*
X88569047Y-92852380D01*
X88664285Y-92804761D01*
X88711904Y-92757142D01*
X88759523Y-92661904D01*
X88759523Y-91852380D01*
X89664285Y-91852380D02*
X89473809Y-91852380D01*
X89378571Y-91900000D01*
X89330952Y-91947619D01*
X89235714Y-92090476D01*
X89188095Y-92280952D01*
X89188095Y-92661904D01*
X89235714Y-92757142D01*
X89283333Y-92804761D01*
X89378571Y-92852380D01*
X89569047Y-92852380D01*
X89664285Y-92804761D01*
X89711904Y-92757142D01*
X89759523Y-92661904D01*
X89759523Y-92423809D01*
X89711904Y-92328571D01*
X89664285Y-92280952D01*
X89569047Y-92233333D01*
X89378571Y-92233333D01*
X89283333Y-92280952D01*
X89235714Y-92328571D01*
X89188095Y-92423809D01*
X96212666Y-61078380D02*
X96212666Y-61792666D01*
X96165047Y-61935523D01*
X96069809Y-62030761D01*
X95926952Y-62078380D01*
X95831714Y-62078380D01*
X97212666Y-62078380D02*
X96641238Y-62078380D01*
X96926952Y-62078380D02*
X96926952Y-61078380D01*
X96831714Y-61221238D01*
X96736476Y-61316476D01*
X96641238Y-61364095D01*
X100627380Y-85491666D02*
X100151190Y-85825000D01*
X100627380Y-86063095D02*
X99627380Y-86063095D01*
X99627380Y-85682142D01*
X99675000Y-85586904D01*
X99722619Y-85539285D01*
X99817857Y-85491666D01*
X99960714Y-85491666D01*
X100055952Y-85539285D01*
X100103571Y-85586904D01*
X100151190Y-85682142D01*
X100151190Y-86063095D01*
X99627380Y-85158333D02*
X99627380Y-84491666D01*
X100627380Y-84920238D01*
X99502380Y-89111904D02*
X100311904Y-89111904D01*
X100407142Y-89064285D01*
X100454761Y-89016666D01*
X100502380Y-88921428D01*
X100502380Y-88730952D01*
X100454761Y-88635714D01*
X100407142Y-88588095D01*
X100311904Y-88540476D01*
X99502380Y-88540476D01*
X99502380Y-87588095D02*
X99502380Y-88064285D01*
X99978571Y-88111904D01*
X99930952Y-88064285D01*
X99883333Y-87969047D01*
X99883333Y-87730952D01*
X99930952Y-87635714D01*
X99978571Y-87588095D01*
X100073809Y-87540476D01*
X100311904Y-87540476D01*
X100407142Y-87588095D01*
X100454761Y-87635714D01*
X100502380Y-87730952D01*
X100502380Y-87969047D01*
X100454761Y-88064285D01*
X100407142Y-88111904D01*
X99207142Y-103157142D02*
X99159523Y-103204761D01*
X99016666Y-103252380D01*
X98921428Y-103252380D01*
X98778571Y-103204761D01*
X98683333Y-103109523D01*
X98635714Y-103014285D01*
X98588095Y-102823809D01*
X98588095Y-102680952D01*
X98635714Y-102490476D01*
X98683333Y-102395238D01*
X98778571Y-102300000D01*
X98921428Y-102252380D01*
X99016666Y-102252380D01*
X99159523Y-102300000D01*
X99207142Y-102347619D01*
X100159523Y-103252380D02*
X99588095Y-103252380D01*
X99873809Y-103252380D02*
X99873809Y-102252380D01*
X99778571Y-102395238D01*
X99683333Y-102490476D01*
X99588095Y-102538095D01*
X101064285Y-102252380D02*
X100588095Y-102252380D01*
X100540476Y-102728571D01*
X100588095Y-102680952D01*
X100683333Y-102633333D01*
X100921428Y-102633333D01*
X101016666Y-102680952D01*
X101064285Y-102728571D01*
X101111904Y-102823809D01*
X101111904Y-103061904D01*
X101064285Y-103157142D01*
X101016666Y-103204761D01*
X100921428Y-103252380D01*
X100683333Y-103252380D01*
X100588095Y-103204761D01*
X100540476Y-103157142D01*
X98283666Y-108116380D02*
X98283666Y-108830666D01*
X98236047Y-108973523D01*
X98140809Y-109068761D01*
X97997952Y-109116380D01*
X97902714Y-109116380D01*
X99188428Y-108449714D02*
X99188428Y-109116380D01*
X98950333Y-108068761D02*
X98712238Y-108783047D01*
X99331285Y-108783047D01*
X75763333Y-98497142D02*
X75715714Y-98544761D01*
X75572857Y-98592380D01*
X75477619Y-98592380D01*
X75334761Y-98544761D01*
X75239523Y-98449523D01*
X75191904Y-98354285D01*
X75144285Y-98163809D01*
X75144285Y-98020952D01*
X75191904Y-97830476D01*
X75239523Y-97735238D01*
X75334761Y-97640000D01*
X75477619Y-97592380D01*
X75572857Y-97592380D01*
X75715714Y-97640000D01*
X75763333Y-97687619D01*
X76715714Y-98592380D02*
X76144285Y-98592380D01*
X76430000Y-98592380D02*
X76430000Y-97592380D01*
X76334761Y-97735238D01*
X76239523Y-97830476D01*
X76144285Y-97878095D01*
X86607142Y-81857142D02*
X86559523Y-81904761D01*
X86416666Y-81952380D01*
X86321428Y-81952380D01*
X86178571Y-81904761D01*
X86083333Y-81809523D01*
X86035714Y-81714285D01*
X85988095Y-81523809D01*
X85988095Y-81380952D01*
X86035714Y-81190476D01*
X86083333Y-81095238D01*
X86178571Y-81000000D01*
X86321428Y-80952380D01*
X86416666Y-80952380D01*
X86559523Y-81000000D01*
X86607142Y-81047619D01*
X86988095Y-81047619D02*
X87035714Y-81000000D01*
X87130952Y-80952380D01*
X87369047Y-80952380D01*
X87464285Y-81000000D01*
X87511904Y-81047619D01*
X87559523Y-81142857D01*
X87559523Y-81238095D01*
X87511904Y-81380952D01*
X86940476Y-81952380D01*
X87559523Y-81952380D01*
X88416666Y-81285714D02*
X88416666Y-81952380D01*
X88178571Y-80904761D02*
X87940476Y-81619047D01*
X88559523Y-81619047D01*
X76144380Y-104306666D02*
X75668190Y-104640000D01*
X76144380Y-104878095D02*
X75144380Y-104878095D01*
X75144380Y-104497142D01*
X75192000Y-104401904D01*
X75239619Y-104354285D01*
X75334857Y-104306666D01*
X75477714Y-104306666D01*
X75572952Y-104354285D01*
X75620571Y-104401904D01*
X75668190Y-104497142D01*
X75668190Y-104878095D01*
X75144380Y-103401904D02*
X75144380Y-103878095D01*
X75620571Y-103925714D01*
X75572952Y-103878095D01*
X75525333Y-103782857D01*
X75525333Y-103544761D01*
X75572952Y-103449523D01*
X75620571Y-103401904D01*
X75715809Y-103354285D01*
X75953904Y-103354285D01*
X76049142Y-103401904D01*
X76096761Y-103449523D01*
X76144380Y-103544761D01*
X76144380Y-103782857D01*
X76096761Y-103878095D01*
X76049142Y-103925714D01*
X91107142Y-99357142D02*
X91059523Y-99404761D01*
X90916666Y-99452380D01*
X90821428Y-99452380D01*
X90678571Y-99404761D01*
X90583333Y-99309523D01*
X90535714Y-99214285D01*
X90488095Y-99023809D01*
X90488095Y-98880952D01*
X90535714Y-98690476D01*
X90583333Y-98595238D01*
X90678571Y-98500000D01*
X90821428Y-98452380D01*
X90916666Y-98452380D01*
X91059523Y-98500000D01*
X91107142Y-98547619D01*
X92059523Y-99452380D02*
X91488095Y-99452380D01*
X91773809Y-99452380D02*
X91773809Y-98452380D01*
X91678571Y-98595238D01*
X91583333Y-98690476D01*
X91488095Y-98738095D01*
X92440476Y-98547619D02*
X92488095Y-98500000D01*
X92583333Y-98452380D01*
X92821428Y-98452380D01*
X92916666Y-98500000D01*
X92964285Y-98547619D01*
X93011904Y-98642857D01*
X93011904Y-98738095D01*
X92964285Y-98880952D01*
X92392857Y-99452380D01*
X93011904Y-99452380D01*
X99663333Y-96247142D02*
X99615714Y-96294761D01*
X99472857Y-96342380D01*
X99377619Y-96342380D01*
X99234761Y-96294761D01*
X99139523Y-96199523D01*
X99091904Y-96104285D01*
X99044285Y-95913809D01*
X99044285Y-95770952D01*
X99091904Y-95580476D01*
X99139523Y-95485238D01*
X99234761Y-95390000D01*
X99377619Y-95342380D01*
X99472857Y-95342380D01*
X99615714Y-95390000D01*
X99663333Y-95437619D01*
X100568095Y-95342380D02*
X100091904Y-95342380D01*
X100044285Y-95818571D01*
X100091904Y-95770952D01*
X100187142Y-95723333D01*
X100425238Y-95723333D01*
X100520476Y-95770952D01*
X100568095Y-95818571D01*
X100615714Y-95913809D01*
X100615714Y-96151904D01*
X100568095Y-96247142D01*
X100520476Y-96294761D01*
X100425238Y-96342380D01*
X100187142Y-96342380D01*
X100091904Y-96294761D01*
X100044285Y-96247142D01*
X71957142Y-94452380D02*
X71623809Y-93976190D01*
X71385714Y-94452380D02*
X71385714Y-93452380D01*
X71766666Y-93452380D01*
X71861904Y-93500000D01*
X71909523Y-93547619D01*
X71957142Y-93642857D01*
X71957142Y-93785714D01*
X71909523Y-93880952D01*
X71861904Y-93928571D01*
X71766666Y-93976190D01*
X71385714Y-93976190D01*
X72909523Y-94452380D02*
X72338095Y-94452380D01*
X72623809Y-94452380D02*
X72623809Y-93452380D01*
X72528571Y-93595238D01*
X72433333Y-93690476D01*
X72338095Y-93738095D01*
X73766666Y-93452380D02*
X73576190Y-93452380D01*
X73480952Y-93500000D01*
X73433333Y-93547619D01*
X73338095Y-93690476D01*
X73290476Y-93880952D01*
X73290476Y-94261904D01*
X73338095Y-94357142D01*
X73385714Y-94404761D01*
X73480952Y-94452380D01*
X73671428Y-94452380D01*
X73766666Y-94404761D01*
X73814285Y-94357142D01*
X73861904Y-94261904D01*
X73861904Y-94023809D01*
X73814285Y-93928571D01*
X73766666Y-93880952D01*
X73671428Y-93833333D01*
X73480952Y-93833333D01*
X73385714Y-93880952D01*
X73338095Y-93928571D01*
X73290476Y-94023809D01*
X89988095Y-78452380D02*
X90559523Y-78452380D01*
X90273809Y-79452380D02*
X90273809Y-78452380D01*
X90892857Y-79452380D02*
X90892857Y-78452380D01*
X91273809Y-78452380D01*
X91369047Y-78500000D01*
X91416666Y-78547619D01*
X91464285Y-78642857D01*
X91464285Y-78785714D01*
X91416666Y-78880952D01*
X91369047Y-78928571D01*
X91273809Y-78976190D01*
X90892857Y-78976190D01*
X92369047Y-78452380D02*
X91892857Y-78452380D01*
X91845238Y-78928571D01*
X91892857Y-78880952D01*
X91988095Y-78833333D01*
X92226190Y-78833333D01*
X92321428Y-78880952D01*
X92369047Y-78928571D01*
X92416666Y-79023809D01*
X92416666Y-79261904D01*
X92369047Y-79357142D01*
X92321428Y-79404761D01*
X92226190Y-79452380D01*
X91988095Y-79452380D01*
X91892857Y-79404761D01*
X91845238Y-79357142D01*
X75007142Y-87192857D02*
X75054761Y-87240476D01*
X75102380Y-87383333D01*
X75102380Y-87478571D01*
X75054761Y-87621428D01*
X74959523Y-87716666D01*
X74864285Y-87764285D01*
X74673809Y-87811904D01*
X74530952Y-87811904D01*
X74340476Y-87764285D01*
X74245238Y-87716666D01*
X74150000Y-87621428D01*
X74102380Y-87478571D01*
X74102380Y-87383333D01*
X74150000Y-87240476D01*
X74197619Y-87192857D01*
X74197619Y-86811904D02*
X74150000Y-86764285D01*
X74102380Y-86669047D01*
X74102380Y-86430952D01*
X74150000Y-86335714D01*
X74197619Y-86288095D01*
X74292857Y-86240476D01*
X74388095Y-86240476D01*
X74530952Y-86288095D01*
X75102380Y-86859523D01*
X75102380Y-86240476D01*
X74102380Y-85383333D02*
X74102380Y-85573809D01*
X74150000Y-85669047D01*
X74197619Y-85716666D01*
X74340476Y-85811904D01*
X74530952Y-85859523D01*
X74911904Y-85859523D01*
X75007142Y-85811904D01*
X75054761Y-85764285D01*
X75102380Y-85669047D01*
X75102380Y-85478571D01*
X75054761Y-85383333D01*
X75007142Y-85335714D01*
X74911904Y-85288095D01*
X74673809Y-85288095D01*
X74578571Y-85335714D01*
X74530952Y-85383333D01*
X74483333Y-85478571D01*
X74483333Y-85669047D01*
X74530952Y-85764285D01*
X74578571Y-85811904D01*
X74673809Y-85859523D01*
X75047619Y-100845238D02*
X75000000Y-100940476D01*
X74904761Y-101035714D01*
X74761904Y-101178571D01*
X74714285Y-101273809D01*
X74714285Y-101369047D01*
X74952380Y-101321428D02*
X74904761Y-101416666D01*
X74809523Y-101511904D01*
X74619047Y-101559523D01*
X74285714Y-101559523D01*
X74095238Y-101511904D01*
X74000000Y-101416666D01*
X73952380Y-101321428D01*
X73952380Y-101130952D01*
X74000000Y-101035714D01*
X74095238Y-100940476D01*
X74285714Y-100892857D01*
X74619047Y-100892857D01*
X74809523Y-100940476D01*
X74904761Y-101035714D01*
X74952380Y-101130952D01*
X74952380Y-101321428D01*
X74952380Y-99940476D02*
X74952380Y-100511904D01*
X74952380Y-100226190D02*
X73952380Y-100226190D01*
X74095238Y-100321428D01*
X74190476Y-100416666D01*
X74238095Y-100511904D01*
X70047619Y-89095238D02*
X70000000Y-89190476D01*
X69904761Y-89285714D01*
X69761904Y-89428571D01*
X69714285Y-89523809D01*
X69714285Y-89619047D01*
X69952380Y-89571428D02*
X69904761Y-89666666D01*
X69809523Y-89761904D01*
X69619047Y-89809523D01*
X69285714Y-89809523D01*
X69095238Y-89761904D01*
X69000000Y-89666666D01*
X68952380Y-89571428D01*
X68952380Y-89380952D01*
X69000000Y-89285714D01*
X69095238Y-89190476D01*
X69285714Y-89142857D01*
X69619047Y-89142857D01*
X69809523Y-89190476D01*
X69904761Y-89285714D01*
X69952380Y-89380952D01*
X69952380Y-89571428D01*
X69047619Y-88761904D02*
X69000000Y-88714285D01*
X68952380Y-88619047D01*
X68952380Y-88380952D01*
X69000000Y-88285714D01*
X69047619Y-88238095D01*
X69142857Y-88190476D01*
X69238095Y-88190476D01*
X69380952Y-88238095D01*
X69952380Y-88809523D01*
X69952380Y-88190476D01*
X92604761Y-76872619D02*
X92509523Y-76825000D01*
X92414285Y-76729761D01*
X92271428Y-76586904D01*
X92176190Y-76539285D01*
X92080952Y-76539285D01*
X92128571Y-76777380D02*
X92033333Y-76729761D01*
X91938095Y-76634523D01*
X91890476Y-76444047D01*
X91890476Y-76110714D01*
X91938095Y-75920238D01*
X92033333Y-75825000D01*
X92128571Y-75777380D01*
X92319047Y-75777380D01*
X92414285Y-75825000D01*
X92509523Y-75920238D01*
X92557142Y-76110714D01*
X92557142Y-76444047D01*
X92509523Y-76634523D01*
X92414285Y-76729761D01*
X92319047Y-76777380D01*
X92128571Y-76777380D01*
X92890476Y-75777380D02*
X93509523Y-75777380D01*
X93176190Y-76158333D01*
X93319047Y-76158333D01*
X93414285Y-76205952D01*
X93461904Y-76253571D01*
X93509523Y-76348809D01*
X93509523Y-76586904D01*
X93461904Y-76682142D01*
X93414285Y-76729761D01*
X93319047Y-76777380D01*
X93033333Y-76777380D01*
X92938095Y-76729761D01*
X92890476Y-76682142D01*
X72452380Y-73111904D02*
X73261904Y-73111904D01*
X73357142Y-73064285D01*
X73404761Y-73016666D01*
X73452380Y-72921428D01*
X73452380Y-72730952D01*
X73404761Y-72635714D01*
X73357142Y-72588095D01*
X73261904Y-72540476D01*
X72452380Y-72540476D01*
X72452380Y-72159523D02*
X72452380Y-71540476D01*
X72833333Y-71873809D01*
X72833333Y-71730952D01*
X72880952Y-71635714D01*
X72928571Y-71588095D01*
X73023809Y-71540476D01*
X73261904Y-71540476D01*
X73357142Y-71588095D01*
X73404761Y-71635714D01*
X73452380Y-71730952D01*
X73452380Y-72016666D01*
X73404761Y-72111904D01*
X73357142Y-72159523D01*
X94861142Y-71064380D02*
X94527809Y-70588190D01*
X94289714Y-71064380D02*
X94289714Y-70064380D01*
X94670666Y-70064380D01*
X94765904Y-70112000D01*
X94813523Y-70159619D01*
X94861142Y-70254857D01*
X94861142Y-70397714D01*
X94813523Y-70492952D01*
X94765904Y-70540571D01*
X94670666Y-70588190D01*
X94289714Y-70588190D01*
X95813523Y-71064380D02*
X95242095Y-71064380D01*
X95527809Y-71064380D02*
X95527809Y-70064380D01*
X95432571Y-70207238D01*
X95337333Y-70302476D01*
X95242095Y-70350095D01*
X96765904Y-71064380D02*
X96194476Y-71064380D01*
X96480190Y-71064380D02*
X96480190Y-70064380D01*
X96384952Y-70207238D01*
X96289714Y-70302476D01*
X96194476Y-70350095D01*
X101817333Y-104626380D02*
X101484000Y-104150190D01*
X101245904Y-104626380D02*
X101245904Y-103626380D01*
X101626857Y-103626380D01*
X101722095Y-103674000D01*
X101769714Y-103721619D01*
X101817333Y-103816857D01*
X101817333Y-103959714D01*
X101769714Y-104054952D01*
X101722095Y-104102571D01*
X101626857Y-104150190D01*
X101245904Y-104150190D01*
X102198285Y-103721619D02*
X102245904Y-103674000D01*
X102341142Y-103626380D01*
X102579238Y-103626380D01*
X102674476Y-103674000D01*
X102722095Y-103721619D01*
X102769714Y-103816857D01*
X102769714Y-103912095D01*
X102722095Y-104054952D01*
X102150666Y-104626380D01*
X102769714Y-104626380D01*
X87557142Y-67476666D02*
X87604761Y-67524285D01*
X87652380Y-67667142D01*
X87652380Y-67762380D01*
X87604761Y-67905238D01*
X87509523Y-68000476D01*
X87414285Y-68048095D01*
X87223809Y-68095714D01*
X87080952Y-68095714D01*
X86890476Y-68048095D01*
X86795238Y-68000476D01*
X86700000Y-67905238D01*
X86652380Y-67762380D01*
X86652380Y-67667142D01*
X86700000Y-67524285D01*
X86747619Y-67476666D01*
X86747619Y-67095714D02*
X86700000Y-67048095D01*
X86652380Y-66952857D01*
X86652380Y-66714761D01*
X86700000Y-66619523D01*
X86747619Y-66571904D01*
X86842857Y-66524285D01*
X86938095Y-66524285D01*
X87080952Y-66571904D01*
X87652380Y-67143333D01*
X87652380Y-66524285D01*
X103354761Y-101561904D02*
X103402380Y-101419047D01*
X103402380Y-101180952D01*
X103354761Y-101085714D01*
X103307142Y-101038095D01*
X103211904Y-100990476D01*
X103116666Y-100990476D01*
X103021428Y-101038095D01*
X102973809Y-101085714D01*
X102926190Y-101180952D01*
X102878571Y-101371428D01*
X102830952Y-101466666D01*
X102783333Y-101514285D01*
X102688095Y-101561904D01*
X102592857Y-101561904D01*
X102497619Y-101514285D01*
X102450000Y-101466666D01*
X102402380Y-101371428D01*
X102402380Y-101133333D01*
X102450000Y-100990476D01*
X102402380Y-100657142D02*
X102402380Y-100038095D01*
X102783333Y-100371428D01*
X102783333Y-100228571D01*
X102830952Y-100133333D01*
X102878571Y-100085714D01*
X102973809Y-100038095D01*
X103211904Y-100038095D01*
X103307142Y-100085714D01*
X103354761Y-100133333D01*
X103402380Y-100228571D01*
X103402380Y-100514285D01*
X103354761Y-100609523D01*
X103307142Y-100657142D01*
X82917142Y-82242142D02*
X82869523Y-82289761D01*
X82726666Y-82337380D01*
X82631428Y-82337380D01*
X82488571Y-82289761D01*
X82393333Y-82194523D01*
X82345714Y-82099285D01*
X82298095Y-81908809D01*
X82298095Y-81765952D01*
X82345714Y-81575476D01*
X82393333Y-81480238D01*
X82488571Y-81385000D01*
X82631428Y-81337380D01*
X82726666Y-81337380D01*
X82869523Y-81385000D01*
X82917142Y-81432619D01*
X83298095Y-81432619D02*
X83345714Y-81385000D01*
X83440952Y-81337380D01*
X83679047Y-81337380D01*
X83774285Y-81385000D01*
X83821904Y-81432619D01*
X83869523Y-81527857D01*
X83869523Y-81623095D01*
X83821904Y-81765952D01*
X83250476Y-82337380D01*
X83869523Y-82337380D01*
X84821904Y-82337380D02*
X84250476Y-82337380D01*
X84536190Y-82337380D02*
X84536190Y-81337380D01*
X84440952Y-81480238D01*
X84345714Y-81575476D01*
X84250476Y-81623095D01*
X99382142Y-106057142D02*
X99334523Y-106104761D01*
X99191666Y-106152380D01*
X99096428Y-106152380D01*
X98953571Y-106104761D01*
X98858333Y-106009523D01*
X98810714Y-105914285D01*
X98763095Y-105723809D01*
X98763095Y-105580952D01*
X98810714Y-105390476D01*
X98858333Y-105295238D01*
X98953571Y-105200000D01*
X99096428Y-105152380D01*
X99191666Y-105152380D01*
X99334523Y-105200000D01*
X99382142Y-105247619D01*
X100334523Y-106152380D02*
X99763095Y-106152380D01*
X100048809Y-106152380D02*
X100048809Y-105152380D01*
X99953571Y-105295238D01*
X99858333Y-105390476D01*
X99763095Y-105438095D01*
X101191666Y-105152380D02*
X101001190Y-105152380D01*
X100905952Y-105200000D01*
X100858333Y-105247619D01*
X100763095Y-105390476D01*
X100715476Y-105580952D01*
X100715476Y-105961904D01*
X100763095Y-106057142D01*
X100810714Y-106104761D01*
X100905952Y-106152380D01*
X101096428Y-106152380D01*
X101191666Y-106104761D01*
X101239285Y-106057142D01*
X101286904Y-105961904D01*
X101286904Y-105723809D01*
X101239285Y-105628571D01*
X101191666Y-105580952D01*
X101096428Y-105533333D01*
X100905952Y-105533333D01*
X100810714Y-105580952D01*
X100763095Y-105628571D01*
X100715476Y-105723809D01*
X95407142Y-100757142D02*
X95359523Y-100804761D01*
X95216666Y-100852380D01*
X95121428Y-100852380D01*
X94978571Y-100804761D01*
X94883333Y-100709523D01*
X94835714Y-100614285D01*
X94788095Y-100423809D01*
X94788095Y-100280952D01*
X94835714Y-100090476D01*
X94883333Y-99995238D01*
X94978571Y-99900000D01*
X95121428Y-99852380D01*
X95216666Y-99852380D01*
X95359523Y-99900000D01*
X95407142Y-99947619D01*
X96359523Y-100852380D02*
X95788095Y-100852380D01*
X96073809Y-100852380D02*
X96073809Y-99852380D01*
X95978571Y-99995238D01*
X95883333Y-100090476D01*
X95788095Y-100138095D01*
X97216666Y-100185714D02*
X97216666Y-100852380D01*
X96978571Y-99804761D02*
X96740476Y-100519047D01*
X97359523Y-100519047D01*
X77107142Y-75657246D02*
X77154761Y-75704865D01*
X77202380Y-75847722D01*
X77202380Y-75942960D01*
X77154761Y-76085818D01*
X77059523Y-76181056D01*
X76964285Y-76228675D01*
X76773809Y-76276294D01*
X76630952Y-76276294D01*
X76440476Y-76228675D01*
X76345238Y-76181056D01*
X76250000Y-76085818D01*
X76202380Y-75942960D01*
X76202380Y-75847722D01*
X76250000Y-75704865D01*
X76297619Y-75657246D01*
X76202380Y-75323913D02*
X76202380Y-74704865D01*
X76583333Y-75038199D01*
X76583333Y-74895341D01*
X76630952Y-74800103D01*
X76678571Y-74752484D01*
X76773809Y-74704865D01*
X77011904Y-74704865D01*
X77107142Y-74752484D01*
X77154761Y-74800103D01*
X77202380Y-74895341D01*
X77202380Y-75181056D01*
X77154761Y-75276294D01*
X77107142Y-75323913D01*
X89397142Y-103187142D02*
X89349523Y-103234761D01*
X89206666Y-103282380D01*
X89111428Y-103282380D01*
X88968571Y-103234761D01*
X88873333Y-103139523D01*
X88825714Y-103044285D01*
X88778095Y-102853809D01*
X88778095Y-102710952D01*
X88825714Y-102520476D01*
X88873333Y-102425238D01*
X88968571Y-102330000D01*
X89111428Y-102282380D01*
X89206666Y-102282380D01*
X89349523Y-102330000D01*
X89397142Y-102377619D01*
X90349523Y-103282380D02*
X89778095Y-103282380D01*
X90063809Y-103282380D02*
X90063809Y-102282380D01*
X89968571Y-102425238D01*
X89873333Y-102520476D01*
X89778095Y-102568095D01*
X91301904Y-103282380D02*
X90730476Y-103282380D01*
X91016190Y-103282380D02*
X91016190Y-102282380D01*
X90920952Y-102425238D01*
X90825714Y-102520476D01*
X90730476Y-102568095D01*
X69605095Y-77604761D02*
X69747952Y-77652380D01*
X69986047Y-77652380D01*
X70081285Y-77604761D01*
X70128904Y-77557142D01*
X70176523Y-77461904D01*
X70176523Y-77366666D01*
X70128904Y-77271428D01*
X70081285Y-77223809D01*
X69986047Y-77176190D01*
X69795571Y-77128571D01*
X69700333Y-77080952D01*
X69652714Y-77033333D01*
X69605095Y-76938095D01*
X69605095Y-76842857D01*
X69652714Y-76747619D01*
X69700333Y-76700000D01*
X69795571Y-76652380D01*
X70033666Y-76652380D01*
X70176523Y-76700000D01*
X71128904Y-77652380D02*
X70557476Y-77652380D01*
X70843190Y-77652380D02*
X70843190Y-76652380D01*
X70747952Y-76795238D01*
X70652714Y-76890476D01*
X70557476Y-76938095D01*
X82129333Y-101767142D02*
X82081714Y-101814761D01*
X81938857Y-101862380D01*
X81843619Y-101862380D01*
X81700761Y-101814761D01*
X81605523Y-101719523D01*
X81557904Y-101624285D01*
X81510285Y-101433809D01*
X81510285Y-101290952D01*
X81557904Y-101100476D01*
X81605523Y-101005238D01*
X81700761Y-100910000D01*
X81843619Y-100862380D01*
X81938857Y-100862380D01*
X82081714Y-100910000D01*
X82129333Y-100957619D01*
X82605523Y-101862380D02*
X82796000Y-101862380D01*
X82891238Y-101814761D01*
X82938857Y-101767142D01*
X83034095Y-101624285D01*
X83081714Y-101433809D01*
X83081714Y-101052857D01*
X83034095Y-100957619D01*
X82986476Y-100910000D01*
X82891238Y-100862380D01*
X82700761Y-100862380D01*
X82605523Y-100910000D01*
X82557904Y-100957619D01*
X82510285Y-101052857D01*
X82510285Y-101290952D01*
X82557904Y-101386190D01*
X82605523Y-101433809D01*
X82700761Y-101481428D01*
X82891238Y-101481428D01*
X82986476Y-101433809D01*
X83034095Y-101386190D01*
X83081714Y-101290952D01*
D12*
X87594000Y-95996000D02*
X83694000Y-95996000D01*
X87594000Y-95996000D02*
X87594000Y-93996000D01*
X87594000Y-93996000D02*
X83694000Y-93996000D01*
X93690000Y-98028000D02*
X89790000Y-98028000D01*
X93690000Y-98028000D02*
X93690000Y-96028000D01*
X93690000Y-96028000D02*
X89790000Y-96028000D01*
X83602000Y-96790000D02*
X87502000Y-96790000D01*
X83602000Y-96790000D02*
X83602000Y-98790000D01*
X83602000Y-98790000D02*
X87502000Y-98790000D01*
X68850000Y-98516000D02*
X68850000Y-94616000D01*
X68850000Y-98516000D02*
X70850000Y-98516000D01*
X70850000Y-98516000D02*
X70850000Y-94616000D01*
X76752742Y-107452500D02*
X77227258Y-107452500D01*
X76752742Y-106407500D02*
X77227258Y-106407500D01*
X73763748Y-78810000D02*
X74286252Y-78810000D01*
X73763748Y-77340000D02*
X74286252Y-77340000D01*
X86614000Y-68544000D02*
X87414000Y-68544000D01*
X86614000Y-71664000D02*
X88414000Y-71664000D01*
X86614000Y-71664000D02*
X85814000Y-71664000D01*
X86614000Y-68544000D02*
X85814000Y-68544000D01*
X97200000Y-76342164D02*
X97200000Y-76557836D01*
X97920000Y-76342164D02*
X97920000Y-76557836D01*
D13*
X86890000Y-74830000D02*
X86890000Y-74433550D01*
X86890000Y-74433550D02*
X86536450Y-74080000D01*
X86536450Y-74080000D02*
X86140000Y-74080000D01*
X86890000Y-78330000D02*
X86890000Y-79080000D01*
X86890000Y-79080000D02*
X86140000Y-79080000D01*
X82640000Y-74080000D02*
X81890000Y-74080000D01*
X81890000Y-74080000D02*
X81890000Y-74830000D01*
X81890000Y-78330000D02*
X81890000Y-79080000D01*
X81890000Y-79080000D02*
X82640000Y-79080000D01*
X86890000Y-73580000D02*
G75*
G03*
X86890000Y-73580000I-250000J0D01*
G01*
D12*
X79690000Y-76379420D02*
X79690000Y-76660580D01*
X80710000Y-76379420D02*
X80710000Y-76660580D01*
X82130000Y-71519420D02*
X82130000Y-71800580D01*
X83150000Y-71519420D02*
X83150000Y-71800580D01*
X80400580Y-73320000D02*
X80119420Y-73320000D01*
X80400580Y-74340000D02*
X80119420Y-74340000D01*
X101646359Y-78695000D02*
X101953641Y-78695000D01*
X101646359Y-79455000D02*
X101953641Y-79455000D01*
X96509420Y-98615000D02*
X96790580Y-98615000D01*
X96509420Y-99635000D02*
X96790580Y-99635000D01*
X87210000Y-90907836D02*
X87210000Y-90692164D01*
X86490000Y-90907836D02*
X86490000Y-90692164D01*
X87307836Y-92140000D02*
X87092164Y-92140000D01*
X87307836Y-92860000D02*
X87092164Y-92860000D01*
X106430000Y-97330000D02*
X105100000Y-97330000D01*
X106430000Y-96000000D02*
X106430000Y-97330000D01*
X103830000Y-94730000D02*
X103830000Y-97330000D01*
X106430000Y-84510000D02*
X101230000Y-84510000D01*
X101230000Y-97330000D02*
X101230000Y-84510000D01*
X106430000Y-94730000D02*
X106430000Y-84510000D01*
X106430000Y-94730000D02*
X103830000Y-94730000D01*
X103830000Y-97330000D02*
X101230000Y-97330000D01*
X93100000Y-70000000D02*
G75*
G03*
X93100000Y-70000000I-700000J0D01*
G01*
X106850000Y-79300000D02*
X106850000Y-82800000D01*
X103750000Y-82800000D02*
X103750000Y-79300000D01*
X87253641Y-101560000D02*
X86946359Y-101560000D01*
X87253641Y-102320000D02*
X86946359Y-102320000D01*
X78200000Y-66500000D02*
G75*
G03*
X78200000Y-66500000I-700000J0D01*
G01*
X88310000Y-60340000D02*
X86025000Y-60340000D01*
X86025000Y-61810000D02*
X88310000Y-61810000D01*
X88310000Y-61810000D02*
X88310000Y-60340000D01*
X87546359Y-100580000D02*
X87853641Y-100580000D01*
X87546359Y-99820000D02*
X87853641Y-99820000D01*
X80816359Y-102700000D02*
X81123641Y-102700000D01*
X80816359Y-101940000D02*
X81123641Y-101940000D01*
X73834420Y-83660000D02*
X74115580Y-83660000D01*
X73834420Y-82640000D02*
X74115580Y-82640000D01*
D13*
X84426000Y-60368000D02*
X84426000Y-60068000D01*
X76826000Y-60368000D02*
X76826000Y-60068000D01*
X84426000Y-60018000D02*
X76826000Y-60018000D01*
X76826000Y-62568000D02*
X76826000Y-62968000D01*
X84426000Y-62968000D02*
X84426000Y-62568000D01*
D14*
X82726000Y-64968000D02*
G75*
G03*
X82726000Y-64968000I-100000J0D01*
G01*
D12*
X87250000Y-64159641D02*
X87250000Y-63852359D01*
X88010000Y-64159641D02*
X88010000Y-63852359D01*
X86275000Y-85550000D02*
X88975000Y-85550000D01*
X86275000Y-83250000D02*
X86275000Y-85550000D01*
X91953641Y-92120000D02*
X91646359Y-92120000D01*
X91953641Y-92880000D02*
X91646359Y-92880000D01*
X75525000Y-80200000D02*
G75*
G03*
X75525000Y-80200000I-700000J0D01*
G01*
X87260687Y-72982000D02*
X87567969Y-72982000D01*
X87260687Y-72222000D02*
X87567969Y-72222000D01*
X74120000Y-96860000D02*
X74120000Y-97620000D01*
X72702470Y-94895000D02*
X71900000Y-94895000D01*
X72446529Y-96100000D02*
X71900000Y-96100000D01*
X74120000Y-97620000D02*
X73010000Y-97620000D01*
X74120000Y-94895000D02*
X73317530Y-94895000D01*
X74120000Y-96100000D02*
X73573471Y-96100000D01*
X71900000Y-96100000D02*
X71900000Y-94895000D01*
X74120000Y-96100000D02*
X74120000Y-94895000D01*
X77356580Y-81278000D02*
X77075420Y-81278000D01*
X77356580Y-82298000D02*
X77075420Y-82298000D01*
X68675000Y-103350000D02*
X68675000Y-99850000D01*
X71775000Y-99850000D02*
X71775000Y-103350000D01*
X87217164Y-86860000D02*
X87432836Y-86860000D01*
X87217164Y-86140000D02*
X87432836Y-86140000D01*
X77350000Y-72325000D02*
X77350000Y-68425000D01*
X79350000Y-72325000D02*
X79350000Y-68425000D01*
X77350000Y-72325000D02*
X79350000Y-72325000D01*
X75617836Y-92540000D02*
X75402164Y-92540000D01*
X75617836Y-91820000D02*
X75402164Y-91820000D01*
X83490000Y-101290580D02*
X83490000Y-101009420D01*
X84510000Y-101290580D02*
X84510000Y-101009420D01*
X73784328Y-85110000D02*
X74000000Y-85110000D01*
X73784328Y-84390000D02*
X74000000Y-84390000D01*
X94250000Y-100170580D02*
X94250000Y-99889420D01*
X93230000Y-100170580D02*
X93230000Y-99889420D01*
X71303641Y-84120000D02*
X70996359Y-84120000D01*
X71303641Y-84880000D02*
X70996359Y-84880000D01*
X100020000Y-80621359D02*
X100020000Y-80928641D01*
X100780000Y-80621359D02*
X100780000Y-80928641D01*
X75935000Y-107977000D02*
X75935000Y-109447000D01*
X78220000Y-107977000D02*
X75935000Y-107977000D01*
X75935000Y-109447000D02*
X78220000Y-109447000D01*
X76440000Y-91110000D02*
X75890000Y-91110000D01*
X81560000Y-84890000D02*
X82110000Y-84890000D01*
X82110000Y-91110000D02*
X82110000Y-90560000D01*
X75890000Y-91110000D02*
X75890000Y-90560000D01*
X82110000Y-84890000D02*
X82110000Y-85440000D01*
X76440000Y-84890000D02*
X75890000Y-84890000D01*
X81560000Y-91110000D02*
X82110000Y-91110000D01*
X85107836Y-85665000D02*
X84892164Y-85665000D01*
X85107836Y-86385000D02*
X84892164Y-86385000D01*
X94100000Y-80130000D02*
X94100000Y-81270000D01*
X94100000Y-82400000D02*
X98500000Y-82400000D01*
X94100000Y-79000000D02*
X94100000Y-79120000D01*
X98500000Y-82400000D02*
X98500000Y-82280000D01*
X98500000Y-79000000D02*
X94100000Y-79000000D01*
X98500000Y-79120000D02*
X98500000Y-79000000D01*
X94100000Y-82280000D02*
X94100000Y-82400000D01*
X98500000Y-81270000D02*
X98500000Y-80130000D01*
X72095000Y-86765000D02*
X72095000Y-88115000D01*
X70345000Y-86765000D02*
X70345000Y-88115000D01*
X83900000Y-68750000D02*
G75*
G03*
X83900000Y-68750000I-700000J0D01*
G01*
X78500000Y-98589622D02*
X78500000Y-97790378D01*
X77380000Y-98589622D02*
X77380000Y-97790378D01*
X73770000Y-103403641D02*
X73770000Y-103096359D01*
X74530000Y-103403641D02*
X74530000Y-103096359D01*
X80588748Y-97275000D02*
X81111252Y-97275000D01*
X80588748Y-95805000D02*
X81111252Y-95805000D01*
X87850000Y-89450000D02*
X88350000Y-89450000D01*
X89550000Y-91650000D02*
X90050000Y-91650000D01*
X90050000Y-91650000D02*
X90050000Y-91650000D01*
X90050000Y-89950000D02*
X90050000Y-89950000D01*
X87850000Y-91650000D02*
X87850000Y-91150000D01*
X87850000Y-89950000D02*
X87850000Y-89450000D01*
X89550000Y-89450000D02*
X90050000Y-89450000D01*
X87850000Y-91150000D02*
X87850000Y-91150000D01*
X88350000Y-91650000D02*
X87850000Y-91650000D01*
X88350000Y-89450000D02*
X88350000Y-89450000D01*
X90050000Y-89450000D02*
X90050000Y-89950000D01*
X94062000Y-66514000D02*
X94342000Y-66514000D01*
X93502000Y-64154000D02*
X94502000Y-64154000D01*
X89142000Y-68114000D02*
X90062000Y-68114000D01*
X89902000Y-62554000D02*
X90902000Y-62554000D01*
X94342000Y-68114000D02*
X95262000Y-68114000D01*
X93502000Y-62554000D02*
X93502000Y-64154000D01*
X95262000Y-60294000D02*
X89142000Y-60294000D01*
X89142000Y-60294000D02*
X89142000Y-68114000D01*
X95262000Y-68114000D02*
X95262000Y-60294000D01*
X94502000Y-64154000D02*
X94502000Y-62554000D01*
X90902000Y-62554000D02*
X90902000Y-64154000D01*
X90902000Y-64154000D02*
X89902000Y-64154000D01*
X94342000Y-66514000D02*
X94342000Y-68114000D01*
X90062000Y-68114000D02*
X90062000Y-66514000D01*
X94002000Y-62554000D02*
X94002000Y-60294000D01*
X94502000Y-62554000D02*
X93502000Y-62554000D01*
X95262000Y-66514000D02*
X94342000Y-66514000D01*
X93502000Y-62554000D02*
X93502000Y-60294000D01*
X94062000Y-66514000D02*
X94062000Y-67729000D01*
X92702000Y-64654000D02*
X91702000Y-64654000D01*
X89902000Y-64154000D02*
X89902000Y-62554000D01*
X90062000Y-66514000D02*
X90342000Y-66514000D01*
X89142000Y-66514000D02*
X90062000Y-66514000D01*
X92702000Y-60294000D02*
X92702000Y-64654000D01*
X91702000Y-64654000D02*
X91702000Y-60294000D01*
X100405000Y-83221359D02*
X100405000Y-83528641D01*
X99645000Y-83221359D02*
X99645000Y-83528641D01*
X99267500Y-87995000D02*
X99267500Y-90742500D01*
X93772500Y-87995000D02*
X93772500Y-90742500D01*
X99267500Y-90742500D02*
X98985000Y-90742500D01*
X99267500Y-85247500D02*
X98985000Y-85247500D01*
X93772500Y-87995000D02*
X93772500Y-85247500D01*
X98985000Y-85247500D02*
X98985000Y-83595000D01*
X93772500Y-85247500D02*
X94055000Y-85247500D01*
X99267500Y-87995000D02*
X99267500Y-85247500D01*
X93772500Y-90742500D02*
X94055000Y-90742500D01*
X100585000Y-100709420D02*
X100585000Y-100990580D01*
X99565000Y-100709420D02*
X99565000Y-100990580D01*
X82442000Y-105114000D02*
X82642000Y-105514000D01*
X82842000Y-105114000D02*
X82442000Y-105114000D01*
X79677000Y-107704000D02*
X79567000Y-107704000D01*
X97107000Y-107704000D02*
X97217000Y-107704000D01*
X82642000Y-105514000D02*
X82842000Y-105114000D01*
X97217000Y-107704000D02*
X97217000Y-108304000D01*
X79567000Y-107704000D02*
X79567000Y-108304000D01*
X75240000Y-96080580D02*
X75240000Y-95799420D01*
X76260000Y-96080580D02*
X76260000Y-95799420D01*
X85970000Y-83732164D02*
X85970000Y-83947836D01*
X85250000Y-83732164D02*
X85250000Y-83947836D01*
X77863641Y-105430000D02*
X77556359Y-105430000D01*
X77863641Y-104670000D02*
X77556359Y-104670000D01*
X92325000Y-101120580D02*
X92325000Y-100839420D01*
X91305000Y-101120580D02*
X91305000Y-100839420D01*
X97989420Y-93710000D02*
X98270580Y-93710000D01*
X97989420Y-94730000D02*
X98270580Y-94730000D01*
X72970000Y-92713641D02*
X72970000Y-92406359D01*
X73730000Y-92713641D02*
X73730000Y-92406359D01*
X91750000Y-80600000D02*
G75*
G03*
X91750000Y-80600000I-700000J0D01*
G01*
X73650000Y-86507836D02*
X73650000Y-86292164D01*
X72930000Y-86507836D02*
X72930000Y-86292164D01*
X76990000Y-100600000D02*
X77640000Y-100600000D01*
X76990000Y-103720000D02*
X76340000Y-103720000D01*
X76990000Y-100600000D02*
X76340000Y-100600000D01*
X76990000Y-103720000D02*
X78665000Y-103720000D01*
X73680000Y-88352164D02*
X73680000Y-88567836D01*
X72960000Y-88352164D02*
X72960000Y-88567836D01*
X72310000Y-91650000D02*
X72310000Y-89975000D01*
X69190000Y-91650000D02*
X69190000Y-91000000D01*
X69190000Y-91650000D02*
X69190000Y-92300000D01*
X72310000Y-91650000D02*
X72310000Y-92300000D01*
X93450000Y-75435000D02*
X94100000Y-75435000D01*
X93450000Y-72315000D02*
X91775000Y-72315000D01*
X93450000Y-72315000D02*
X94100000Y-72315000D01*
X93450000Y-75435000D02*
X92800000Y-75435000D01*
X76160000Y-70390000D02*
X74900000Y-70390000D01*
X76160000Y-74150000D02*
X76160000Y-70390000D01*
X69340000Y-70390000D02*
X70600000Y-70390000D01*
X69340000Y-76400000D02*
X69340000Y-70390000D01*
X92771359Y-71120000D02*
X93078641Y-71120000D01*
X92771359Y-71880000D02*
X93078641Y-71880000D01*
X102480000Y-102496359D02*
X102480000Y-102803641D01*
X101720000Y-102496359D02*
X101720000Y-102803641D01*
X86485000Y-66515580D02*
X86485000Y-66234420D01*
X85465000Y-66515580D02*
X85465000Y-66234420D01*
X84590000Y-87517164D02*
X84590000Y-87732836D01*
X85310000Y-87517164D02*
X85310000Y-87732836D01*
X106850000Y-99400000D02*
X106850000Y-102900000D01*
X103750000Y-102900000D02*
X103750000Y-99400000D01*
X82840000Y-83567164D02*
X82840000Y-83782836D01*
X83560000Y-83567164D02*
X83560000Y-83782836D01*
X99659420Y-104685000D02*
X99940580Y-104685000D01*
X99659420Y-103665000D02*
X99940580Y-103665000D01*
X90885000Y-70365580D02*
X90885000Y-70084420D01*
X89865000Y-70365580D02*
X89865000Y-70084420D01*
X96709420Y-102035000D02*
X96990580Y-102035000D01*
X96709420Y-101015000D02*
X96990580Y-101015000D01*
X78360000Y-75490580D02*
X78360000Y-75209420D01*
X77340000Y-75490580D02*
X77340000Y-75209420D01*
X90425000Y-101120580D02*
X90425000Y-100839420D01*
X89405000Y-101120580D02*
X89405000Y-100839420D01*
X71775000Y-78768000D02*
X71775000Y-82268000D01*
X68675000Y-82268000D02*
X68675000Y-78768000D01*
X81471252Y-100785000D02*
X80948748Y-100785000D01*
X81471252Y-99315000D02*
X80948748Y-99315000D01*
%LPC*%
D15*
X86994000Y-94996000D03*
X83694000Y-94996000D03*
X93090000Y-97028000D03*
X89790000Y-97028000D03*
D16*
X84202000Y-97790000D03*
X87502000Y-97790000D03*
D17*
X69850000Y-97916000D03*
X69850000Y-94616000D03*
D18*
X76165000Y-106930000D03*
X77815000Y-106930000D03*
D19*
X73075000Y-78075000D03*
X74975000Y-78075000D03*
D20*
X87751500Y-71054000D03*
X87751500Y-70104000D03*
X87751500Y-69154000D03*
X85476500Y-69154000D03*
X85476500Y-71054000D03*
D21*
X97560000Y-75970000D03*
X97560000Y-76930000D03*
D22*
X100174000Y-73700000D03*
D23*
X101649000Y-74725000D03*
D24*
X100174000Y-69700000D03*
D25*
X100749000Y-76975000D03*
D23*
X101649000Y-70675000D03*
D26*
X103124000Y-71675000D03*
D23*
X101649000Y-66825000D03*
X101649000Y-68725000D03*
D27*
X103124000Y-67775000D03*
D28*
X103124000Y-75850000D03*
D23*
X101649000Y-72675000D03*
D29*
X85890000Y-73990000D03*
X85390000Y-73990000D03*
X84890000Y-73990000D03*
X84390000Y-73990000D03*
X83890000Y-73990000D03*
X83390000Y-73990000D03*
X82890000Y-73990000D03*
D30*
X81800000Y-75080000D03*
X81800000Y-75580000D03*
X81800000Y-76080000D03*
X81800000Y-76580000D03*
X81800000Y-77080000D03*
X81800000Y-77580000D03*
X81800000Y-78080000D03*
D31*
X82890000Y-79170000D03*
X83390000Y-79170000D03*
X83890000Y-79170000D03*
X84390000Y-79170000D03*
X84890000Y-79170000D03*
X85390000Y-79170000D03*
X85890000Y-79170000D03*
D32*
X86980000Y-78080000D03*
X86980000Y-77580000D03*
X86980000Y-77080000D03*
X86980000Y-76580000D03*
X86980000Y-76080000D03*
X86980000Y-75580000D03*
X86980000Y-75080000D03*
D33*
X84390000Y-76580000D03*
D34*
X80200000Y-75745000D03*
X80200000Y-77295000D03*
X82640000Y-70885000D03*
X82640000Y-72435000D03*
D35*
X81035000Y-73830000D03*
X79485000Y-73830000D03*
D36*
X101290000Y-79075000D03*
X102310000Y-79075000D03*
D37*
X95875000Y-99125000D03*
X97425000Y-99125000D03*
D38*
X86850000Y-91280000D03*
X86850000Y-90320000D03*
D39*
X87680000Y-92500000D03*
X86720000Y-92500000D03*
D40*
X105100000Y-96000000D03*
D41*
X102560000Y-96000000D03*
X105100000Y-93460000D03*
X102560000Y-93460000D03*
X105100000Y-90920000D03*
X102560000Y-90920000D03*
X105100000Y-88380000D03*
X102560000Y-88380000D03*
X105100000Y-85840000D03*
X102560000Y-85840000D03*
D42*
X92400000Y-70000000D03*
D43*
X103886000Y-62738000D03*
D44*
X104580000Y-79250000D03*
X104580000Y-82850000D03*
X106020000Y-79250000D03*
X106020000Y-82850000D03*
D45*
X87610000Y-101940000D03*
X86590000Y-101940000D03*
D42*
X77500000Y-66500000D03*
D46*
X87612500Y-61075000D03*
X86037500Y-61075000D03*
D36*
X87190000Y-100200000D03*
X88210000Y-100200000D03*
X80460000Y-102320000D03*
X81480000Y-102320000D03*
D37*
X73200000Y-83150000D03*
X74750000Y-83150000D03*
D47*
X83926000Y-61468000D03*
X77326000Y-61468000D03*
D48*
X81926000Y-64143000D03*
X81276000Y-64143000D03*
X80626000Y-64143000D03*
X79976000Y-64143000D03*
X79326000Y-64143000D03*
D49*
X83826000Y-63918000D03*
X77426000Y-63918000D03*
D50*
X79426000Y-61468000D03*
X81826000Y-61468000D03*
D51*
X83926000Y-61468000D03*
X77326000Y-61468000D03*
D52*
X87630000Y-64516000D03*
X87630000Y-63496000D03*
D53*
X86925000Y-84950000D03*
X88325000Y-84950000D03*
X88325000Y-83850000D03*
X86925000Y-83850000D03*
D45*
X92310000Y-92500000D03*
X91290000Y-92500000D03*
D42*
X74825000Y-80200000D03*
D36*
X86904328Y-72602000D03*
X87924328Y-72602000D03*
D54*
X73010000Y-96860000D03*
D55*
X73010000Y-95590000D03*
D35*
X77991000Y-81788000D03*
X76441000Y-81788000D03*
D56*
X70945000Y-103400000D03*
X70945000Y-99800000D03*
X69505000Y-103400000D03*
X69505000Y-99800000D03*
D57*
X86845000Y-86500000D03*
X87805000Y-86500000D03*
D17*
X78350000Y-71725000D03*
X78350000Y-68425000D03*
D39*
X75990000Y-92180000D03*
X75030000Y-92180000D03*
D58*
X84000000Y-101925000D03*
X84000000Y-100375000D03*
D57*
X73412164Y-84750000D03*
X74372164Y-84750000D03*
D58*
X93740000Y-100805000D03*
X93740000Y-99255000D03*
D45*
X71660000Y-84500000D03*
X70640000Y-84500000D03*
D59*
X100400000Y-80265000D03*
X100400000Y-81285000D03*
D60*
X86215000Y-88025000D03*
X87185000Y-88025000D03*
D61*
X76632500Y-108712000D03*
X78207500Y-108712000D03*
D62*
X76050000Y-85800000D03*
X76050000Y-86200000D03*
X76050000Y-86600000D03*
X76050000Y-87000000D03*
X76050000Y-87400000D03*
X76050000Y-87800000D03*
X76050000Y-88200000D03*
X76050000Y-88600000D03*
X76050000Y-89000000D03*
X76050000Y-89400000D03*
X76050000Y-89800000D03*
X76050000Y-90200000D03*
D63*
X76800000Y-90950000D03*
X77200000Y-90950000D03*
X77600000Y-90950000D03*
X78000000Y-90950000D03*
X78400000Y-90950000D03*
X78800000Y-90950000D03*
X79200000Y-90950000D03*
X79600000Y-90950000D03*
X80000000Y-90950000D03*
X80400000Y-90950000D03*
X80800000Y-90950000D03*
X81200000Y-90950000D03*
D62*
X81950000Y-90200000D03*
X81950000Y-89800000D03*
X81950000Y-89400000D03*
X81950000Y-89000000D03*
X81950000Y-88600000D03*
X81950000Y-88200000D03*
X81950000Y-87800000D03*
X81950000Y-87400000D03*
X81950000Y-87000000D03*
X81950000Y-86600000D03*
X81950000Y-86200000D03*
X81950000Y-85800000D03*
D63*
X81200000Y-85050000D03*
X80800000Y-85050000D03*
X80400000Y-85050000D03*
X80000000Y-85050000D03*
X79600000Y-85050000D03*
X79200000Y-85050000D03*
X78800000Y-85050000D03*
X78400000Y-85050000D03*
X78000000Y-85050000D03*
X77600000Y-85050000D03*
X77200000Y-85050000D03*
X76800000Y-85050000D03*
D64*
X79000000Y-88000000D03*
D39*
X84520000Y-86025000D03*
X85480000Y-86025000D03*
D65*
X98375000Y-81775000D03*
X94225000Y-81775000D03*
X98375000Y-79625000D03*
X94225000Y-79625000D03*
D66*
X71220000Y-88690000D03*
X71220000Y-86190000D03*
D42*
X83200000Y-68750000D03*
D67*
X77940000Y-99252500D03*
X77940000Y-97127500D03*
D52*
X74150000Y-103760000D03*
X74150000Y-102740000D03*
D19*
X79900000Y-96540000D03*
X81800000Y-96540000D03*
D68*
X89712500Y-91300000D03*
X89712500Y-90800000D03*
X89712500Y-90300000D03*
X89712500Y-89800000D03*
D69*
X89200000Y-89787500D03*
X88700000Y-89787500D03*
D68*
X88187500Y-89800000D03*
X88187500Y-90300000D03*
X88187500Y-90800000D03*
X88187500Y-91300000D03*
D69*
X88700000Y-91312500D03*
X89200000Y-91312500D03*
D70*
X93202000Y-66654000D03*
D71*
X91202000Y-66654000D03*
D59*
X100025000Y-82865000D03*
X100025000Y-83885000D03*
D72*
X98425000Y-84395000D03*
X97155000Y-84395000D03*
X95885000Y-84395000D03*
X94615000Y-84395000D03*
X94615000Y-91595000D03*
X95885000Y-91595000D03*
X97155000Y-91595000D03*
X98425000Y-91595000D03*
D34*
X100075000Y-100075000D03*
X100075000Y-101625000D03*
D73*
X82642000Y-104314000D03*
X83142000Y-104314000D03*
X83642000Y-104314000D03*
X84142000Y-104314000D03*
X84642000Y-104314000D03*
X85142000Y-104314000D03*
X85642000Y-104314000D03*
X86142000Y-104314000D03*
X86642000Y-104314000D03*
X87142000Y-104314000D03*
X87642000Y-104314000D03*
X88142000Y-104314000D03*
X88642000Y-104314000D03*
X89142000Y-104314000D03*
X89642000Y-104314000D03*
X90142000Y-104314000D03*
X90642000Y-104314000D03*
X91142000Y-104314000D03*
X91642000Y-104314000D03*
X92142000Y-104314000D03*
X92642000Y-104314000D03*
X93142000Y-104314000D03*
X93642000Y-104314000D03*
X94142000Y-104314000D03*
D74*
X95812000Y-106014000D03*
X80972000Y-106014000D03*
D58*
X75750000Y-96715000D03*
X75750000Y-95165000D03*
D21*
X85610000Y-83360000D03*
X85610000Y-84320000D03*
D45*
X78220000Y-105050000D03*
X77200000Y-105050000D03*
D58*
X91815000Y-101755000D03*
X91815000Y-100205000D03*
D37*
X97355000Y-94220000D03*
X98905000Y-94220000D03*
D52*
X73350000Y-93070000D03*
X73350000Y-92050000D03*
D42*
X91050000Y-80600000D03*
D38*
X73290000Y-86880000D03*
X73290000Y-85920000D03*
D43*
X71628000Y-62738000D03*
D75*
X77927500Y-103110000D03*
X77927500Y-101210000D03*
X76052500Y-102160000D03*
D21*
X73320000Y-87980000D03*
X73320000Y-88940000D03*
D76*
X71700000Y-90712500D03*
X69800000Y-90712500D03*
X70750000Y-92587500D03*
D77*
X92512500Y-72925000D03*
X92512500Y-74825000D03*
X94387500Y-73875000D03*
D78*
X70450000Y-75450000D03*
X72750000Y-75450000D03*
X75050000Y-75450000D03*
D79*
X72750000Y-69150000D03*
D36*
X92415000Y-71500000D03*
X93435000Y-71500000D03*
D59*
X102100000Y-102140000D03*
X102100000Y-103160000D03*
D58*
X85975000Y-67150000D03*
X85975000Y-65600000D03*
D43*
X103886000Y-106934000D03*
D21*
X84950000Y-87145000D03*
X84950000Y-88105000D03*
D43*
X71628000Y-106934000D03*
D44*
X104580000Y-99350000D03*
X104580000Y-102950000D03*
X106020000Y-99350000D03*
X106020000Y-102950000D03*
D21*
X83200000Y-83195000D03*
X83200000Y-84155000D03*
D37*
X99025000Y-104175000D03*
X100575000Y-104175000D03*
D58*
X90375000Y-71000000D03*
X90375000Y-69450000D03*
D37*
X96075000Y-101525000D03*
X97625000Y-101525000D03*
D58*
X77850000Y-76125000D03*
X77850000Y-74575000D03*
X89915000Y-101755000D03*
X89915000Y-100205000D03*
D56*
X70945000Y-82318000D03*
X70945000Y-78718000D03*
X69505000Y-82318000D03*
X69505000Y-78718000D03*
D80*
X82160000Y-100050000D03*
X80260000Y-100050000D03*
M02*
