G04 #@! TF.GenerationSoftware,KiCad,Pcbnew,(6.0.10)*
G04 #@! TF.CreationDate,2023-03-04T03:17:19-05:00*
G04 #@! TF.ProjectId,SmartWatch,536d6172-7457-4617-9463-682e6b696361,rev?*
G04 #@! TF.SameCoordinates,Original*
G04 #@! TF.FileFunction,Copper,L1,Top*
G04 #@! TF.FilePolarity,Positive*
%FSLAX46Y46*%
G04 Gerber Fmt 4.6, Leading zero omitted, Abs format (unit mm)*
G04 Created by KiCad (PCBNEW (6.0.10)) date 2023-03-04 03:17:19*
%MOMM*%
%LPD*%
G01*
G04 APERTURE LIST*
G04 Aperture macros list*
%AMRoundRect*
0 Rectangle with rounded corners*
0 $1 Rounding radius*
0 $2 $3 $4 $5 $6 $7 $8 $9 X,Y pos of 4 corners*
0 Add a 4 corners polygon primitive as box body*
4,1,4,$2,$3,$4,$5,$6,$7,$8,$9,$2,$3,0*
0 Add four circle primitives for the rounded corners*
1,1,$1+$1,$2,$3*
1,1,$1+$1,$4,$5*
1,1,$1+$1,$6,$7*
1,1,$1+$1,$8,$9*
0 Add four rect primitives between the rounded corners*
20,1,$1+$1,$2,$3,$4,$5,0*
20,1,$1+$1,$4,$5,$6,$7,0*
20,1,$1+$1,$6,$7,$8,$9,0*
20,1,$1+$1,$8,$9,$2,$3,0*%
G04 Aperture macros list end*
G04 #@! TA.AperFunction,SMDPad,CuDef*
%ADD10R,0.900000X1.200000*%
G04 #@! TD*
G04 #@! TA.AperFunction,SMDPad,CuDef*
%ADD11R,1.200000X0.900000*%
G04 #@! TD*
G04 #@! TA.AperFunction,SMDPad,CuDef*
%ADD12RoundRect,0.200000X-0.200000X-0.275000X0.200000X-0.275000X0.200000X0.275000X-0.200000X0.275000X0*%
G04 #@! TD*
G04 #@! TA.AperFunction,SMDPad,CuDef*
%ADD13RoundRect,0.250000X-0.250000X-0.475000X0.250000X-0.475000X0.250000X0.475000X-0.250000X0.475000X0*%
G04 #@! TD*
G04 #@! TA.AperFunction,SMDPad,CuDef*
%ADD14RoundRect,0.150000X0.512500X0.150000X-0.512500X0.150000X-0.512500X-0.150000X0.512500X-0.150000X0*%
G04 #@! TD*
G04 #@! TA.AperFunction,SMDPad,CuDef*
%ADD15RoundRect,0.140000X-0.170000X0.140000X-0.170000X-0.140000X0.170000X-0.140000X0.170000X0.140000X0*%
G04 #@! TD*
G04 #@! TA.AperFunction,SMDPad,CuDef*
%ADD16R,0.254000X2.300000*%
G04 #@! TD*
G04 #@! TA.AperFunction,SMDPad,CuDef*
%ADD17R,3.200000X0.254000*%
G04 #@! TD*
G04 #@! TA.AperFunction,SMDPad,CuDef*
%ADD18R,0.254000X2.200000*%
G04 #@! TD*
G04 #@! TA.AperFunction,SMDPad,CuDef*
%ADD19R,5.000000X0.254000*%
G04 #@! TD*
G04 #@! TA.AperFunction,SMDPad,CuDef*
%ADD20R,0.254000X2.250000*%
G04 #@! TD*
G04 #@! TA.AperFunction,SMDPad,CuDef*
%ADD21R,0.254000X2.150000*%
G04 #@! TD*
G04 #@! TA.AperFunction,SMDPad,CuDef*
%ADD22R,0.254000X2.500000*%
G04 #@! TD*
G04 #@! TA.AperFunction,SMDPad,CuDef*
%ADD23R,0.254000X0.900000*%
G04 #@! TD*
G04 #@! TA.AperFunction,SMDPad,CuDef*
%ADD24R,0.900000X0.254000*%
G04 #@! TD*
G04 #@! TA.AperFunction,SMDPad,CuDef*
%ADD25R,3.100000X3.100000*%
G04 #@! TD*
G04 #@! TA.AperFunction,SMDPad,CuDef*
%ADD26RoundRect,0.225000X-0.250000X0.225000X-0.250000X-0.225000X0.250000X-0.225000X0.250000X0.225000X0*%
G04 #@! TD*
G04 #@! TA.AperFunction,SMDPad,CuDef*
%ADD27RoundRect,0.225000X0.225000X0.250000X-0.225000X0.250000X-0.225000X-0.250000X0.225000X-0.250000X0*%
G04 #@! TD*
G04 #@! TA.AperFunction,SMDPad,CuDef*
%ADD28RoundRect,0.135000X-0.135000X-0.185000X0.135000X-0.185000X0.135000X0.185000X-0.135000X0.185000X0*%
G04 #@! TD*
G04 #@! TA.AperFunction,SMDPad,CuDef*
%ADD29RoundRect,0.225000X-0.225000X-0.250000X0.225000X-0.250000X0.225000X0.250000X-0.225000X0.250000X0*%
G04 #@! TD*
G04 #@! TA.AperFunction,SMDPad,CuDef*
%ADD30RoundRect,0.140000X0.170000X-0.140000X0.170000X0.140000X-0.170000X0.140000X-0.170000X-0.140000X0*%
G04 #@! TD*
G04 #@! TA.AperFunction,SMDPad,CuDef*
%ADD31RoundRect,0.140000X0.140000X0.170000X-0.140000X0.170000X-0.140000X-0.170000X0.140000X-0.170000X0*%
G04 #@! TD*
G04 #@! TA.AperFunction,ComponentPad*
%ADD32R,1.700000X1.700000*%
G04 #@! TD*
G04 #@! TA.AperFunction,ComponentPad*
%ADD33O,1.700000X1.700000*%
G04 #@! TD*
G04 #@! TA.AperFunction,SMDPad,CuDef*
%ADD34C,1.000000*%
G04 #@! TD*
G04 #@! TA.AperFunction,ComponentPad*
%ADD35C,4.400000*%
G04 #@! TD*
G04 #@! TA.AperFunction,SMDPad,CuDef*
%ADD36R,1.050000X1.400000*%
G04 #@! TD*
G04 #@! TA.AperFunction,SMDPad,CuDef*
%ADD37RoundRect,0.135000X0.135000X0.185000X-0.135000X0.185000X-0.135000X-0.185000X0.135000X-0.185000X0*%
G04 #@! TD*
G04 #@! TA.AperFunction,SMDPad,CuDef*
%ADD38RoundRect,0.218750X0.218750X0.256250X-0.218750X0.256250X-0.218750X-0.256250X0.218750X-0.256250X0*%
G04 #@! TD*
G04 #@! TA.AperFunction,SMDPad,CuDef*
%ADD39R,0.400000X1.350000*%
G04 #@! TD*
G04 #@! TA.AperFunction,SMDPad,CuDef*
%ADD40R,1.600000X1.400000*%
G04 #@! TD*
G04 #@! TA.AperFunction,SMDPad,CuDef*
%ADD41R,1.900000X1.900000*%
G04 #@! TD*
G04 #@! TA.AperFunction,ComponentPad*
%ADD42O,0.900000X1.800000*%
G04 #@! TD*
G04 #@! TA.AperFunction,SMDPad,CuDef*
%ADD43RoundRect,0.135000X0.185000X-0.135000X0.185000X0.135000X-0.185000X0.135000X-0.185000X-0.135000X0*%
G04 #@! TD*
G04 #@! TA.AperFunction,SMDPad,CuDef*
%ADD44R,0.900000X0.800000*%
G04 #@! TD*
G04 #@! TA.AperFunction,ComponentPad*
%ADD45R,1.000000X1.000000*%
G04 #@! TD*
G04 #@! TA.AperFunction,ComponentPad*
%ADD46O,1.000000X1.000000*%
G04 #@! TD*
G04 #@! TA.AperFunction,SMDPad,CuDef*
%ADD47RoundRect,0.140000X-0.140000X-0.170000X0.140000X-0.170000X0.140000X0.170000X-0.140000X0.170000X0*%
G04 #@! TD*
G04 #@! TA.AperFunction,SMDPad,CuDef*
%ADD48RoundRect,0.225000X0.250000X-0.225000X0.250000X0.225000X-0.250000X0.225000X-0.250000X-0.225000X0*%
G04 #@! TD*
G04 #@! TA.AperFunction,SMDPad,CuDef*
%ADD49RoundRect,0.135000X-0.185000X0.135000X-0.185000X-0.135000X0.185000X-0.135000X0.185000X0.135000X0*%
G04 #@! TD*
G04 #@! TA.AperFunction,SMDPad,CuDef*
%ADD50RoundRect,0.147500X-0.147500X-0.172500X0.147500X-0.172500X0.147500X0.172500X-0.147500X0.172500X0*%
G04 #@! TD*
G04 #@! TA.AperFunction,SMDPad,CuDef*
%ADD51RoundRect,0.218750X-0.218750X-0.256250X0.218750X-0.256250X0.218750X0.256250X-0.218750X0.256250X0*%
G04 #@! TD*
G04 #@! TA.AperFunction,SMDPad,CuDef*
%ADD52RoundRect,0.050000X-0.350000X-0.050000X0.350000X-0.050000X0.350000X0.050000X-0.350000X0.050000X0*%
G04 #@! TD*
G04 #@! TA.AperFunction,SMDPad,CuDef*
%ADD53RoundRect,0.050000X-0.050000X-0.350000X0.050000X-0.350000X0.050000X0.350000X-0.050000X0.350000X0*%
G04 #@! TD*
G04 #@! TA.AperFunction,SMDPad,CuDef*
%ADD54R,4.600000X4.600000*%
G04 #@! TD*
G04 #@! TA.AperFunction,SMDPad,CuDef*
%ADD55R,1.050000X0.650000*%
G04 #@! TD*
G04 #@! TA.AperFunction,SMDPad,CuDef*
%ADD56R,1.800000X1.000000*%
G04 #@! TD*
G04 #@! TA.AperFunction,SMDPad,CuDef*
%ADD57RoundRect,0.218750X0.381250X-0.218750X0.381250X0.218750X-0.381250X0.218750X-0.381250X-0.218750X0*%
G04 #@! TD*
G04 #@! TA.AperFunction,SMDPad,CuDef*
%ADD58R,0.375000X0.350000*%
G04 #@! TD*
G04 #@! TA.AperFunction,SMDPad,CuDef*
%ADD59R,0.350000X0.375000*%
G04 #@! TD*
G04 #@! TA.AperFunction,ComponentPad*
%ADD60RoundRect,0.250000X0.350000X0.625000X-0.350000X0.625000X-0.350000X-0.625000X0.350000X-0.625000X0*%
G04 #@! TD*
G04 #@! TA.AperFunction,ComponentPad*
%ADD61O,1.200000X1.750000*%
G04 #@! TD*
G04 #@! TA.AperFunction,SMDPad,CuDef*
%ADD62RoundRect,0.150000X-0.150000X0.650000X-0.150000X-0.650000X0.150000X-0.650000X0.150000X0.650000X0*%
G04 #@! TD*
G04 #@! TA.AperFunction,SMDPad,CuDef*
%ADD63R,0.300000X1.100000*%
G04 #@! TD*
G04 #@! TA.AperFunction,SMDPad,CuDef*
%ADD64R,2.300000X3.100000*%
G04 #@! TD*
G04 #@! TA.AperFunction,SMDPad,CuDef*
%ADD65RoundRect,0.150000X0.587500X0.150000X-0.587500X0.150000X-0.587500X-0.150000X0.587500X-0.150000X0*%
G04 #@! TD*
G04 #@! TA.AperFunction,SMDPad,CuDef*
%ADD66RoundRect,0.150000X-0.150000X0.587500X-0.150000X-0.587500X0.150000X-0.587500X0.150000X0.587500X0*%
G04 #@! TD*
G04 #@! TA.AperFunction,SMDPad,CuDef*
%ADD67RoundRect,0.150000X-0.587500X-0.150000X0.587500X-0.150000X0.587500X0.150000X-0.587500X0.150000X0*%
G04 #@! TD*
G04 #@! TA.AperFunction,SMDPad,CuDef*
%ADD68R,1.500000X2.000000*%
G04 #@! TD*
G04 #@! TA.AperFunction,SMDPad,CuDef*
%ADD69R,3.800000X2.000000*%
G04 #@! TD*
G04 #@! TA.AperFunction,SMDPad,CuDef*
%ADD70RoundRect,0.250000X0.250000X0.475000X-0.250000X0.475000X-0.250000X-0.475000X0.250000X-0.475000X0*%
G04 #@! TD*
G04 #@! TA.AperFunction,ViaPad*
%ADD71C,0.600000*%
G04 #@! TD*
G04 #@! TA.AperFunction,Conductor*
%ADD72C,0.300000*%
G04 #@! TD*
G04 #@! TA.AperFunction,Conductor*
%ADD73C,0.400000*%
G04 #@! TD*
G04 #@! TA.AperFunction,Conductor*
%ADD74C,1.000000*%
G04 #@! TD*
G04 #@! TA.AperFunction,Conductor*
%ADD75C,0.200000*%
G04 #@! TD*
G04 #@! TA.AperFunction,Conductor*
%ADD76C,0.254000*%
G04 #@! TD*
G04 APERTURE END LIST*
D10*
X86994000Y-94996000D03*
X83694000Y-94996000D03*
X93090000Y-97028000D03*
X89790000Y-97028000D03*
X84202000Y-97790000D03*
X87502000Y-97790000D03*
D11*
X69850000Y-97916000D03*
X69850000Y-94616000D03*
D12*
X76165000Y-106930000D03*
X77815000Y-106930000D03*
D13*
X73075000Y-78075000D03*
X74975000Y-78075000D03*
D14*
X87751500Y-71054000D03*
X87751500Y-70104000D03*
X87751500Y-69154000D03*
X85476500Y-69154000D03*
X85476500Y-71054000D03*
D15*
X97560000Y-75970000D03*
X97560000Y-76930000D03*
D16*
X100174000Y-73700000D03*
D17*
X101649000Y-74725000D03*
D18*
X100174000Y-69700000D03*
D19*
X100749000Y-76975000D03*
D17*
X101649000Y-70675000D03*
D20*
X103124000Y-71675000D03*
D17*
X101649000Y-66825000D03*
X101649000Y-68725000D03*
D21*
X103124000Y-67775000D03*
D22*
X103124000Y-75850000D03*
D17*
X101649000Y-72675000D03*
D23*
X85890000Y-73990000D03*
X85390000Y-73990000D03*
X84890000Y-73990000D03*
X84390000Y-73990000D03*
X83890000Y-73990000D03*
X83390000Y-73990000D03*
X82890000Y-73990000D03*
D24*
X81800000Y-75080000D03*
X81800000Y-75580000D03*
X81800000Y-76080000D03*
X81800000Y-76580000D03*
X81800000Y-77080000D03*
X81800000Y-77580000D03*
X81800000Y-78080000D03*
D23*
X82890000Y-79170000D03*
X83390000Y-79170000D03*
X83890000Y-79170000D03*
X84390000Y-79170000D03*
X84890000Y-79170000D03*
X85390000Y-79170000D03*
X85890000Y-79170000D03*
D24*
X86980000Y-78080000D03*
X86980000Y-77580000D03*
X86980000Y-77080000D03*
X86980000Y-76580000D03*
X86980000Y-76080000D03*
X86980000Y-75580000D03*
X86980000Y-75080000D03*
D25*
X84390000Y-76580000D03*
D26*
X80200000Y-75745000D03*
X80200000Y-77295000D03*
X82640000Y-70885000D03*
X82640000Y-72435000D03*
D27*
X81035000Y-73830000D03*
X79485000Y-73830000D03*
D28*
X101290000Y-79075000D03*
X102310000Y-79075000D03*
D29*
X95875000Y-99125000D03*
X97425000Y-99125000D03*
D30*
X86850000Y-91280000D03*
X86850000Y-90320000D03*
D31*
X87680000Y-92500000D03*
X86720000Y-92500000D03*
D32*
X105100000Y-96000000D03*
D33*
X102560000Y-96000000D03*
X105100000Y-93460000D03*
X102560000Y-93460000D03*
X105100000Y-90920000D03*
X102560000Y-90920000D03*
X105100000Y-88380000D03*
X102560000Y-88380000D03*
X105100000Y-85840000D03*
X102560000Y-85840000D03*
D34*
X92400000Y-70000000D03*
D35*
X103886000Y-62738000D03*
D36*
X104580000Y-79250000D03*
X104580000Y-82850000D03*
X106020000Y-79250000D03*
X106020000Y-82850000D03*
D37*
X87610000Y-101940000D03*
X86590000Y-101940000D03*
D34*
X77500000Y-66500000D03*
D38*
X87612500Y-61075000D03*
X86037500Y-61075000D03*
D28*
X87190000Y-100200000D03*
X88210000Y-100200000D03*
X80460000Y-102320000D03*
X81480000Y-102320000D03*
D29*
X73200000Y-83150000D03*
X74750000Y-83150000D03*
D39*
X81926000Y-64143000D03*
X81276000Y-64143000D03*
X80626000Y-64143000D03*
X79976000Y-64143000D03*
X79326000Y-64143000D03*
D40*
X83826000Y-63918000D03*
X77426000Y-63918000D03*
D41*
X79426000Y-61468000D03*
X81826000Y-61468000D03*
D42*
X83926000Y-61468000D03*
X77326000Y-61468000D03*
D43*
X87630000Y-64516000D03*
X87630000Y-63496000D03*
D44*
X86925000Y-84950000D03*
X88325000Y-84950000D03*
X88325000Y-83850000D03*
X86925000Y-83850000D03*
D37*
X92310000Y-92500000D03*
X91290000Y-92500000D03*
D34*
X74825000Y-80200000D03*
D28*
X86904328Y-72602000D03*
X87924328Y-72602000D03*
D45*
X73010000Y-96860000D03*
D46*
X73010000Y-95590000D03*
D27*
X77991000Y-81788000D03*
X76441000Y-81788000D03*
D36*
X70945000Y-103400000D03*
X70945000Y-99800000D03*
X69505000Y-103400000D03*
X69505000Y-99800000D03*
D47*
X86845000Y-86500000D03*
X87805000Y-86500000D03*
D11*
X78350000Y-71725000D03*
X78350000Y-68425000D03*
D31*
X75990000Y-92180000D03*
X75030000Y-92180000D03*
D48*
X84000000Y-101925000D03*
X84000000Y-100375000D03*
D47*
X73412164Y-84750000D03*
X74372164Y-84750000D03*
D48*
X93740000Y-100805000D03*
X93740000Y-99255000D03*
D37*
X71660000Y-84500000D03*
X70640000Y-84500000D03*
D49*
X100400000Y-80265000D03*
X100400000Y-81285000D03*
D50*
X86215000Y-88025000D03*
X87185000Y-88025000D03*
D51*
X76632500Y-108712000D03*
X78207500Y-108712000D03*
D52*
X76050000Y-85800000D03*
X76050000Y-86200000D03*
X76050000Y-86600000D03*
X76050000Y-87000000D03*
X76050000Y-87400000D03*
X76050000Y-87800000D03*
X76050000Y-88200000D03*
X76050000Y-88600000D03*
X76050000Y-89000000D03*
X76050000Y-89400000D03*
X76050000Y-89800000D03*
X76050000Y-90200000D03*
D53*
X76800000Y-90950000D03*
X77200000Y-90950000D03*
X77600000Y-90950000D03*
X78000000Y-90950000D03*
X78400000Y-90950000D03*
X78800000Y-90950000D03*
X79200000Y-90950000D03*
X79600000Y-90950000D03*
X80000000Y-90950000D03*
X80400000Y-90950000D03*
X80800000Y-90950000D03*
X81200000Y-90950000D03*
D52*
X81950000Y-90200000D03*
X81950000Y-89800000D03*
X81950000Y-89400000D03*
X81950000Y-89000000D03*
X81950000Y-88600000D03*
X81950000Y-88200000D03*
X81950000Y-87800000D03*
X81950000Y-87400000D03*
X81950000Y-87000000D03*
X81950000Y-86600000D03*
X81950000Y-86200000D03*
X81950000Y-85800000D03*
D53*
X81200000Y-85050000D03*
X80800000Y-85050000D03*
X80400000Y-85050000D03*
X80000000Y-85050000D03*
X79600000Y-85050000D03*
X79200000Y-85050000D03*
X78800000Y-85050000D03*
X78400000Y-85050000D03*
X78000000Y-85050000D03*
X77600000Y-85050000D03*
X77200000Y-85050000D03*
X76800000Y-85050000D03*
D54*
X79000000Y-88000000D03*
D31*
X84520000Y-86025000D03*
X85480000Y-86025000D03*
D55*
X98375000Y-81775000D03*
X94225000Y-81775000D03*
X98375000Y-79625000D03*
X94225000Y-79625000D03*
D56*
X71220000Y-88690000D03*
X71220000Y-86190000D03*
D34*
X83200000Y-68750000D03*
D57*
X77940000Y-99252500D03*
X77940000Y-97127500D03*
D43*
X74150000Y-103760000D03*
X74150000Y-102740000D03*
D13*
X79900000Y-96540000D03*
X81800000Y-96540000D03*
D58*
X89712500Y-91300000D03*
X89712500Y-90800000D03*
X89712500Y-90300000D03*
X89712500Y-89800000D03*
D59*
X89200000Y-89787500D03*
X88700000Y-89787500D03*
D58*
X88187500Y-89800000D03*
X88187500Y-90300000D03*
X88187500Y-90800000D03*
X88187500Y-91300000D03*
D59*
X88700000Y-91312500D03*
X89200000Y-91312500D03*
D60*
X93202000Y-66654000D03*
D61*
X91202000Y-66654000D03*
D49*
X100025000Y-82865000D03*
X100025000Y-83885000D03*
D62*
X98425000Y-84395000D03*
X97155000Y-84395000D03*
X95885000Y-84395000D03*
X94615000Y-84395000D03*
X94615000Y-91595000D03*
X95885000Y-91595000D03*
X97155000Y-91595000D03*
X98425000Y-91595000D03*
D26*
X100075000Y-100075000D03*
X100075000Y-101625000D03*
D63*
X82642000Y-104314000D03*
X83142000Y-104314000D03*
X83642000Y-104314000D03*
X84142000Y-104314000D03*
X84642000Y-104314000D03*
X85142000Y-104314000D03*
X85642000Y-104314000D03*
X86142000Y-104314000D03*
X86642000Y-104314000D03*
X87142000Y-104314000D03*
X87642000Y-104314000D03*
X88142000Y-104314000D03*
X88642000Y-104314000D03*
X89142000Y-104314000D03*
X89642000Y-104314000D03*
X90142000Y-104314000D03*
X90642000Y-104314000D03*
X91142000Y-104314000D03*
X91642000Y-104314000D03*
X92142000Y-104314000D03*
X92642000Y-104314000D03*
X93142000Y-104314000D03*
X93642000Y-104314000D03*
X94142000Y-104314000D03*
D64*
X95812000Y-106014000D03*
X80972000Y-106014000D03*
D48*
X75750000Y-96715000D03*
X75750000Y-95165000D03*
D15*
X85610000Y-83360000D03*
X85610000Y-84320000D03*
D37*
X78220000Y-105050000D03*
X77200000Y-105050000D03*
D48*
X91815000Y-101755000D03*
X91815000Y-100205000D03*
D29*
X97355000Y-94220000D03*
X98905000Y-94220000D03*
D43*
X73350000Y-93070000D03*
X73350000Y-92050000D03*
D34*
X91050000Y-80600000D03*
D30*
X73290000Y-86880000D03*
X73290000Y-85920000D03*
D35*
X71628000Y-62738000D03*
D65*
X77927500Y-103110000D03*
X77927500Y-101210000D03*
X76052500Y-102160000D03*
D15*
X73320000Y-87980000D03*
X73320000Y-88940000D03*
D66*
X71700000Y-90712500D03*
X69800000Y-90712500D03*
X70750000Y-92587500D03*
D67*
X92512500Y-72925000D03*
X92512500Y-74825000D03*
X94387500Y-73875000D03*
D68*
X70450000Y-75450000D03*
X72750000Y-75450000D03*
X75050000Y-75450000D03*
D69*
X72750000Y-69150000D03*
D28*
X92415000Y-71500000D03*
X93435000Y-71500000D03*
D49*
X102100000Y-102140000D03*
X102100000Y-103160000D03*
D48*
X85975000Y-67150000D03*
X85975000Y-65600000D03*
D35*
X103886000Y-106934000D03*
D15*
X84950000Y-87145000D03*
X84950000Y-88105000D03*
D35*
X71628000Y-106934000D03*
D36*
X104580000Y-99350000D03*
X104580000Y-102950000D03*
X106020000Y-99350000D03*
X106020000Y-102950000D03*
D15*
X83200000Y-83195000D03*
X83200000Y-84155000D03*
D29*
X99025000Y-104175000D03*
X100575000Y-104175000D03*
D48*
X90375000Y-71000000D03*
X90375000Y-69450000D03*
D29*
X96075000Y-101525000D03*
X97625000Y-101525000D03*
D48*
X77850000Y-76125000D03*
X77850000Y-74575000D03*
X89915000Y-101755000D03*
X89915000Y-100205000D03*
D36*
X70945000Y-82318000D03*
X70945000Y-78718000D03*
X69505000Y-82318000D03*
X69505000Y-78718000D03*
D70*
X82160000Y-100050000D03*
X80260000Y-100050000D03*
D71*
X96670000Y-75050000D03*
X91100000Y-73200000D03*
X89300000Y-75000000D03*
X93530510Y-83162688D03*
X102400000Y-80550000D03*
X100425000Y-78650000D03*
X89175000Y-85600000D03*
X83975000Y-83250000D03*
X84625000Y-84450000D03*
X92290000Y-87030000D03*
X80229266Y-87629266D03*
X88270000Y-80660000D03*
X89830000Y-75750000D03*
X88610000Y-76480500D03*
X85940000Y-80720000D03*
X80055734Y-72599500D03*
X81420000Y-71910000D03*
X81375750Y-71042782D03*
X84489500Y-72110000D03*
X79975000Y-70075000D03*
X81809501Y-68000000D03*
X75200000Y-67300000D03*
X78466292Y-65167238D03*
X76970000Y-77160000D03*
X95116738Y-85823007D03*
X85850242Y-100826974D03*
X77540000Y-86510000D03*
X77460000Y-89610000D03*
X86075000Y-64275000D03*
X74240000Y-86010000D03*
X80600000Y-89830000D03*
X85517807Y-91097638D03*
X82620500Y-98170500D03*
X97600000Y-102650000D03*
X74150000Y-88650000D03*
X77050000Y-92300000D03*
X94170378Y-98339622D03*
X75000000Y-73400000D03*
X92180000Y-98850000D03*
X101360000Y-101300000D03*
X82690000Y-93370000D03*
X98410000Y-89860000D03*
X82450000Y-90899500D03*
X101140000Y-82450000D03*
X84640000Y-106030000D03*
X73900000Y-90360000D03*
X86190000Y-106760000D03*
X77988818Y-93697334D03*
X87600000Y-106620000D03*
X78270000Y-94960000D03*
X88710000Y-106470000D03*
X79460000Y-94710000D03*
X89828941Y-106555540D03*
X95850000Y-94320000D03*
X94720000Y-93490000D03*
X84940000Y-90280000D03*
X90800000Y-106010000D03*
X92200500Y-90450000D03*
X94720000Y-89670000D03*
X96290000Y-96030000D03*
X91920000Y-83690000D03*
X102180000Y-99340000D03*
X82050000Y-83400000D03*
X69500000Y-87210000D03*
X75009500Y-87950000D03*
X81100000Y-84075000D03*
X99830000Y-87090000D03*
X80453650Y-94818005D03*
X90550000Y-92300000D03*
X81750000Y-94580000D03*
X91150000Y-93450000D03*
X91600000Y-91000500D03*
X86730000Y-89500000D03*
X95300000Y-88260000D03*
X90750000Y-89350000D03*
X84020000Y-92780000D03*
X89283225Y-92611688D03*
X88530000Y-92120000D03*
X83500378Y-91949622D03*
X75800000Y-85200500D03*
X77028739Y-93299277D03*
X96160000Y-86850000D03*
X86170000Y-99880000D03*
X82400000Y-85200000D03*
X96470000Y-81070000D03*
X98220000Y-95530000D03*
X100910000Y-98510000D03*
X69970000Y-96330000D03*
X81420000Y-98170000D03*
X97010000Y-89070000D03*
X69620000Y-84290000D03*
X72860000Y-90329500D03*
X75410000Y-106200000D03*
D72*
X73660000Y-106934000D02*
X71628000Y-106934000D01*
X75438000Y-108712000D02*
X73660000Y-106934000D01*
X76632500Y-108712000D02*
X75438000Y-108712000D01*
D73*
X88505000Y-88025000D02*
X88900000Y-87630000D01*
X87185000Y-88025000D02*
X88505000Y-88025000D01*
D74*
X89470000Y-87060000D02*
X88900000Y-87630000D01*
X90200000Y-87060000D02*
X89470000Y-87060000D01*
D75*
X76441000Y-83299000D02*
X76441000Y-81788000D01*
X77600000Y-84458000D02*
X76441000Y-83299000D01*
X77600000Y-85050000D02*
X77600000Y-84458000D01*
D72*
X78000000Y-81797000D02*
X77991000Y-81788000D01*
X78000000Y-84240000D02*
X78000000Y-81797000D01*
X85975000Y-68457000D02*
X85476500Y-68955500D01*
X85476500Y-68955500D02*
X85476500Y-69154000D01*
X85975000Y-67150000D02*
X85975000Y-68457000D01*
X86614000Y-68580000D02*
X86614000Y-70612000D01*
X87056000Y-71054000D02*
X87751500Y-71054000D01*
X86850000Y-68344000D02*
X86614000Y-68580000D01*
X86614000Y-70612000D02*
X87056000Y-71054000D01*
X86850000Y-67920000D02*
X86850000Y-68344000D01*
D73*
X86135000Y-88105000D02*
X86215000Y-88025000D01*
X84950000Y-88105000D02*
X86135000Y-88105000D01*
D72*
X97560000Y-75940000D02*
X96670000Y-75050000D01*
X97560000Y-75970000D02*
X97560000Y-75940000D01*
D76*
X97605000Y-76975000D02*
X100749000Y-76975000D01*
X97560000Y-76930000D02*
X97605000Y-76975000D01*
D74*
X97260000Y-77390000D02*
X97360000Y-77290000D01*
X96330000Y-77390000D02*
X97260000Y-77390000D01*
X93170000Y-77390000D02*
X96330000Y-77390000D01*
D75*
X84250000Y-88900000D02*
X83950000Y-88600000D01*
X89080000Y-89060000D02*
X88920000Y-88900000D01*
X88920000Y-88900000D02*
X84250000Y-88900000D01*
X89210000Y-88930000D02*
X89080000Y-89060000D01*
X83950000Y-88600000D02*
X81950000Y-88600000D01*
X89270000Y-88930000D02*
X89210000Y-88930000D01*
X90050000Y-88150000D02*
X89270000Y-88930000D01*
X90950000Y-88150000D02*
X90050000Y-88150000D01*
D74*
X91050000Y-79510000D02*
X93170000Y-77390000D01*
X91050000Y-80600000D02*
X91050000Y-79510000D01*
X90010000Y-81640000D02*
X91050000Y-80600000D01*
X90010000Y-84280000D02*
X90010000Y-81640000D01*
X90200000Y-87060000D02*
X90460000Y-86800000D01*
X90460000Y-86800000D02*
X90460000Y-84730000D01*
X90460000Y-84730000D02*
X90010000Y-84280000D01*
D75*
X98800000Y-93900000D02*
X98800000Y-93925000D01*
X86825000Y-85050000D02*
X86925000Y-84950000D01*
X84375000Y-85050000D02*
X86825000Y-85050000D01*
D72*
X91375000Y-72925000D02*
X91100000Y-73200000D01*
X92512500Y-72925000D02*
X91375000Y-72925000D01*
X89475000Y-74825000D02*
X89300000Y-75000000D01*
X92512500Y-74825000D02*
X89475000Y-74825000D01*
X94550000Y-73875000D02*
X94387500Y-73875000D01*
X94850000Y-70825000D02*
X94850000Y-73575000D01*
X94850000Y-73575000D02*
X94550000Y-73875000D01*
X92400000Y-70000000D02*
X94025000Y-70000000D01*
X94025000Y-70000000D02*
X94850000Y-70825000D01*
X91150000Y-71000000D02*
X90375000Y-71000000D01*
X91650000Y-71500000D02*
X91150000Y-71000000D01*
X92415000Y-71500000D02*
X91650000Y-71500000D01*
X93550000Y-71615000D02*
X93435000Y-71500000D01*
X93550000Y-72500000D02*
X93550000Y-71615000D01*
X93125000Y-72925000D02*
X93550000Y-72500000D01*
X92512500Y-72925000D02*
X93125000Y-72925000D01*
D75*
X92512500Y-72925000D02*
X92950000Y-72925000D01*
D72*
X93828198Y-82865000D02*
X96635000Y-82865000D01*
X93530510Y-83162688D02*
X93828198Y-82865000D01*
X98375000Y-81775000D02*
X94225000Y-81775000D01*
X100765000Y-80265000D02*
X100400000Y-80265000D01*
X103325000Y-84025000D02*
X102900000Y-83600000D01*
X105725000Y-84025000D02*
X103325000Y-84025000D01*
X102900000Y-83600000D02*
X102900000Y-82400000D01*
X106020000Y-83730000D02*
X105725000Y-84025000D01*
X102900000Y-82400000D02*
X100765000Y-80265000D01*
X106020000Y-82850000D02*
X106020000Y-83730000D01*
X101140000Y-82025000D02*
X100400000Y-81285000D01*
X101140000Y-82450000D02*
X101140000Y-82025000D01*
X100025000Y-82865000D02*
X96635000Y-82865000D01*
X96470000Y-83030000D02*
X96470000Y-83805000D01*
X96635000Y-82865000D02*
X96470000Y-83030000D01*
X102485000Y-79250000D02*
X102310000Y-79075000D01*
X104580000Y-79250000D02*
X102485000Y-79250000D01*
X102400000Y-80550000D02*
X102400000Y-79165000D01*
X102400000Y-79165000D02*
X102310000Y-79075000D01*
X99450000Y-79625000D02*
X100425000Y-78650000D01*
X98375000Y-79625000D02*
X99450000Y-79625000D01*
X94225000Y-79625000D02*
X98375000Y-79625000D01*
X100825000Y-79050000D02*
X100425000Y-78650000D01*
X101215000Y-79050000D02*
X100825000Y-79050000D01*
X99175000Y-81775000D02*
X98375000Y-81775000D01*
X100400000Y-81285000D02*
X99665000Y-81285000D01*
X99665000Y-81285000D02*
X99175000Y-81775000D01*
X99275000Y-80650000D02*
X99660000Y-80265000D01*
X96925000Y-80650000D02*
X99275000Y-80650000D01*
X96505000Y-81070000D02*
X96925000Y-80650000D01*
X99660000Y-80265000D02*
X100400000Y-80265000D01*
X96470000Y-81070000D02*
X96505000Y-81070000D01*
D75*
X99515000Y-84395000D02*
X100025000Y-83885000D01*
X98425000Y-84395000D02*
X99515000Y-84395000D01*
X95885000Y-89915761D02*
X95885000Y-94285000D01*
X94499239Y-88530000D02*
X95885000Y-89915761D01*
X95885000Y-94285000D02*
X95850000Y-94320000D01*
X94440000Y-88530000D02*
X94499239Y-88530000D01*
X94440000Y-86000000D02*
X94440000Y-88530000D01*
X93480000Y-85040000D02*
X94440000Y-86000000D01*
X93480000Y-83960000D02*
X93480000Y-85040000D01*
X92420000Y-82900000D02*
X93480000Y-83960000D01*
X91450000Y-82900000D02*
X92420000Y-82900000D01*
X91900000Y-84550000D02*
X91060000Y-83710000D01*
X92325000Y-85900000D02*
X92325000Y-85350000D01*
X91060000Y-83710000D02*
X91060000Y-83290000D01*
X91690000Y-86535000D02*
X92325000Y-85900000D01*
X91690000Y-87410000D02*
X91690000Y-86535000D01*
X91900000Y-84925000D02*
X91900000Y-84550000D01*
X90950000Y-88150000D02*
X91690000Y-87410000D01*
X91060000Y-83290000D02*
X91450000Y-82900000D01*
X92325000Y-85350000D02*
X91900000Y-84925000D01*
X89175000Y-85575000D02*
X89175000Y-85600000D01*
X89075000Y-85475000D02*
X89175000Y-85575000D01*
X88550000Y-84950000D02*
X89075000Y-85475000D01*
X88325000Y-84950000D02*
X88550000Y-84950000D01*
X86375000Y-83850000D02*
X86925000Y-83850000D01*
X85905000Y-84320000D02*
X86375000Y-83850000D01*
X85610000Y-84320000D02*
X85905000Y-84320000D01*
X87400000Y-82925000D02*
X88325000Y-83850000D01*
X86045000Y-82925000D02*
X87400000Y-82925000D01*
X85610000Y-83360000D02*
X86045000Y-82925000D01*
X87805000Y-85470000D02*
X88325000Y-84950000D01*
X87805000Y-86500000D02*
X87805000Y-85470000D01*
X86845000Y-85030000D02*
X86925000Y-84950000D01*
X86845000Y-86500000D02*
X86845000Y-85030000D01*
X90950000Y-88150000D02*
X91081471Y-88150000D01*
D72*
X92580000Y-84350000D02*
X91920000Y-83690000D01*
X93150000Y-85375000D02*
X92580000Y-84805000D01*
X93150000Y-85750000D02*
X93150000Y-85375000D01*
X93800000Y-86400000D02*
X93150000Y-85750000D01*
X93980000Y-93720000D02*
X93980000Y-92855000D01*
X93980000Y-92855000D02*
X93800000Y-92675000D01*
X92580000Y-84805000D02*
X92580000Y-84350000D01*
X96290000Y-96030000D02*
X93980000Y-93720000D01*
X93800000Y-92675000D02*
X93800000Y-86400000D01*
D75*
X87485343Y-87239657D02*
X87805000Y-86920000D01*
X85485343Y-87239657D02*
X87485343Y-87239657D01*
X87805000Y-86920000D02*
X87805000Y-86500000D01*
X85370000Y-87145000D02*
X85475000Y-87250000D01*
X84950000Y-87145000D02*
X85370000Y-87145000D01*
X85475000Y-87250000D02*
X85485343Y-87239657D01*
X83920000Y-83195000D02*
X83975000Y-83250000D01*
X83200000Y-83195000D02*
X83920000Y-83195000D01*
X84565000Y-83360000D02*
X85610000Y-83360000D01*
X84565000Y-83510000D02*
X84565000Y-83360000D01*
X84000000Y-84075000D02*
X84565000Y-83510000D01*
X84000000Y-84475000D02*
X84000000Y-84075000D01*
X83650000Y-84825000D02*
X84000000Y-84475000D01*
X83150000Y-85000000D02*
X83325000Y-84825000D01*
X83325000Y-84825000D02*
X83650000Y-84825000D01*
X83150000Y-85475000D02*
X83150000Y-85000000D01*
X82540000Y-86085000D02*
X83150000Y-85475000D01*
X82540000Y-86200000D02*
X82540000Y-86085000D01*
X81950000Y-86200000D02*
X82540000Y-86200000D01*
X84150000Y-86475000D02*
X84520000Y-86105000D01*
X84520000Y-86105000D02*
X84520000Y-86025000D01*
X83175000Y-87000000D02*
X83700000Y-86475000D01*
X83700000Y-86475000D02*
X84150000Y-86475000D01*
X81950000Y-87000000D02*
X83175000Y-87000000D01*
X84950000Y-87145000D02*
X85055000Y-87145000D01*
X85055000Y-87145000D02*
X85480000Y-86720000D01*
X85480000Y-86720000D02*
X85480000Y-86025000D01*
X84050000Y-87400000D02*
X84305000Y-87145000D01*
X84305000Y-87145000D02*
X84950000Y-87145000D01*
X82525000Y-87800000D02*
X82925000Y-87400000D01*
X82925000Y-87400000D02*
X84050000Y-87400000D01*
X81950000Y-87800000D02*
X82525000Y-87800000D01*
X82895000Y-88105000D02*
X84950000Y-88105000D01*
X82800000Y-88200000D02*
X82895000Y-88105000D01*
X84755000Y-84320000D02*
X84625000Y-84450000D01*
X85610000Y-84320000D02*
X84755000Y-84320000D01*
X84200000Y-85225000D02*
X84375000Y-85050000D01*
X83925000Y-85225000D02*
X84200000Y-85225000D01*
X83675000Y-85475000D02*
X83925000Y-85225000D01*
X83675000Y-85800000D02*
X83675000Y-85475000D01*
X82875000Y-86600000D02*
X83675000Y-85800000D01*
X81950000Y-86600000D02*
X82875000Y-86600000D01*
X80400000Y-87800000D02*
X80229266Y-87629266D01*
X81950000Y-87800000D02*
X80400000Y-87800000D01*
D72*
X82404622Y-84950378D02*
X83200000Y-84155000D01*
X82404622Y-85234622D02*
X82404622Y-84950378D01*
D75*
X81950000Y-88200000D02*
X82800000Y-88200000D01*
D72*
X92290000Y-87290000D02*
X92290000Y-87030000D01*
X93300000Y-88300000D02*
X92290000Y-87290000D01*
X93300000Y-91700000D02*
X93300000Y-88300000D01*
X92500000Y-92500000D02*
X93300000Y-91700000D01*
X92310000Y-92500000D02*
X92500000Y-92500000D01*
D75*
X86590000Y-89360000D02*
X86730000Y-89500000D01*
X83890000Y-89360000D02*
X86590000Y-89360000D01*
X81950000Y-89000000D02*
X83530000Y-89000000D01*
X83530000Y-89000000D02*
X83890000Y-89360000D01*
X83690000Y-89780000D02*
X84940000Y-89780000D01*
X81950000Y-89400000D02*
X83310000Y-89400000D01*
X83310000Y-89400000D02*
X83690000Y-89780000D01*
X82740000Y-90200000D02*
X81950000Y-90200000D01*
X82740000Y-90200000D02*
X84780000Y-92240000D01*
X79858532Y-88000000D02*
X80229266Y-87629266D01*
X79000000Y-88000000D02*
X79858532Y-88000000D01*
D72*
X84420000Y-65780000D02*
X84420000Y-66590000D01*
X84420000Y-66590000D02*
X85415000Y-66590000D01*
X85125000Y-65075000D02*
X84420000Y-65780000D01*
X83830000Y-66590000D02*
X84420000Y-66590000D01*
X85415000Y-66590000D02*
X85975000Y-67150000D01*
X81926000Y-64686000D02*
X83830000Y-66590000D01*
X81926000Y-64143000D02*
X81926000Y-64686000D01*
D75*
X87830000Y-76080000D02*
X86980000Y-76080000D01*
X88160000Y-75750000D02*
X87830000Y-76080000D01*
X89830000Y-75750000D02*
X88160000Y-75750000D01*
X87030000Y-81900000D02*
X88270000Y-80660000D01*
X86500000Y-81900000D02*
X87030000Y-81900000D01*
X88610000Y-76480500D02*
X88510500Y-76580000D01*
X88510500Y-76580000D02*
X86980000Y-76580000D01*
X85852500Y-80807500D02*
X85940000Y-80720000D01*
X85050500Y-80807500D02*
X85852500Y-80807500D01*
X88910000Y-77080000D02*
X86980000Y-77080000D01*
X89590000Y-80390000D02*
X89590000Y-77760000D01*
X87455000Y-82525000D02*
X89590000Y-80390000D01*
X89590000Y-77760000D02*
X88910000Y-77080000D01*
X81550000Y-82525000D02*
X87455000Y-82525000D01*
X80000000Y-84075000D02*
X81550000Y-82525000D01*
X80000000Y-85050000D02*
X80000000Y-84075000D01*
X88160000Y-77580000D02*
X86980000Y-77580000D01*
X88540000Y-77960000D02*
X88160000Y-77580000D01*
X80975000Y-81450000D02*
X86200000Y-81450000D01*
X86200000Y-81450000D02*
X88540000Y-79110000D01*
X88540000Y-79110000D02*
X88540000Y-77960000D01*
X80375000Y-82050000D02*
X80975000Y-81450000D01*
X80325000Y-82050000D02*
X80375000Y-82050000D01*
X79200000Y-83175000D02*
X80325000Y-82050000D01*
X79200000Y-85050000D02*
X79200000Y-83175000D01*
D72*
X79975000Y-71005000D02*
X79975000Y-70075000D01*
X80460000Y-71490000D02*
X79975000Y-71005000D01*
X80460000Y-72060000D02*
X80460000Y-71490000D01*
X81035000Y-72635000D02*
X80460000Y-72060000D01*
X81035000Y-73830000D02*
X81035000Y-72635000D01*
D75*
X79520000Y-73795000D02*
X79485000Y-73830000D01*
X79520000Y-73135234D02*
X79520000Y-73795000D01*
X80055734Y-72599500D02*
X79520000Y-73135234D01*
X81690000Y-71640000D02*
X81420000Y-71910000D01*
X82217538Y-71640000D02*
X81690000Y-71640000D01*
X82640000Y-71217538D02*
X82217538Y-71640000D01*
X82640000Y-70885000D02*
X82640000Y-71217538D01*
X83390000Y-73220000D02*
X83390000Y-73990000D01*
X82640000Y-72470000D02*
X83390000Y-73220000D01*
X82640000Y-72435000D02*
X82640000Y-72470000D01*
X80726000Y-70393032D02*
X81375750Y-71042782D01*
X80726000Y-65255501D02*
X80726000Y-70393032D01*
X84390000Y-72209500D02*
X84489500Y-72110000D01*
X84390000Y-73990000D02*
X84390000Y-72209500D01*
X84890000Y-76080000D02*
X84390000Y-76580000D01*
X84890000Y-73990000D02*
X84890000Y-76080000D01*
X83490000Y-69820000D02*
X83890000Y-70220000D01*
X81420000Y-69820000D02*
X83490000Y-69820000D01*
X81176000Y-69576000D02*
X81420000Y-69820000D01*
X83890000Y-70220000D02*
X83890000Y-73990000D01*
X81176000Y-65255501D02*
X81176000Y-69576000D01*
X81276000Y-65155501D02*
X81176000Y-65255501D01*
X81276000Y-64143000D02*
X81276000Y-65155501D01*
D72*
X82890000Y-73990000D02*
X81800000Y-75080000D01*
X81035000Y-74315000D02*
X81800000Y-75080000D01*
X81035000Y-73830000D02*
X81035000Y-74315000D01*
X80200000Y-75530000D02*
X80650000Y-75080000D01*
X80650000Y-75080000D02*
X81800000Y-75080000D01*
D75*
X79020000Y-76115000D02*
X80200000Y-77295000D01*
X79020000Y-74440000D02*
X79020000Y-76115000D01*
X79485000Y-73975000D02*
X79020000Y-74440000D01*
X79485000Y-73830000D02*
X79485000Y-73975000D01*
X82030000Y-78940000D02*
X84390000Y-76580000D01*
X80980000Y-78940000D02*
X82030000Y-78940000D01*
X80200000Y-78160000D02*
X80980000Y-78940000D01*
X80200000Y-77295000D02*
X80200000Y-78160000D01*
X80626000Y-64143000D02*
X80626000Y-65155501D01*
X80626000Y-65155501D02*
X80726000Y-65255501D01*
X73010000Y-95590000D02*
X73450000Y-95150000D01*
X75735000Y-95150000D02*
X75750000Y-95165000D01*
X73450000Y-95150000D02*
X75735000Y-95150000D01*
X69980000Y-94580000D02*
X72000000Y-94580000D01*
X72000000Y-94580000D02*
X73010000Y-95590000D01*
X69275000Y-93875000D02*
X69275000Y-91237500D01*
X69980000Y-94580000D02*
X69275000Y-93875000D01*
X69275000Y-91237500D02*
X69800000Y-90712500D01*
D72*
X78350000Y-68425000D02*
X76325000Y-68425000D01*
X81809501Y-68000000D02*
X82450000Y-68000000D01*
X84275000Y-67675000D02*
X85450000Y-67675000D01*
X83200000Y-68750000D02*
X84275000Y-67675000D01*
X85450000Y-67675000D02*
X85975000Y-67150000D01*
X85125000Y-65075000D02*
X85125000Y-61987500D01*
X85125000Y-61987500D02*
X86037500Y-61075000D01*
X82450000Y-68000000D02*
X83200000Y-68750000D01*
X76325000Y-68425000D02*
X75200000Y-67300000D01*
X74150000Y-85920000D02*
X74240000Y-86010000D01*
X89915000Y-100205000D02*
X91815000Y-100205000D01*
D75*
X85517807Y-91317807D02*
X85517807Y-91097638D01*
D72*
X89479000Y-70104000D02*
X90375000Y-71000000D01*
X72300000Y-84050000D02*
X73200000Y-83150000D01*
X74170000Y-103760000D02*
X74170000Y-104392000D01*
X73290000Y-85920000D02*
X74150000Y-85920000D01*
X73250000Y-77925000D02*
X73250000Y-78075000D01*
X73080000Y-88940000D02*
X72480000Y-89540000D01*
X77460000Y-89540000D02*
X77460000Y-89610000D01*
X100950000Y-92225000D02*
X99275000Y-93900000D01*
X79326000Y-64143000D02*
X79326000Y-66014000D01*
X80600000Y-89600000D02*
X80600000Y-89830000D01*
X84000000Y-100375000D02*
X85398268Y-100375000D01*
X85450000Y-101360000D02*
X84465000Y-100375000D01*
X71625000Y-84465000D02*
X71660000Y-84500000D01*
X82214785Y-97832333D02*
X82282333Y-97832333D01*
X79190000Y-66150000D02*
X79190000Y-65890946D01*
X84465000Y-100375000D02*
X84000000Y-100375000D01*
X104050000Y-89550000D02*
X103900000Y-89400000D01*
X87924328Y-72602000D02*
X88773000Y-72602000D01*
X72525000Y-77200000D02*
X73250000Y-77925000D01*
X71450000Y-77200000D02*
X72525000Y-77200000D01*
X74170000Y-104392000D02*
X71628000Y-106934000D01*
X73290000Y-84872164D02*
X73412164Y-84750000D01*
X91815000Y-100205000D02*
X92790000Y-100205000D01*
X89130000Y-98980000D02*
X89915000Y-99765000D01*
D75*
X86850000Y-90320000D02*
X86295445Y-90320000D01*
D72*
X75990000Y-92180000D02*
X76930000Y-92180000D01*
D75*
X78000000Y-87000000D02*
X79000000Y-88000000D01*
D72*
X70750000Y-89920000D02*
X70750000Y-92587500D01*
X92790000Y-100205000D02*
X93740000Y-99255000D01*
X81800000Y-97417548D02*
X82214785Y-97832333D01*
X84000000Y-100375000D02*
X84000000Y-100840000D01*
X73320000Y-88940000D02*
X73080000Y-88940000D01*
X73290000Y-85920000D02*
X73290000Y-84872164D01*
X73200000Y-83150000D02*
X73200000Y-78125000D01*
X90940000Y-101230000D02*
X89915000Y-100205000D01*
X97625000Y-101525000D02*
X97625000Y-102625000D01*
X77850000Y-76125000D02*
X77850000Y-76280000D01*
D75*
X86720000Y-92500000D02*
X86700000Y-92500000D01*
D72*
X85975000Y-65600000D02*
X85975000Y-64375000D01*
X77850000Y-76280000D02*
X76970000Y-77160000D01*
X72480000Y-89540000D02*
X71130000Y-89540000D01*
X85450000Y-102822000D02*
X85450000Y-101360000D01*
X100575000Y-104175000D02*
X100575000Y-102125000D01*
X88113000Y-70104000D02*
X89296000Y-70104000D01*
X70450000Y-76200000D02*
X71450000Y-77200000D01*
X73320000Y-88940000D02*
X73860000Y-88940000D01*
X86142000Y-104314000D02*
X86142000Y-103514000D01*
X82282333Y-97832333D02*
X82620500Y-98170500D01*
X77540000Y-86540000D02*
X77540000Y-86510000D01*
X75460000Y-105050000D02*
X74170000Y-103760000D01*
X88773000Y-72602000D02*
X90375000Y-71000000D01*
X83260000Y-101040000D02*
X82600000Y-101700000D01*
X89296000Y-67579000D02*
X89296000Y-70104000D01*
X94615000Y-84390000D02*
X94615000Y-85321269D01*
X102085000Y-102125000D02*
X102100000Y-102140000D01*
X103900000Y-87220000D02*
X103960000Y-87160000D01*
X105100000Y-93460000D02*
X103865000Y-92225000D01*
X83800000Y-101040000D02*
X83260000Y-101040000D01*
D75*
X88167500Y-90320000D02*
X88187500Y-90300000D01*
D72*
X93740000Y-99255000D02*
X93040000Y-98555000D01*
X97625000Y-101525000D02*
X97625000Y-99325000D01*
X71130000Y-89540000D02*
X70750000Y-89920000D01*
X103865000Y-92225000D02*
X100950000Y-92225000D01*
X99275000Y-93900000D02*
X98800000Y-93900000D01*
X94615000Y-85321269D02*
X95116738Y-85823007D01*
D75*
X88700000Y-89787500D02*
X89200000Y-89787500D01*
X86700000Y-92500000D02*
X85517807Y-91317807D01*
D72*
X90221000Y-66654000D02*
X89296000Y-67579000D01*
X79326000Y-66014000D02*
X79190000Y-66150000D01*
X91202000Y-66654000D02*
X90221000Y-66654000D01*
X81980000Y-102320000D02*
X82600000Y-101700000D01*
X93740000Y-98770000D02*
X94170378Y-98339622D01*
X79000000Y-88000000D02*
X77460000Y-89540000D01*
X103960000Y-86980000D02*
X105100000Y-85840000D01*
X85740000Y-98980000D02*
X89130000Y-98980000D01*
X85398268Y-100375000D02*
X85850242Y-100826974D01*
X105100000Y-90920000D02*
X104050000Y-89870000D01*
X71625000Y-84050000D02*
X72300000Y-84050000D01*
X101127000Y-104175000D02*
X103886000Y-106934000D01*
X93040000Y-98555000D02*
X93040000Y-97090000D01*
X77200000Y-105050000D02*
X75460000Y-105050000D01*
X85398268Y-99321732D02*
X85740000Y-98980000D01*
X100575000Y-102125000D02*
X102085000Y-102125000D01*
X79000000Y-88000000D02*
X77540000Y-86540000D01*
D75*
X88187500Y-89800000D02*
X88687500Y-89800000D01*
D72*
X79190000Y-65890946D02*
X78466292Y-65167238D01*
D75*
X88187500Y-90300000D02*
X88187500Y-89800000D01*
D72*
X97625000Y-102625000D02*
X97600000Y-102650000D01*
X85398268Y-100375000D02*
X85398268Y-99321732D01*
X79000000Y-88000000D02*
X80600000Y-89600000D01*
D75*
X78000000Y-85050000D02*
X78000000Y-87000000D01*
D72*
X73200000Y-78125000D02*
X73250000Y-78075000D01*
X100575000Y-102125000D02*
X100075000Y-101625000D01*
X93740000Y-99255000D02*
X93740000Y-98770000D01*
X89915000Y-99765000D02*
X89915000Y-100205000D01*
X85975000Y-64375000D02*
X86075000Y-64275000D01*
X101127000Y-104175000D02*
X100575000Y-104175000D01*
X73412164Y-83362164D02*
X73200000Y-83150000D01*
X86142000Y-103514000D02*
X85450000Y-102822000D01*
X81800000Y-96540000D02*
X81800000Y-97417548D01*
D75*
X86295445Y-90320000D02*
X85517807Y-91097638D01*
X86850000Y-90320000D02*
X88167500Y-90320000D01*
D72*
X84000000Y-100840000D02*
X83800000Y-101040000D01*
X89296000Y-70104000D02*
X89479000Y-70104000D01*
X90940000Y-102540000D02*
X90940000Y-101230000D01*
X103900000Y-89400000D02*
X103900000Y-87220000D01*
X70450000Y-75450000D02*
X70450000Y-76200000D01*
X71625000Y-84050000D02*
X71625000Y-84465000D01*
X90642000Y-102838000D02*
X90940000Y-102540000D01*
X81480000Y-102320000D02*
X81980000Y-102320000D01*
X104050000Y-89870000D02*
X104050000Y-89550000D01*
X90642000Y-104314000D02*
X90642000Y-102838000D01*
X76930000Y-92180000D02*
X77050000Y-92300000D01*
X103960000Y-87160000D02*
X103960000Y-86980000D01*
D75*
X78000000Y-84240000D02*
X78000000Y-85050000D01*
X88687500Y-89800000D02*
X88700000Y-89787500D01*
D72*
X73412164Y-84750000D02*
X73412164Y-83362164D01*
X73860000Y-88940000D02*
X74150000Y-88650000D01*
X80025000Y-68950000D02*
X80025000Y-67775000D01*
X75050000Y-75450000D02*
X76050000Y-74450000D01*
X80025000Y-67775000D02*
X80000000Y-67750000D01*
X79800000Y-67100000D02*
X78100000Y-67100000D01*
X77850000Y-74575000D02*
X78350000Y-74075000D01*
X78100000Y-67100000D02*
X77500000Y-66500000D01*
X77725000Y-74450000D02*
X77850000Y-74575000D01*
X78350000Y-71725000D02*
X78350000Y-70300000D01*
X79500000Y-69150000D02*
X79825000Y-69150000D01*
X78350000Y-74075000D02*
X78350000Y-71725000D01*
X79825000Y-69150000D02*
X80025000Y-68950000D01*
X76050000Y-74450000D02*
X77725000Y-74450000D01*
X75000000Y-73400000D02*
X75050000Y-73450000D01*
X78350000Y-70300000D02*
X79500000Y-69150000D01*
X80000000Y-67750000D02*
X80000000Y-67300000D01*
X75050000Y-73450000D02*
X75050000Y-75450000D01*
X80000000Y-67300000D02*
X79800000Y-67100000D01*
D75*
X84000000Y-102690000D02*
X84000000Y-101925000D01*
X84642000Y-103332000D02*
X84000000Y-102690000D01*
X84642000Y-104314000D02*
X84642000Y-103332000D01*
D72*
X95040000Y-102040000D02*
X95040000Y-101480000D01*
X95875000Y-99125000D02*
X95875000Y-99045000D01*
D75*
X92642000Y-104314000D02*
X92642000Y-103252000D01*
D72*
X88430000Y-95810000D02*
X87610000Y-94990000D01*
X94660000Y-96930000D02*
X93540000Y-95810000D01*
D75*
X92642000Y-103252000D02*
X92640000Y-103250000D01*
D72*
X95040000Y-101480000D02*
X95060000Y-101460000D01*
X95875000Y-99055000D02*
X94660000Y-97840000D01*
X95875000Y-99125000D02*
X95875000Y-99055000D01*
X87610000Y-94990000D02*
X87060000Y-94990000D01*
X93540000Y-95810000D02*
X88430000Y-95810000D01*
D75*
X93350000Y-102540000D02*
X93360000Y-102540000D01*
X93420000Y-102480000D02*
X94600000Y-102480000D01*
D72*
X94660000Y-97840000D02*
X94660000Y-96930000D01*
D75*
X93360000Y-102540000D02*
X93420000Y-102480000D01*
X92640000Y-103250000D02*
X93350000Y-102540000D01*
D72*
X95060000Y-99940000D02*
X95875000Y-99125000D01*
D75*
X94600000Y-102480000D02*
X95040000Y-102040000D01*
D72*
X95060000Y-101460000D02*
X95060000Y-99940000D01*
D75*
X89740000Y-97090000D02*
X88730000Y-97090000D01*
X88730000Y-97090000D02*
X87920000Y-96280000D01*
X82940000Y-99270000D02*
X83860000Y-99270000D01*
X87920000Y-96280000D02*
X85260000Y-96280000D01*
X84120000Y-99010000D02*
X84120000Y-97660000D01*
X82160000Y-100050000D02*
X82940000Y-99270000D01*
X83860000Y-99270000D02*
X84120000Y-99010000D01*
X85260000Y-96280000D02*
X84120000Y-97420000D01*
X84120000Y-97420000D02*
X84120000Y-97660000D01*
X76980000Y-100250000D02*
X80060000Y-100250000D01*
X76052500Y-101177500D02*
X76980000Y-100250000D01*
X83320000Y-98650000D02*
X83320000Y-96640000D01*
X76052500Y-99387500D02*
X77060000Y-98380000D01*
X81627183Y-99080000D02*
X81837183Y-98870000D01*
X83320000Y-96640000D02*
X83760000Y-96200000D01*
X76052500Y-102160000D02*
X76052500Y-99387500D01*
X77560000Y-98380000D02*
X77940000Y-98000000D01*
X80640000Y-100050000D02*
X81610000Y-99080000D01*
X80260000Y-100050000D02*
X80640000Y-100050000D01*
X81610000Y-99080000D02*
X81627183Y-99080000D01*
X77060000Y-98380000D02*
X77560000Y-98380000D01*
X83760000Y-96200000D02*
X83760000Y-94990000D01*
X81837183Y-98870000D02*
X83100000Y-98870000D01*
X83100000Y-98870000D02*
X83320000Y-98650000D01*
X76052500Y-102160000D02*
X76052500Y-101177500D01*
X77940000Y-98000000D02*
X77940000Y-97127500D01*
X80060000Y-100250000D02*
X80260000Y-100050000D01*
D72*
X93202000Y-65777000D02*
X92225000Y-64800000D01*
X93202000Y-66654000D02*
X93202000Y-65777000D01*
X90925000Y-70000000D02*
X92400000Y-70000000D01*
X92225000Y-64800000D02*
X89375000Y-64800000D01*
X88113000Y-66062000D02*
X88113000Y-69154000D01*
X92846000Y-66654000D02*
X92400000Y-67100000D01*
X93202000Y-66654000D02*
X92846000Y-66654000D01*
X89375000Y-64800000D02*
X88113000Y-66062000D01*
X90375000Y-69450000D02*
X90925000Y-70000000D01*
X92400000Y-67100000D02*
X92400000Y-70000000D01*
D75*
X91142000Y-104314000D02*
X91142000Y-103514000D01*
X91815000Y-102841000D02*
X91815000Y-101755000D01*
X91142000Y-103514000D02*
X91815000Y-102841000D01*
X92142000Y-103079686D02*
X93740000Y-101481686D01*
X92142000Y-104314000D02*
X92142000Y-103079686D01*
X93740000Y-101481686D02*
X93740000Y-100805000D01*
X93142000Y-103358000D02*
X93620000Y-102880000D01*
X93142000Y-104314000D02*
X93142000Y-103358000D01*
X95950000Y-102880000D02*
X96075000Y-102755000D01*
X93620000Y-102880000D02*
X95950000Y-102880000D01*
X96075000Y-102755000D02*
X96075000Y-101525000D01*
X89350000Y-98320000D02*
X88690000Y-97660000D01*
D72*
X98900000Y-101250000D02*
X100075000Y-100075000D01*
X100075000Y-100075000D02*
X100135000Y-100075000D01*
D75*
X91860000Y-98530000D02*
X91860000Y-98500000D01*
D72*
X100135000Y-100075000D02*
X101360000Y-101300000D01*
X98060000Y-103380000D02*
X98110000Y-103330000D01*
D75*
X91860000Y-98500000D02*
X91680000Y-98320000D01*
D72*
X93642000Y-104314000D02*
X93642000Y-103608000D01*
X93642000Y-103608000D02*
X93870000Y-103380000D01*
D75*
X88690000Y-97660000D02*
X87420000Y-97660000D01*
X91680000Y-98320000D02*
X89350000Y-98320000D01*
D72*
X98110000Y-103330000D02*
X98900000Y-102540000D01*
X93870000Y-103380000D02*
X98060000Y-103380000D01*
D75*
X92180000Y-98850000D02*
X91860000Y-98530000D01*
D72*
X98900000Y-102540000D02*
X98900000Y-101250000D01*
D75*
X94142000Y-104314000D02*
X94431000Y-104025000D01*
X94431000Y-104025000D02*
X98875000Y-104025000D01*
X98875000Y-104025000D02*
X99025000Y-104175000D01*
X76050000Y-85800000D02*
X75422164Y-85800000D01*
X75422164Y-85800000D02*
X74372164Y-84750000D01*
X76050000Y-86200000D02*
X75190000Y-86200000D01*
X74510000Y-86880000D02*
X73290000Y-86880000D01*
X73290000Y-86880000D02*
X72320000Y-86880000D01*
X71630000Y-86190000D02*
X71220000Y-86190000D01*
X75190000Y-86200000D02*
X74510000Y-86880000D01*
X72320000Y-86880000D02*
X71630000Y-86190000D01*
X74020000Y-87280000D02*
X73320000Y-87980000D01*
X74730000Y-87280000D02*
X74020000Y-87280000D01*
X72610000Y-88690000D02*
X71220000Y-88690000D01*
X76050000Y-86600000D02*
X75597452Y-86600000D01*
X75597452Y-86600000D02*
X74947452Y-87250000D01*
X73320000Y-87980000D02*
X72610000Y-88690000D01*
X74947452Y-87250000D02*
X74760000Y-87250000D01*
X74760000Y-87250000D02*
X74730000Y-87280000D01*
X87612500Y-61075000D02*
X87612500Y-63478500D01*
X87612500Y-63478500D02*
X87630000Y-63496000D01*
X78207500Y-108712000D02*
X78207500Y-107637500D01*
X78207500Y-107637500D02*
X77500000Y-106930000D01*
D73*
X83210000Y-62910000D02*
X83770000Y-62350000D01*
X81826000Y-61468000D02*
X82852000Y-61468000D01*
X82852000Y-61468000D02*
X83560000Y-60760000D01*
X83778000Y-63918000D02*
X83210000Y-63350000D01*
X79426000Y-61468000D02*
X81826000Y-61468000D01*
X83210000Y-63350000D02*
X83210000Y-62910000D01*
X78318000Y-61468000D02*
X78318000Y-61464392D01*
X79426000Y-61468000D02*
X78318000Y-61468000D01*
X83826000Y-63918000D02*
X83778000Y-63918000D01*
X77426000Y-63918000D02*
X77426000Y-62216530D01*
X78318000Y-61464392D02*
X77823804Y-60970196D01*
D75*
X101440000Y-97120000D02*
X102560000Y-96000000D01*
X86540000Y-93420000D02*
X88445686Y-93420000D01*
X96000000Y-97120000D02*
X101440000Y-97120000D01*
X88445686Y-93420000D02*
X89170000Y-94144314D01*
X89170000Y-94320000D02*
X89200000Y-94350000D01*
X89200000Y-94630000D02*
X89440000Y-94870000D01*
X85770000Y-92480000D02*
X85770000Y-92650000D01*
X93710000Y-94890000D02*
X94180000Y-94890000D01*
X95840000Y-96550000D02*
X95840000Y-96960000D01*
X93690000Y-94870000D02*
X93710000Y-94890000D01*
X81950000Y-89800000D02*
X83090000Y-89800000D01*
X83090000Y-89800000D02*
X85770000Y-92480000D01*
X94180000Y-94890000D02*
X95840000Y-96550000D01*
X95840000Y-96960000D02*
X96000000Y-97120000D01*
X85770000Y-92650000D02*
X86540000Y-93420000D01*
X89200000Y-94350000D02*
X89200000Y-94630000D01*
X89440000Y-94870000D02*
X93690000Y-94870000D01*
X89170000Y-94144314D02*
X89170000Y-94320000D01*
X95280000Y-96770000D02*
X95280000Y-97570000D01*
X103840000Y-97640000D02*
X103840000Y-94740000D01*
X88470000Y-94950000D02*
X88840000Y-95320000D01*
X103840000Y-94740000D02*
X102560000Y-93460000D01*
X88840000Y-95320000D02*
X93830000Y-95320000D01*
X84780000Y-92240000D02*
X84780000Y-93170000D01*
X88470000Y-94010000D02*
X88470000Y-94950000D01*
X88280000Y-93820000D02*
X88470000Y-94010000D01*
X85430000Y-93820000D02*
X88280000Y-93820000D01*
X95350000Y-97640000D02*
X103840000Y-97640000D01*
X95280000Y-97570000D02*
X95350000Y-97640000D01*
X84780000Y-93170000D02*
X85430000Y-93820000D01*
X93830000Y-95320000D02*
X95280000Y-96770000D01*
X81636080Y-93370000D02*
X82690000Y-93370000D01*
X101500000Y-89860000D02*
X102560000Y-90920000D01*
X80000000Y-90950000D02*
X80000000Y-91733920D01*
X80000000Y-91733920D02*
X81636080Y-93370000D01*
X98410000Y-89860000D02*
X101500000Y-89860000D01*
X101140000Y-84420000D02*
X102560000Y-85840000D01*
X101140000Y-82450000D02*
X101140000Y-84420000D01*
X81200000Y-90950000D02*
X82399500Y-90950000D01*
X82399500Y-90950000D02*
X82450000Y-90899500D01*
D72*
X78220000Y-105050000D02*
X79000000Y-105830000D01*
X83142000Y-107098000D02*
X83142000Y-104314000D01*
X79000000Y-105830000D02*
X79000000Y-107380000D01*
X78220000Y-105050000D02*
X78220000Y-103402500D01*
X82200000Y-108040000D02*
X83142000Y-107098000D01*
X79660000Y-108040000D02*
X82200000Y-108040000D01*
X79000000Y-107380000D02*
X79660000Y-108040000D01*
X78220000Y-103402500D02*
X77927500Y-103110000D01*
X79037500Y-102320000D02*
X77927500Y-101210000D01*
X83642000Y-104314000D02*
X83642000Y-103514000D01*
X83642000Y-103514000D02*
X83338000Y-103210000D01*
X80460000Y-102320000D02*
X79037500Y-102320000D01*
X81350000Y-103210000D02*
X80460000Y-102320000D01*
X83338000Y-103210000D02*
X81350000Y-103210000D01*
D75*
X75350000Y-89400000D02*
X75060000Y-89690000D01*
X73900000Y-90290000D02*
X73900000Y-90360000D01*
X86642000Y-105114000D02*
X85726000Y-106030000D01*
X86642000Y-104314000D02*
X86642000Y-105114000D01*
X76050000Y-89400000D02*
X75350000Y-89400000D01*
X74720000Y-90030000D02*
X74160000Y-90030000D01*
X74160000Y-90030000D02*
X73900000Y-90290000D01*
X85726000Y-106030000D02*
X84640000Y-106030000D01*
X75060000Y-89690000D02*
X74720000Y-90030000D01*
X87142000Y-104314000D02*
X87142000Y-102492000D01*
X87142000Y-104314000D02*
X87142000Y-105808000D01*
X77988818Y-91978818D02*
X77988818Y-93697334D01*
X77840000Y-91830000D02*
X77988818Y-91978818D01*
X77600000Y-90950000D02*
X77600000Y-91590000D01*
X87142000Y-102492000D02*
X86590000Y-101940000D01*
X77600000Y-91590000D02*
X77840000Y-91830000D01*
X87142000Y-105808000D02*
X86190000Y-106760000D01*
X78400000Y-90950000D02*
X78400000Y-92730000D01*
X78400000Y-92730000D02*
X78690000Y-93020000D01*
X78690000Y-94540000D02*
X78270000Y-94960000D01*
X87642000Y-106578000D02*
X87600000Y-106620000D01*
X87642000Y-104314000D02*
X87642000Y-106578000D01*
X78690000Y-93020000D02*
X78690000Y-94540000D01*
X88142000Y-104314000D02*
X88142000Y-105902000D01*
X88142000Y-105902000D02*
X88710000Y-106470000D01*
X79005000Y-92635000D02*
X79460000Y-93090000D01*
X88142000Y-103368000D02*
X88410000Y-103100000D01*
X88142000Y-104314000D02*
X88142000Y-103368000D01*
X78800000Y-90950000D02*
X78800000Y-92430000D01*
X88410000Y-100400000D02*
X88210000Y-100200000D01*
X79460000Y-93090000D02*
X79460000Y-94710000D01*
X78800000Y-92430000D02*
X79005000Y-92635000D01*
X88410000Y-103100000D02*
X88410000Y-100400000D01*
X88642000Y-105368599D02*
X89828941Y-106555540D01*
X91800000Y-88500000D02*
X92800000Y-89500000D01*
X88642000Y-104314000D02*
X88642000Y-105368599D01*
X92800000Y-89500000D02*
X92800000Y-91300000D01*
X91081471Y-88150000D02*
X91431471Y-88500000D01*
X91431471Y-88500000D02*
X91800000Y-88500000D01*
X90550000Y-91600000D02*
X90250000Y-91300000D01*
X92800000Y-91300000D02*
X92500000Y-91600000D01*
X90250000Y-91300000D02*
X89712500Y-91300000D01*
X92500000Y-91600000D02*
X90550000Y-91600000D01*
X91800000Y-89300000D02*
X91548529Y-89300000D01*
X89700000Y-105560000D02*
X90110000Y-105970000D01*
X94720000Y-91705000D02*
X94615000Y-91600000D01*
X94720000Y-91495000D02*
X94615000Y-91600000D01*
X92200500Y-90450000D02*
X92200500Y-89700500D01*
X94720000Y-93490000D02*
X94720000Y-91705000D01*
X89712500Y-89437500D02*
X89712500Y-89800000D01*
X90400000Y-88750000D02*
X89712500Y-89437500D01*
X91548529Y-89300000D02*
X90998529Y-88750000D01*
X90640000Y-105970000D02*
X90760000Y-105970000D01*
X92200500Y-89700500D02*
X91800000Y-89300000D01*
X90110000Y-105970000D02*
X90640000Y-105970000D01*
X89142000Y-104314000D02*
X89142000Y-105002000D01*
X94720000Y-89670000D02*
X94720000Y-91495000D01*
X90998529Y-88750000D02*
X90400000Y-88750000D01*
X89142000Y-105002000D02*
X89700000Y-105560000D01*
X84940000Y-89780000D02*
X84940000Y-90280000D01*
X90760000Y-105970000D02*
X90800000Y-106010000D01*
X72640000Y-91850000D02*
X72640000Y-92770000D01*
X72940000Y-93070000D02*
X73350000Y-93070000D01*
X72640000Y-92770000D02*
X72940000Y-93070000D01*
X71700000Y-90910000D02*
X72640000Y-91850000D01*
X71700000Y-90712500D02*
X71700000Y-90910000D01*
D72*
X74990000Y-94010000D02*
X75060000Y-94080000D01*
X71078000Y-103400000D02*
X73050000Y-103400000D01*
X74290000Y-91540000D02*
X74160000Y-91670000D01*
X74160000Y-91670000D02*
X74160000Y-93110000D01*
X73050000Y-103400000D02*
X73710000Y-102740000D01*
X71078000Y-103400000D02*
X71078000Y-99800000D01*
X76630000Y-98060000D02*
X74990000Y-98060000D01*
X76000000Y-90250000D02*
X76050000Y-90250000D01*
X74990000Y-98060000D02*
X73250000Y-99800000D01*
X76880000Y-94990000D02*
X76850000Y-95020000D01*
X76850000Y-95020000D02*
X76850000Y-97840000D01*
X76850000Y-97840000D02*
X76630000Y-98060000D01*
X76880000Y-94530000D02*
X76880000Y-94990000D01*
X73250000Y-99800000D02*
X71078000Y-99800000D01*
X74990000Y-93940000D02*
X74990000Y-94010000D01*
X75060000Y-94080000D02*
X76430000Y-94080000D01*
X74290000Y-91540000D02*
X74710000Y-91540000D01*
X76430000Y-94080000D02*
X76880000Y-94530000D01*
X74160000Y-93110000D02*
X74990000Y-93940000D01*
X74710000Y-91540000D02*
X76000000Y-90250000D01*
X73710000Y-102740000D02*
X74150000Y-102740000D01*
X104436000Y-99800000D02*
X104436000Y-103400000D01*
X102180000Y-99340000D02*
X102640000Y-99800000D01*
X82050000Y-84200000D02*
X82050000Y-83400000D01*
X104370000Y-103160000D02*
X104580000Y-102950000D01*
X81700000Y-84850000D02*
X81625000Y-84925000D01*
X82050000Y-84500000D02*
X81700000Y-84850000D01*
X82050000Y-84200000D02*
X82050000Y-84500000D01*
X81625000Y-84925000D02*
X81300000Y-84925000D01*
X102640000Y-99800000D02*
X104436000Y-99800000D01*
X102100000Y-103160000D02*
X104370000Y-103160000D01*
X70605000Y-84050000D02*
X70605000Y-84465000D01*
X71078000Y-82318000D02*
X71078000Y-78718000D01*
X70530000Y-85000000D02*
X70530000Y-84610000D01*
X70530000Y-84610000D02*
X70640000Y-84500000D01*
X69500000Y-85720000D02*
X70220000Y-85000000D01*
X70220000Y-85000000D02*
X70530000Y-85000000D01*
D75*
X75159500Y-87800000D02*
X75009500Y-87950000D01*
D72*
X71078000Y-82318000D02*
X71078000Y-83577000D01*
X71078000Y-83577000D02*
X70605000Y-84050000D01*
D75*
X76050000Y-87800000D02*
X75159500Y-87800000D01*
D72*
X69500000Y-87210000D02*
X69500000Y-85720000D01*
X70605000Y-84465000D02*
X70640000Y-84500000D01*
X104436000Y-82318000D02*
X104436000Y-78718000D01*
D75*
X80800000Y-85050000D02*
X80800000Y-84375000D01*
X80800000Y-84375000D02*
X81100000Y-84075000D01*
X79850000Y-92770000D02*
X80453650Y-93373650D01*
X98500000Y-84465000D02*
X98425000Y-84390000D01*
X79200000Y-92120000D02*
X79850000Y-92770000D01*
X98500000Y-86890000D02*
X98500000Y-84465000D01*
X99830000Y-87090000D02*
X98700000Y-87090000D01*
X98700000Y-87090000D02*
X98500000Y-86890000D01*
X80453650Y-93373650D02*
X80453650Y-94818005D01*
X79200000Y-90950000D02*
X79200000Y-91950000D01*
X79200000Y-91950000D02*
X79200000Y-92120000D01*
X91600000Y-91000500D02*
X91300000Y-90700500D01*
X91150000Y-93450000D02*
X91150000Y-92640000D01*
X91300000Y-90700500D02*
X90850000Y-90700500D01*
X90850000Y-90700500D02*
X90750500Y-90800000D01*
X81750000Y-94580000D02*
X81250000Y-94080000D01*
X79600000Y-91910000D02*
X79600000Y-90950000D01*
X81250000Y-94080000D02*
X81250000Y-93560000D01*
X90750000Y-92500000D02*
X90550000Y-92300000D01*
X90750500Y-90800000D02*
X89712500Y-90800000D01*
X91150000Y-92640000D02*
X91290000Y-92500000D01*
X81250000Y-93560000D02*
X79600000Y-91910000D01*
X91290000Y-92500000D02*
X90750000Y-92500000D01*
D72*
X87130000Y-67640000D02*
X87130000Y-65016000D01*
X87130000Y-65016000D02*
X87630000Y-64516000D01*
X86850000Y-67920000D02*
X87130000Y-67640000D01*
X86077000Y-72602000D02*
X85275000Y-71800000D01*
X85275000Y-71800000D02*
X85275000Y-71402000D01*
X86904328Y-72602000D02*
X86077000Y-72602000D01*
X85275000Y-71402000D02*
X85623000Y-71054000D01*
D75*
X75570000Y-89800000D02*
X76050000Y-89800000D01*
X73350000Y-91760000D02*
X74680000Y-90430000D01*
X74680000Y-90430000D02*
X74940000Y-90430000D01*
X73350000Y-92050000D02*
X73350000Y-91760000D01*
X74940000Y-90430000D02*
X75570000Y-89800000D01*
X95300000Y-88260000D02*
X96660000Y-88260000D01*
X86710000Y-89480000D02*
X86730000Y-89500000D01*
X90750000Y-89350000D02*
X90750000Y-89950000D01*
X90750000Y-89950000D02*
X90800000Y-90000000D01*
X96660000Y-88260000D02*
X97155000Y-87765000D01*
X90800000Y-90000000D02*
X90500000Y-90300000D01*
X90500000Y-90300000D02*
X89712500Y-90300000D01*
X97155000Y-87765000D02*
X97155000Y-84390000D01*
X81475000Y-81900000D02*
X79600000Y-83775000D01*
X86500000Y-81900000D02*
X81475000Y-81900000D01*
X79600000Y-83775000D02*
X79600000Y-85050000D01*
X81481388Y-92649622D02*
X80400000Y-91568234D01*
X89283225Y-92611688D02*
X89187500Y-92515963D01*
X80400000Y-91568234D02*
X80400000Y-90950000D01*
X89187500Y-92515963D02*
X89187500Y-91400000D01*
X83889622Y-92649622D02*
X81481388Y-92649622D01*
X84020000Y-92780000D02*
X83889622Y-92649622D01*
X88530000Y-92120000D02*
X88687500Y-91962500D01*
X80800000Y-91402548D02*
X81193726Y-91796274D01*
X80800000Y-90950000D02*
X80800000Y-91402548D01*
X88687500Y-91962500D02*
X88687500Y-91400000D01*
X81193726Y-91796274D02*
X83347030Y-91796274D01*
X83347030Y-91796274D02*
X83500378Y-91949622D01*
X78800000Y-82625000D02*
X79700000Y-81725000D01*
X78800000Y-85050000D02*
X78800000Y-82625000D01*
X83467500Y-80807500D02*
X85050500Y-80807500D01*
X80550000Y-81000000D02*
X83275000Y-81000000D01*
X83275000Y-81000000D02*
X83467500Y-80807500D01*
X79700000Y-81725000D02*
X79825000Y-81725000D01*
X79825000Y-81725000D02*
X80550000Y-81000000D01*
D72*
X86850000Y-91280000D02*
X87070000Y-91280000D01*
X75030000Y-92670000D02*
X75030000Y-92180000D01*
X86930000Y-91280000D02*
X87680000Y-92030000D01*
X72750000Y-75450000D02*
X72750000Y-75800000D01*
X77630000Y-96010000D02*
X79190000Y-96010000D01*
X69638000Y-99800000D02*
X69638000Y-98222000D01*
X76780000Y-90950000D02*
X76780000Y-90970000D01*
X79320000Y-95960000D02*
X79900000Y-96540000D01*
X106020000Y-97980000D02*
X106020000Y-96970000D01*
X96160000Y-84665000D02*
X95885000Y-84390000D01*
X87525000Y-90825000D02*
X88187500Y-90825000D01*
X103090000Y-98510000D02*
X103450000Y-98150000D01*
X75605000Y-96860000D02*
X75750000Y-96715000D01*
X100910000Y-98510000D02*
X103090000Y-98510000D01*
X81420000Y-98170000D02*
X79900000Y-96650000D01*
X97250000Y-93900000D02*
X97250000Y-91695000D01*
X90170000Y-94420000D02*
X91880000Y-94420000D01*
X87690000Y-99490000D02*
X88570000Y-99490000D01*
X76320000Y-91430000D02*
X75737035Y-91430000D01*
X79070000Y-97370000D02*
X79900000Y-96540000D01*
X75659277Y-93299277D02*
X75030000Y-92670000D01*
X97155000Y-91600000D02*
X98425000Y-91600000D01*
X74800000Y-78075000D02*
X74825000Y-78100000D01*
X76300000Y-84550000D02*
X75450000Y-84550000D01*
X88200000Y-92850000D02*
X88600000Y-92850000D01*
X97250000Y-91695000D02*
X97155000Y-91600000D01*
X78647500Y-99252500D02*
X79070000Y-98830000D01*
X74750000Y-83850000D02*
X74750000Y-83150000D01*
X87070000Y-91280000D02*
X87525000Y-90825000D01*
X76780000Y-90970000D02*
X76320000Y-91430000D01*
X75970500Y-85050000D02*
X76750000Y-85050000D01*
X69980000Y-97880000D02*
X69980000Y-96340000D01*
X77940000Y-99252500D02*
X78647500Y-99252500D01*
X79190000Y-96010000D02*
X79240000Y-95960000D01*
X92400000Y-92590000D02*
X92310000Y-92500000D01*
X69638000Y-98222000D02*
X69980000Y-97880000D01*
X105876000Y-99800000D02*
X105876000Y-103400000D01*
X89275000Y-101755000D02*
X89915000Y-101755000D01*
X89642000Y-104314000D02*
X90142000Y-104314000D01*
X87680000Y-92500000D02*
X87680000Y-92030000D01*
X106020000Y-96970000D02*
X105900000Y-96850000D01*
X74825000Y-82645000D02*
X74825000Y-83075000D01*
X86490000Y-100200000D02*
X86170000Y-99880000D01*
X89030000Y-101510000D02*
X89275000Y-101755000D01*
X77450000Y-95830000D02*
X77630000Y-96010000D01*
X79240000Y-95960000D02*
X79320000Y-95960000D01*
X71990000Y-97880000D02*
X73010000Y-96860000D01*
X87680000Y-92030000D02*
X87680000Y-91795000D01*
X76300000Y-84550000D02*
X76300000Y-84600000D01*
X87610000Y-100620000D02*
X87190000Y-100200000D01*
X77028739Y-93638739D02*
X77450000Y-94060000D01*
X69620000Y-82336000D02*
X69638000Y-82318000D01*
X92400000Y-93900000D02*
X92400000Y-92590000D01*
X96470000Y-83805000D02*
X95885000Y-84390000D01*
X74825000Y-83075000D02*
X74750000Y-83150000D01*
X87680000Y-91795000D02*
X88175000Y-91300000D01*
X75920000Y-85100500D02*
X75900000Y-85100500D01*
X90142000Y-104314000D02*
X90142000Y-101982000D01*
X73010000Y-96860000D02*
X75605000Y-96860000D01*
X72750000Y-75800000D02*
X73875000Y-76925000D01*
X81950000Y-85689244D02*
X82404622Y-85234622D01*
X97155000Y-91600000D02*
X97155000Y-89215000D01*
X75900000Y-85100500D02*
X75800000Y-85200500D01*
X74825000Y-78100000D02*
X74825000Y-80200000D01*
X75970500Y-85050000D02*
X75920000Y-85100500D01*
X77450000Y-94060000D02*
X77450000Y-95830000D01*
X87850000Y-92500000D02*
X88200000Y-92850000D01*
X103450000Y-98150000D02*
X105850000Y-98150000D01*
X87190000Y-100200000D02*
X87190000Y-99990000D01*
X69980000Y-97880000D02*
X71990000Y-97880000D01*
X91880000Y-94420000D02*
X92400000Y-93900000D01*
X90142000Y-101982000D02*
X89915000Y-101755000D01*
X97250000Y-94560000D02*
X98220000Y-95530000D01*
X76300000Y-84600000D02*
X76750000Y-85050000D01*
X105876000Y-78718000D02*
X105876000Y-82318000D01*
X88600000Y-92850000D02*
X90170000Y-94420000D01*
X87610000Y-101940000D02*
X87610000Y-100620000D01*
X86850000Y-91280000D02*
X86930000Y-91280000D01*
X105850000Y-98150000D02*
X106020000Y-97980000D01*
X87190000Y-99990000D02*
X87690000Y-99490000D01*
X69980000Y-96340000D02*
X69970000Y-96330000D01*
X75360000Y-91850000D02*
X75030000Y-92180000D01*
X75450000Y-84550000D02*
X74750000Y-83850000D01*
X89030000Y-99950000D02*
X89030000Y-101510000D01*
X97250000Y-93900000D02*
X97250000Y-94560000D01*
X87190000Y-100200000D02*
X86490000Y-100200000D01*
X77028739Y-93299277D02*
X75659277Y-93299277D01*
X75737035Y-91430000D02*
X75360000Y-91807035D01*
X88570000Y-99490000D02*
X89030000Y-99950000D01*
X74825000Y-80200000D02*
X74825000Y-82645000D01*
X69620000Y-84290000D02*
X69620000Y-82336000D01*
X69638000Y-103400000D02*
X69638000Y-99800000D01*
X69638000Y-82318000D02*
X69638000Y-78718000D01*
X73875000Y-76925000D02*
X73875000Y-77150000D01*
X73875000Y-77150000D02*
X74800000Y-78075000D01*
X106020000Y-99350000D02*
X106020000Y-97980000D01*
X96160000Y-86850000D02*
X96160000Y-84665000D01*
X75360000Y-91807035D02*
X75360000Y-91850000D01*
X97155000Y-89215000D02*
X97010000Y-89070000D01*
X87680000Y-92500000D02*
X87850000Y-92500000D01*
X79070000Y-98830000D02*
X79070000Y-97370000D01*
X77028739Y-93299277D02*
X77028739Y-93638739D01*
D75*
X72860000Y-90329500D02*
X72860000Y-90290000D01*
X74425000Y-89500000D02*
X74925000Y-89000000D01*
X74925000Y-89000000D02*
X76050000Y-89000000D01*
X72860000Y-90290000D02*
X73650000Y-89500000D01*
X73650000Y-89500000D02*
X74425000Y-89500000D01*
X76140000Y-106930000D02*
X75410000Y-106200000D01*
M02*
