M48
; DRILL file {KiCad (6.0.10)} date Sat Mar  4 03:17:43 2023
; FORMAT={-:-/ absolute / metric / decimal}
; #@! TF.CreationDate,2023-03-04T03:17:43-05:00
; #@! TF.GenerationSoftware,Kicad,Pcbnew,(6.0.10)
; #@! TF.FileFunction,Plated,1,2,PTH
FMAT,2
METRIC
; #@! TA.AperFunction,Plated,PTH,ViaDrill
T1C0.300
; #@! TA.AperFunction,Plated,PTH,ComponentDrill
T2C0.500
; #@! TA.AperFunction,Plated,PTH,ComponentDrill
T3C0.650
; #@! TA.AperFunction,Plated,PTH,ComponentDrill
T4C0.750
; #@! TA.AperFunction,Plated,PTH,ComponentDrill
T5C1.000
; #@! TA.AperFunction,Plated,PTH,ComponentDrill
T6C2.200
%
G90
G05
T1
X69.5Y-87.21
X69.62Y-84.29
X69.97Y-96.33
X72.86Y-90.329
X73.9Y-90.36
X74.15Y-88.65
X74.24Y-86.01
X75.0Y-73.4
X75.01Y-87.95
X75.2Y-67.3
X75.41Y-106.2
X75.8Y-85.2
X76.97Y-77.16
X77.029Y-93.299
X77.05Y-92.3
X77.46Y-89.61
X77.54Y-86.51
X77.989Y-93.697
X78.27Y-94.96
X78.466Y-65.167
X79.46Y-94.71
X79.975Y-70.075
X80.056Y-72.599
X80.229Y-87.629
X80.454Y-94.818
X80.6Y-89.83
X81.1Y-84.075
X81.376Y-71.043
X81.42Y-71.91
X81.42Y-98.17
X81.75Y-94.58
X81.81Y-68.0
X82.05Y-83.4
X82.4Y-85.2
X82.45Y-90.899
X82.62Y-98.17
X82.69Y-93.37
X83.5Y-91.95
X83.975Y-83.25
X84.02Y-92.78
X84.489Y-72.11
X84.625Y-84.45
X84.64Y-106.03
X84.94Y-90.28
X85.518Y-91.098
X85.85Y-100.827
X85.94Y-80.72
X86.075Y-64.275
X86.17Y-99.88
X86.19Y-106.76
X86.73Y-89.5
X87.6Y-106.62
X88.27Y-80.66
X88.53Y-92.12
X88.61Y-76.48
X88.71Y-106.47
X89.175Y-85.6
X89.283Y-92.612
X89.3Y-75.0
X89.829Y-106.556
X89.83Y-75.75
X90.55Y-92.3
X90.75Y-89.35
X90.8Y-106.01
X91.1Y-73.2
X91.15Y-93.45
X91.6Y-91.001
X91.92Y-83.69
X92.18Y-98.85
X92.2Y-90.45
X92.29Y-87.03
X93.531Y-83.163
X94.17Y-98.34
X94.72Y-89.67
X94.72Y-93.49
X95.117Y-85.823
X95.3Y-88.26
X95.85Y-94.32
X96.16Y-86.85
X96.29Y-96.03
X96.47Y-81.07
X96.67Y-75.05
X97.01Y-89.07
X97.6Y-102.65
X98.22Y-95.53
X98.41Y-89.86
X99.83Y-87.09
X100.425Y-78.65
X100.91Y-98.51
X101.14Y-82.45
X101.36Y-101.3
X102.18Y-99.34
X102.4Y-80.55
T3
X73.01Y-95.59
X73.01Y-96.86
T4
X91.202Y-66.654
X93.202Y-66.654
T5
X102.56Y-85.84
X102.56Y-88.38
X102.56Y-90.92
X102.56Y-93.46
X102.56Y-96.0
X105.1Y-85.84
X105.1Y-88.38
X105.1Y-90.92
X105.1Y-93.46
X105.1Y-96.0
T6
X71.628Y-62.738
X71.628Y-106.934
X103.886Y-62.738
X103.886Y-106.934
T2
X77.326Y-61.818G85X77.326Y-61.118
G05
X83.926Y-61.818G85X83.926Y-61.118
G05
T0
M30
