G04 #@! TF.GenerationSoftware,KiCad,Pcbnew,(6.0.10)*
G04 #@! TF.CreationDate,2023-03-04T03:17:20-05:00*
G04 #@! TF.ProjectId,SmartWatch,536d6172-7457-4617-9463-682e6b696361,rev?*
G04 #@! TF.SameCoordinates,Original*
G04 #@! TF.FileFunction,Soldermask,Top*
G04 #@! TF.FilePolarity,Negative*
%FSLAX46Y46*%
G04 Gerber Fmt 4.6, Leading zero omitted, Abs format (unit mm)*
G04 Created by KiCad (PCBNEW (6.0.10)) date 2023-03-04 03:17:20*
%MOMM*%
%LPD*%
G01*
G04 APERTURE LIST*
G04 Aperture macros list*
%AMRoundRect*
0 Rectangle with rounded corners*
0 $1 Rounding radius*
0 $2 $3 $4 $5 $6 $7 $8 $9 X,Y pos of 4 corners*
0 Add a 4 corners polygon primitive as box body*
4,1,4,$2,$3,$4,$5,$6,$7,$8,$9,$2,$3,0*
0 Add four circle primitives for the rounded corners*
1,1,$1+$1,$2,$3*
1,1,$1+$1,$4,$5*
1,1,$1+$1,$6,$7*
1,1,$1+$1,$8,$9*
0 Add four rect primitives between the rounded corners*
20,1,$1+$1,$2,$3,$4,$5,0*
20,1,$1+$1,$4,$5,$6,$7,0*
20,1,$1+$1,$6,$7,$8,$9,0*
20,1,$1+$1,$8,$9,$2,$3,0*%
G04 Aperture macros list end*
%ADD10RoundRect,0.050800X0.450000X0.600000X-0.450000X0.600000X-0.450000X-0.600000X0.450000X-0.600000X0*%
%ADD11RoundRect,0.050800X-0.450000X-0.600000X0.450000X-0.600000X0.450000X0.600000X-0.450000X0.600000X0*%
%ADD12RoundRect,0.050800X0.600000X-0.450000X0.600000X0.450000X-0.600000X0.450000X-0.600000X-0.450000X0*%
%ADD13RoundRect,0.250800X-0.200000X-0.275000X0.200000X-0.275000X0.200000X0.275000X-0.200000X0.275000X0*%
%ADD14RoundRect,0.300800X-0.250000X-0.475000X0.250000X-0.475000X0.250000X0.475000X-0.250000X0.475000X0*%
%ADD15RoundRect,0.200800X0.512500X0.150000X-0.512500X0.150000X-0.512500X-0.150000X0.512500X-0.150000X0*%
%ADD16RoundRect,0.190800X-0.170000X0.140000X-0.170000X-0.140000X0.170000X-0.140000X0.170000X0.140000X0*%
%ADD17RoundRect,0.050800X0.127000X1.150000X-0.127000X1.150000X-0.127000X-1.150000X0.127000X-1.150000X0*%
%ADD18RoundRect,0.050800X1.600000X-0.127000X1.600000X0.127000X-1.600000X0.127000X-1.600000X-0.127000X0*%
%ADD19RoundRect,0.050800X0.127000X1.100000X-0.127000X1.100000X-0.127000X-1.100000X0.127000X-1.100000X0*%
%ADD20RoundRect,0.050800X-2.500000X0.127000X-2.500000X-0.127000X2.500000X-0.127000X2.500000X0.127000X0*%
%ADD21RoundRect,0.050800X0.127000X1.125000X-0.127000X1.125000X-0.127000X-1.125000X0.127000X-1.125000X0*%
%ADD22RoundRect,0.050800X0.127000X1.075000X-0.127000X1.075000X-0.127000X-1.075000X0.127000X-1.075000X0*%
%ADD23RoundRect,0.050800X0.127000X1.250000X-0.127000X1.250000X-0.127000X-1.250000X0.127000X-1.250000X0*%
%ADD24RoundRect,0.050800X-0.127000X0.450000X-0.127000X-0.450000X0.127000X-0.450000X0.127000X0.450000X0*%
%ADD25RoundRect,0.050800X-0.450000X-0.127000X0.450000X-0.127000X0.450000X0.127000X-0.450000X0.127000X0*%
%ADD26RoundRect,0.050800X0.127000X-0.450000X0.127000X0.450000X-0.127000X0.450000X-0.127000X-0.450000X0*%
%ADD27RoundRect,0.050800X0.450000X0.127000X-0.450000X0.127000X-0.450000X-0.127000X0.450000X-0.127000X0*%
%ADD28RoundRect,0.050800X-1.550000X1.550000X-1.550000X-1.550000X1.550000X-1.550000X1.550000X1.550000X0*%
%ADD29RoundRect,0.275800X-0.250000X0.225000X-0.250000X-0.225000X0.250000X-0.225000X0.250000X0.225000X0*%
%ADD30RoundRect,0.275800X0.225000X0.250000X-0.225000X0.250000X-0.225000X-0.250000X0.225000X-0.250000X0*%
%ADD31RoundRect,0.185800X-0.135000X-0.185000X0.135000X-0.185000X0.135000X0.185000X-0.135000X0.185000X0*%
%ADD32RoundRect,0.275800X-0.225000X-0.250000X0.225000X-0.250000X0.225000X0.250000X-0.225000X0.250000X0*%
%ADD33RoundRect,0.190800X0.170000X-0.140000X0.170000X0.140000X-0.170000X0.140000X-0.170000X-0.140000X0*%
%ADD34RoundRect,0.190800X0.140000X0.170000X-0.140000X0.170000X-0.140000X-0.170000X0.140000X-0.170000X0*%
%ADD35RoundRect,0.050800X0.850000X0.850000X-0.850000X0.850000X-0.850000X-0.850000X0.850000X-0.850000X0*%
%ADD36O,1.801600X1.801600*%
%ADD37C,1.101600*%
%ADD38C,4.501600*%
%ADD39RoundRect,0.050800X0.525000X-0.700000X0.525000X0.700000X-0.525000X0.700000X-0.525000X-0.700000X0*%
%ADD40RoundRect,0.185800X0.135000X0.185000X-0.135000X0.185000X-0.135000X-0.185000X0.135000X-0.185000X0*%
%ADD41RoundRect,0.269550X0.218750X0.256250X-0.218750X0.256250X-0.218750X-0.256250X0.218750X-0.256250X0*%
%ADD42C,0.601600*%
%ADD43RoundRect,0.050800X0.200000X0.675000X-0.200000X0.675000X-0.200000X-0.675000X0.200000X-0.675000X0*%
%ADD44RoundRect,0.050800X0.800000X0.700000X-0.800000X0.700000X-0.800000X-0.700000X0.800000X-0.700000X0*%
%ADD45RoundRect,0.050800X0.950000X0.950000X-0.950000X0.950000X-0.950000X-0.950000X0.950000X-0.950000X0*%
%ADD46O,1.001600X1.901600*%
%ADD47RoundRect,0.185800X0.185000X-0.135000X0.185000X0.135000X-0.185000X0.135000X-0.185000X-0.135000X0*%
%ADD48RoundRect,0.050800X-0.450000X-0.400000X0.450000X-0.400000X0.450000X0.400000X-0.450000X0.400000X0*%
%ADD49RoundRect,0.050800X0.500000X0.500000X-0.500000X0.500000X-0.500000X-0.500000X0.500000X-0.500000X0*%
%ADD50O,1.101600X1.101600*%
%ADD51RoundRect,0.050800X-0.525000X0.700000X-0.525000X-0.700000X0.525000X-0.700000X0.525000X0.700000X0*%
%ADD52RoundRect,0.190800X-0.140000X-0.170000X0.140000X-0.170000X0.140000X0.170000X-0.140000X0.170000X0*%
%ADD53RoundRect,0.275800X0.250000X-0.225000X0.250000X0.225000X-0.250000X0.225000X-0.250000X-0.225000X0*%
%ADD54RoundRect,0.185800X-0.185000X0.135000X-0.185000X-0.135000X0.185000X-0.135000X0.185000X0.135000X0*%
%ADD55RoundRect,0.198300X-0.147500X-0.172500X0.147500X-0.172500X0.147500X0.172500X-0.147500X0.172500X0*%
%ADD56RoundRect,0.269550X-0.218750X-0.256250X0.218750X-0.256250X0.218750X0.256250X-0.218750X0.256250X0*%
%ADD57RoundRect,0.100800X-0.350000X-0.050000X0.350000X-0.050000X0.350000X0.050000X-0.350000X0.050000X0*%
%ADD58RoundRect,0.100800X-0.050000X-0.350000X0.050000X-0.350000X0.050000X0.350000X-0.050000X0.350000X0*%
%ADD59RoundRect,0.050800X-2.300000X-2.300000X2.300000X-2.300000X2.300000X2.300000X-2.300000X2.300000X0*%
%ADD60RoundRect,0.050800X0.525000X0.325000X-0.525000X0.325000X-0.525000X-0.325000X0.525000X-0.325000X0*%
%ADD61RoundRect,0.050800X-0.900000X0.500000X-0.900000X-0.500000X0.900000X-0.500000X0.900000X0.500000X0*%
%ADD62RoundRect,0.269550X0.381250X-0.218750X0.381250X0.218750X-0.381250X0.218750X-0.381250X-0.218750X0*%
%ADD63RoundRect,0.050800X0.187500X0.175000X-0.187500X0.175000X-0.187500X-0.175000X0.187500X-0.175000X0*%
%ADD64RoundRect,0.050800X-0.175000X0.187500X-0.175000X-0.187500X0.175000X-0.187500X0.175000X0.187500X0*%
%ADD65RoundRect,0.300800X0.350000X0.625000X-0.350000X0.625000X-0.350000X-0.625000X0.350000X-0.625000X0*%
%ADD66O,1.301600X1.851600*%
%ADD67RoundRect,0.200800X-0.150000X0.650000X-0.150000X-0.650000X0.150000X-0.650000X0.150000X0.650000X0*%
%ADD68RoundRect,0.050800X-0.150000X-0.550000X0.150000X-0.550000X0.150000X0.550000X-0.150000X0.550000X0*%
%ADD69RoundRect,0.050800X-1.150000X-1.550000X1.150000X-1.550000X1.150000X1.550000X-1.150000X1.550000X0*%
%ADD70RoundRect,0.200800X0.587500X0.150000X-0.587500X0.150000X-0.587500X-0.150000X0.587500X-0.150000X0*%
%ADD71RoundRect,0.200800X-0.150000X0.587500X-0.150000X-0.587500X0.150000X-0.587500X0.150000X0.587500X0*%
%ADD72RoundRect,0.200800X-0.587500X-0.150000X0.587500X-0.150000X0.587500X0.150000X-0.587500X0.150000X0*%
%ADD73RoundRect,0.050800X0.750000X-1.000000X0.750000X1.000000X-0.750000X1.000000X-0.750000X-1.000000X0*%
%ADD74RoundRect,0.050800X1.900000X-1.000000X1.900000X1.000000X-1.900000X1.000000X-1.900000X-1.000000X0*%
%ADD75RoundRect,0.300800X0.250000X0.475000X-0.250000X0.475000X-0.250000X-0.475000X0.250000X-0.475000X0*%
G04 APERTURE END LIST*
D10*
X86994000Y-94996000D03*
X83694000Y-94996000D03*
X93090000Y-97028000D03*
X89790000Y-97028000D03*
D11*
X84202000Y-97790000D03*
X87502000Y-97790000D03*
D12*
X69850000Y-97916000D03*
X69850000Y-94616000D03*
D13*
X76165000Y-106930000D03*
X77815000Y-106930000D03*
D14*
X73075000Y-78075000D03*
X74975000Y-78075000D03*
D15*
X87751500Y-71054000D03*
X87751500Y-70104000D03*
X87751500Y-69154000D03*
X85476500Y-69154000D03*
X85476500Y-71054000D03*
D16*
X97560000Y-75970000D03*
X97560000Y-76930000D03*
D17*
X100174000Y-73700000D03*
D18*
X101649000Y-74725000D03*
D19*
X100174000Y-69700000D03*
D20*
X100749000Y-76975000D03*
D18*
X101649000Y-70675000D03*
D21*
X103124000Y-71675000D03*
D18*
X101649000Y-66825000D03*
X101649000Y-68725000D03*
D22*
X103124000Y-67775000D03*
D23*
X103124000Y-75850000D03*
D18*
X101649000Y-72675000D03*
D24*
X85890000Y-73990000D03*
X85390000Y-73990000D03*
X84890000Y-73990000D03*
X84390000Y-73990000D03*
X83890000Y-73990000D03*
X83390000Y-73990000D03*
X82890000Y-73990000D03*
D25*
X81800000Y-75080000D03*
X81800000Y-75580000D03*
X81800000Y-76080000D03*
X81800000Y-76580000D03*
X81800000Y-77080000D03*
X81800000Y-77580000D03*
X81800000Y-78080000D03*
D26*
X82890000Y-79170000D03*
X83390000Y-79170000D03*
X83890000Y-79170000D03*
X84390000Y-79170000D03*
X84890000Y-79170000D03*
X85390000Y-79170000D03*
X85890000Y-79170000D03*
D27*
X86980000Y-78080000D03*
X86980000Y-77580000D03*
X86980000Y-77080000D03*
X86980000Y-76580000D03*
X86980000Y-76080000D03*
X86980000Y-75580000D03*
X86980000Y-75080000D03*
D28*
X84390000Y-76580000D03*
D29*
X80200000Y-75745000D03*
X80200000Y-77295000D03*
X82640000Y-70885000D03*
X82640000Y-72435000D03*
D30*
X81035000Y-73830000D03*
X79485000Y-73830000D03*
D31*
X101290000Y-79075000D03*
X102310000Y-79075000D03*
D32*
X95875000Y-99125000D03*
X97425000Y-99125000D03*
D33*
X86850000Y-91280000D03*
X86850000Y-90320000D03*
D34*
X87680000Y-92500000D03*
X86720000Y-92500000D03*
D35*
X105100000Y-96000000D03*
D36*
X102560000Y-96000000D03*
X105100000Y-93460000D03*
X102560000Y-93460000D03*
X105100000Y-90920000D03*
X102560000Y-90920000D03*
X105100000Y-88380000D03*
X102560000Y-88380000D03*
X105100000Y-85840000D03*
X102560000Y-85840000D03*
D37*
X92400000Y-70000000D03*
D38*
X103886000Y-62738000D03*
D39*
X104580000Y-79250000D03*
X104580000Y-82850000D03*
X106020000Y-79250000D03*
X106020000Y-82850000D03*
D40*
X87610000Y-101940000D03*
X86590000Y-101940000D03*
D37*
X77500000Y-66500000D03*
D41*
X87612500Y-61075000D03*
X86037500Y-61075000D03*
D31*
X87190000Y-100200000D03*
X88210000Y-100200000D03*
X80460000Y-102320000D03*
X81480000Y-102320000D03*
D32*
X73200000Y-83150000D03*
X74750000Y-83150000D03*
D42*
X83926000Y-61468000D03*
X77326000Y-61468000D03*
D43*
X81926000Y-64143000D03*
X81276000Y-64143000D03*
X80626000Y-64143000D03*
X79976000Y-64143000D03*
X79326000Y-64143000D03*
D44*
X83826000Y-63918000D03*
X77426000Y-63918000D03*
D45*
X79426000Y-61468000D03*
X81826000Y-61468000D03*
D46*
X83926000Y-61468000D03*
X77326000Y-61468000D03*
D47*
X87630000Y-64516000D03*
X87630000Y-63496000D03*
D48*
X86925000Y-84950000D03*
X88325000Y-84950000D03*
X88325000Y-83850000D03*
X86925000Y-83850000D03*
D40*
X92310000Y-92500000D03*
X91290000Y-92500000D03*
D37*
X74825000Y-80200000D03*
D31*
X86904328Y-72602000D03*
X87924328Y-72602000D03*
D49*
X73010000Y-96860000D03*
D50*
X73010000Y-95590000D03*
D30*
X77991000Y-81788000D03*
X76441000Y-81788000D03*
D51*
X70945000Y-103400000D03*
X70945000Y-99800000D03*
X69505000Y-103400000D03*
X69505000Y-99800000D03*
D52*
X86845000Y-86500000D03*
X87805000Y-86500000D03*
D12*
X78350000Y-71725000D03*
X78350000Y-68425000D03*
D34*
X75990000Y-92180000D03*
X75030000Y-92180000D03*
D53*
X84000000Y-101925000D03*
X84000000Y-100375000D03*
D52*
X73412164Y-84750000D03*
X74372164Y-84750000D03*
D53*
X93740000Y-100805000D03*
X93740000Y-99255000D03*
D40*
X71660000Y-84500000D03*
X70640000Y-84500000D03*
D54*
X100400000Y-80265000D03*
X100400000Y-81285000D03*
D55*
X86215000Y-88025000D03*
X87185000Y-88025000D03*
D56*
X76632500Y-108712000D03*
X78207500Y-108712000D03*
D57*
X76050000Y-85800000D03*
X76050000Y-86200000D03*
X76050000Y-86600000D03*
X76050000Y-87000000D03*
X76050000Y-87400000D03*
X76050000Y-87800000D03*
X76050000Y-88200000D03*
X76050000Y-88600000D03*
X76050000Y-89000000D03*
X76050000Y-89400000D03*
X76050000Y-89800000D03*
X76050000Y-90200000D03*
D58*
X76800000Y-90950000D03*
X77200000Y-90950000D03*
X77600000Y-90950000D03*
X78000000Y-90950000D03*
X78400000Y-90950000D03*
X78800000Y-90950000D03*
X79200000Y-90950000D03*
X79600000Y-90950000D03*
X80000000Y-90950000D03*
X80400000Y-90950000D03*
X80800000Y-90950000D03*
X81200000Y-90950000D03*
D57*
X81950000Y-90200000D03*
X81950000Y-89800000D03*
X81950000Y-89400000D03*
X81950000Y-89000000D03*
X81950000Y-88600000D03*
X81950000Y-88200000D03*
X81950000Y-87800000D03*
X81950000Y-87400000D03*
X81950000Y-87000000D03*
X81950000Y-86600000D03*
X81950000Y-86200000D03*
X81950000Y-85800000D03*
D58*
X81200000Y-85050000D03*
X80800000Y-85050000D03*
X80400000Y-85050000D03*
X80000000Y-85050000D03*
X79600000Y-85050000D03*
X79200000Y-85050000D03*
X78800000Y-85050000D03*
X78400000Y-85050000D03*
X78000000Y-85050000D03*
X77600000Y-85050000D03*
X77200000Y-85050000D03*
X76800000Y-85050000D03*
D59*
X79000000Y-88000000D03*
D34*
X84520000Y-86025000D03*
X85480000Y-86025000D03*
D60*
X98375000Y-81775000D03*
X94225000Y-81775000D03*
X98375000Y-79625000D03*
X94225000Y-79625000D03*
D61*
X71220000Y-88690000D03*
X71220000Y-86190000D03*
D37*
X83200000Y-68750000D03*
D62*
X77940000Y-99252500D03*
X77940000Y-97127500D03*
D47*
X74150000Y-103760000D03*
X74150000Y-102740000D03*
D14*
X79900000Y-96540000D03*
X81800000Y-96540000D03*
D63*
X89712500Y-91300000D03*
X89712500Y-90800000D03*
X89712500Y-90300000D03*
X89712500Y-89800000D03*
D64*
X89200000Y-89787500D03*
X88700000Y-89787500D03*
D63*
X88187500Y-89800000D03*
X88187500Y-90300000D03*
X88187500Y-90800000D03*
X88187500Y-91300000D03*
D64*
X88700000Y-91312500D03*
X89200000Y-91312500D03*
D65*
X93202000Y-66654000D03*
D66*
X91202000Y-66654000D03*
D54*
X100025000Y-82865000D03*
X100025000Y-83885000D03*
D67*
X98425000Y-84395000D03*
X97155000Y-84395000D03*
X95885000Y-84395000D03*
X94615000Y-84395000D03*
X94615000Y-91595000D03*
X95885000Y-91595000D03*
X97155000Y-91595000D03*
X98425000Y-91595000D03*
D29*
X100075000Y-100075000D03*
X100075000Y-101625000D03*
D68*
X82642000Y-104314000D03*
X83142000Y-104314000D03*
X83642000Y-104314000D03*
X84142000Y-104314000D03*
X84642000Y-104314000D03*
X85142000Y-104314000D03*
X85642000Y-104314000D03*
X86142000Y-104314000D03*
X86642000Y-104314000D03*
X87142000Y-104314000D03*
X87642000Y-104314000D03*
X88142000Y-104314000D03*
X88642000Y-104314000D03*
X89142000Y-104314000D03*
X89642000Y-104314000D03*
X90142000Y-104314000D03*
X90642000Y-104314000D03*
X91142000Y-104314000D03*
X91642000Y-104314000D03*
X92142000Y-104314000D03*
X92642000Y-104314000D03*
X93142000Y-104314000D03*
X93642000Y-104314000D03*
X94142000Y-104314000D03*
D69*
X95812000Y-106014000D03*
X80972000Y-106014000D03*
D53*
X75750000Y-96715000D03*
X75750000Y-95165000D03*
D16*
X85610000Y-83360000D03*
X85610000Y-84320000D03*
D40*
X78220000Y-105050000D03*
X77200000Y-105050000D03*
D53*
X91815000Y-101755000D03*
X91815000Y-100205000D03*
D32*
X97355000Y-94220000D03*
X98905000Y-94220000D03*
D47*
X73350000Y-93070000D03*
X73350000Y-92050000D03*
D37*
X91050000Y-80600000D03*
D33*
X73290000Y-86880000D03*
X73290000Y-85920000D03*
D38*
X71628000Y-62738000D03*
D70*
X77927500Y-103110000D03*
X77927500Y-101210000D03*
X76052500Y-102160000D03*
D16*
X73320000Y-87980000D03*
X73320000Y-88940000D03*
D71*
X71700000Y-90712500D03*
X69800000Y-90712500D03*
X70750000Y-92587500D03*
D72*
X92512500Y-72925000D03*
X92512500Y-74825000D03*
X94387500Y-73875000D03*
D73*
X70450000Y-75450000D03*
X72750000Y-75450000D03*
X75050000Y-75450000D03*
D74*
X72750000Y-69150000D03*
D31*
X92415000Y-71500000D03*
X93435000Y-71500000D03*
D54*
X102100000Y-102140000D03*
X102100000Y-103160000D03*
D53*
X85975000Y-67150000D03*
X85975000Y-65600000D03*
D38*
X103886000Y-106934000D03*
D16*
X84950000Y-87145000D03*
X84950000Y-88105000D03*
D38*
X71628000Y-106934000D03*
D39*
X104580000Y-99350000D03*
X104580000Y-102950000D03*
X106020000Y-99350000D03*
X106020000Y-102950000D03*
D16*
X83200000Y-83195000D03*
X83200000Y-84155000D03*
D32*
X99025000Y-104175000D03*
X100575000Y-104175000D03*
D53*
X90375000Y-71000000D03*
X90375000Y-69450000D03*
D32*
X96075000Y-101525000D03*
X97625000Y-101525000D03*
D53*
X77850000Y-76125000D03*
X77850000Y-74575000D03*
X89915000Y-101755000D03*
X89915000Y-100205000D03*
D51*
X70945000Y-82318000D03*
X70945000Y-78718000D03*
X69505000Y-82318000D03*
X69505000Y-78718000D03*
D75*
X82160000Y-100050000D03*
X80260000Y-100050000D03*
M02*
